<svg width="100" height="100" viewBox="0 0 100 100" fill="none" xmlns="http://www.w3.org/2000/svg">
<circle cx="50" cy="50" r="46.5" fill="#1D3A6D" stroke="#C1D957" stroke-width="7"/>
<circle cx="50" cy="50" r="35" fill="white"/>
<path d="M46.5354 61.305L49.2538 59.0183C49.6621 58.6683 50.3388 58.6683 50.7471 59.0183L53.4654 61.305C54.0954 61.62 54.8654 61.305 55.0988 60.6283L55.6121 59.0767C55.7404 58.7033 55.6121 58.155 55.3321 57.875L52.6838 55.215C52.4854 55.0283 52.3338 54.655 52.3338 54.3867V51.0617C52.3338 50.5717 52.6954 50.3383 53.1504 50.525L58.8788 52.9983C59.7771 53.3833 60.5121 52.905 60.5121 51.925V50.42C60.5121 49.6383 59.9288 48.74 59.2054 48.4367L52.6838 45.625C52.4971 45.5433 52.3338 45.2983 52.3338 45.0883V41.5883C52.3338 40.4917 51.5288 39.1967 50.5488 38.695C50.1988 38.52 49.7904 38.52 49.4404 38.695C48.4604 39.1967 47.6554 40.5033 47.6554 41.6V45.1C47.6554 45.31 47.4921 45.555 47.3054 45.6367L40.7954 48.4483C40.0721 48.74 39.4888 49.6383 39.4888 50.42V51.925C39.4888 52.905 40.2238 53.3833 41.1221 52.9983L46.8504 50.525C47.2938 50.3267 47.6671 50.5717 47.6671 51.0617V54.3867C47.6671 54.655 47.5154 55.0283 47.3288 55.215L44.6804 57.875C44.4004 58.155 44.2721 58.6917 44.4004 59.0767L44.9138 60.6283C45.1238 61.305 45.8938 61.6317 46.5354 61.305Z" stroke="#1D3A6D" stroke-width="2.5" stroke-linecap="round" stroke-linejoin="round"/>
<circle cx="20" cy="20" r="17.5" fill="#1D3A6D" stroke="white" stroke-width="5"/>
<path d="M16.4941 24.752L20.7341 20.32C21.0328 20 21.2728 19.7173 21.4541 19.472C21.6461 19.216 21.7848 18.976 21.8701 18.752C21.9555 18.5173 21.9981 18.2827 21.9981 18.048C21.9981 17.5787 21.8435 17.2107 21.5341 16.944C21.2355 16.6773 20.8461 16.544 20.3661 16.544C19.8755 16.544 19.4381 16.672 19.0541 16.928C18.6808 17.184 18.3288 17.5893 17.9981 18.144L16.5101 16.88C16.9581 16.1227 17.5128 15.552 18.1741 15.168C18.8461 14.7733 19.6141 14.576 20.4781 14.576C21.2141 14.576 21.8541 14.72 22.3981 15.008C22.9528 15.296 23.3795 15.696 23.6781 16.208C23.9768 16.72 24.1261 17.3173 24.1261 18C24.1261 18.4587 24.0675 18.8747 23.9501 19.248C23.8435 19.6213 23.6568 19.9947 23.3901 20.368C23.1341 20.7307 22.7768 21.1413 22.3181 21.6L19.2301 24.752H16.4941ZM16.4941 26V24.752L18.3501 24.112H24.3661V26H16.4941Z" fill="white"/>
</svg>
