<svg xmlns="http://www.w3.org/2000/svg" width="1306.363" height="1404.71" viewBox="0 0 1306.363 1404.71">
  <g id="UC_Logo" data-name="UC Logo" transform="translate(0 0.004)">
    <g id="Layer_1" data-name="Layer 1" transform="translate(0 -0.004)">
      <path id="Path_5" data-name="Path 5" d="M383.1,59.381V325.929l-48.337,17.2L359.4,295.6V278.754L259.24,311.986v15.105l32.186,31.6-45.548,16.267V500.335L17.79,577.953v80.871l240.753-81.917v-.232l61.234-20.1V488.135l31.837-10.457V418.07L383.1,406.8v-.116l81.219-26.608V32.54Z" transform="translate(188.918 345.595)" fill="#1e3a6d"/>
      <path id="Path_6" data-name="Path 6" d="M98.014,3.8a24.518,24.518,0,0,0-3.834,9.063,18.126,18.126,0,0,1-15.105,6.274s-7.436.7-7.436,6.739a3.951,3.951,0,0,1-3.718,2.556s-3.486,0-3.021,5.926V48.882s-.813,10.574,5.113,10.806c0,0,13.711-.813,13.711,4.88v5.577s0,4.648-3.834,4.88c0,0-3.253,1.278-3.021,6.972V92.454s-.7,7.9,6.042,7.2c0,0,2.091,0,2.091,4.88v14.64s0,2.44-3.718,2.44H67.688s-2.672,0-2.789,4.648v13.478A3.718,3.718,0,0,0,68.85,143.7s5.345,15.221,15.686,18.126v75.41s0,6.042-4.88,5.81c0,0-7.553,0-8.134,4.88v8.831s-.7,7.088,4.183,7.436c0,0,5.926,2.556,5.693,7.9,0,0,0,8.134-4.067,8.715a9.528,9.528,0,0,0-6.739,10.225,9.644,9.644,0,0,0,7.553,12.316v67.16l53.565,17.778V303.346c9.76-1.975,6.972-12.317,6.972-12.317a9.528,9.528,0,0,0-6.623-10.225c-4.531-.581-4.183-8.715-4.183-8.715,0-5.345,5.81-7.9,5.81-7.9,4.88,0,4.183-7.436,4.183-7.436v-8.947c0-4.88-8.133-4.88-8.133-4.88-4.88,0-4.88-5.81-4.88-5.81V161.822c10.225-2.9,15.686-18.126,15.686-18.126a3.6,3.6,0,0,0,3.834-3.951V126.267c0-4.648-2.9-4.648-2.9-4.648h-13.13c-4.3,0-3.834-2.44-3.834-2.44v-14.64c0-4.88,2.091-4.88,2.091-4.88,6.739.7,6.158-7.2,6.158-7.2V82c0-5.693-3.021-6.972-3.021-6.972-4.067,0-3.834-4.88-3.834-4.88V64.568c0-5.693,13.711-4.88,13.711-4.88,5.81,0,5-10.806,5-10.806V34.241c0-5.461-2.9-5.926-2.9-5.926a4.3,4.3,0,0,1-3.834-2.556c0-6.042-7.32-6.739-7.32-6.739a18.126,18.126,0,0,1-15.105-6.274,26.143,26.143,0,0,0-3.95-8.947,8.947,8.947,0,0,0-13.479,0Z" transform="translate(688.733 7.862)" fill="#a5a5a7"/>
      <path id="Path_7" data-name="Path 7" d="M74.138,3.059a25.91,25.91,0,0,0-3.951,9.179A18.01,18.01,0,0,1,55.2,18.512s-7.436,0-7.436,6.623a4.067,4.067,0,0,1-3.834,2.556s-3.37.581-2.9,5.926V48.374s-.813,10.574,5,10.69c0,0,13.711-.7,13.711,4.88v5.81s0,4.764-3.718,5c0,0-3.253,1.162-3.137,6.972V92.179s-.581,7.785,6.158,7.088c0,0,2.091,0,2.091,4.88V118.9s0,2.44-3.834,2.44H43.811s-2.672,0-2.9,4.532V139.47a3.6,3.6,0,0,0,3.834,3.951s5.461,15.105,15.686,18.01v75.526s0,5.926-4.88,5.81c0,0-7.553,0-8.134,4.88v8.831s.7,6.391,8.947,6.274a8.947,8.947,0,0,1,3.021,9.063s.813,7.9-5,8.25A13.235,13.235,0,0,0,58.916,303.3V394.05l48.1-15.919v-75.41a9.528,9.528,0,0,0,7.669-12.2,9.76,9.76,0,0,0-6.739-10.341c-4.415,0-4.067-8.6-4.067-8.6a9.3,9.3,0,0,1,5.693-8.017c4.88,0,4.183-7.32,4.183-7.32v-8.831c0-4.88-8.134-4.88-8.134-4.88-4.88,0-4.88-5.81-4.88-5.81V161.2c10.341-2.9,15.686-18.01,15.686-18.01a3.718,3.718,0,0,0,3.951-3.951V125.643c0-4.532-2.789-4.532-2.789-4.532H104.348c-4.183,0-3.718-2.44-3.718-2.44V103.915c0-4.764,2.091-4.88,2.091-4.88,6.739.7,6.042-7.088,6.042-7.088V81.373c0-5.81-3.021-6.972-3.021-6.972-4.067,0-3.834-5-3.834-5V63.944c0-5.577,13.711-4.88,13.711-4.88,5.926,0,5.113-10.69,5.113-10.69V33.618c0-5.345-3.021-5.926-3.021-5.926a3.834,3.834,0,0,1-3.718-2.556c0-6.042-7.436-6.623-7.436-6.623A18.475,18.475,0,0,1,91.45,12.238a24.4,24.4,0,0,0-3.834-9.179,8.947,8.947,0,0,0-13.478,0Z" transform="translate(434.209 0.004)" fill="#a5a5a7"/>
      <path id="Path_8" data-name="Path 8" d="M17.78,103.344v371.82L213.8,408.817V39.67ZM132.928,364.78,98.883,376.4V150.054l34.045-11.619Z" transform="translate(188.812 421.311)" fill="#1e3a6d"/>
      <path id="Path_9" data-name="Path 9" d="M142.575,106.29,37.42,141.148V70.618L142.575,35.76Z" transform="translate(397.376 379.789)" fill="#24b3ba"/>
      <path id="Path_10" data-name="Path 10" d="M142.575,115.4,37.42,150.258V79.728L142.575,44.87Z" transform="translate(397.376 476.532)" fill="#24b3ba"/>
      <path id="Path_11" data-name="Path 11" d="M382.87,92.731V210.9L17.79,331.276V460.948L164.078,412.5V324.769L277.6,283.637v91.328l186.142-61.583V65.89Z" transform="translate(188.918 699.751)" fill="#1e3a6d"/>
      <path id="Path_12" data-name="Path 12" d="M118.878,165.178,31.5,194.11v-77.5L118.878,86.05Z" transform="translate(334.51 913.837)" fill="#24b3ba"/>
      <path id="Path_13" data-name="Path 13" d="M354.919,373.575V96.221L175.167,36.73V469.784l98.765,32.883v72.272L140.426,531.134V413.313L59.09,386.589V633.036L354.8,730.871V448.636l-111.662-36.95ZM249.183,133.4l34.858,11.619V325.006l-34.858,11.619Z" transform="translate(627.498 390.09)" fill="#1e3a6d"/>
      <path id="Path_14" data-name="Path 14" d="M168.643,704.446l-81.1-26.841V42.84l81.1,26.725Z" transform="translate(929.619 454.975)" fill="#1e3a6d"/>
      <path id="Path_15" data-name="Path 15" d="M140.2,406.71,58.98,379.869V33.38L140.2,60.337Z" transform="translate(626.33 354.515)" fill="#1e3a6d"/>
      <path id="Path_16" data-name="Path 16" d="M75.993,232.183a59.258,59.258,0,0,1-15.919-1.859,31.142,31.142,0,0,1-11.619-5.345,26.377,26.377,0,0,1-7.32-8.947,41.6,41.6,0,0,1-3.834-12.2,86.332,86.332,0,0,1-1.162-15.454V97.05H65.3V198.138a27.307,27.307,0,0,0,.813,4.764,12.549,12.549,0,0,0,1.627,4.183,8.83,8.83,0,0,0,3.021,2.789,10.806,10.806,0,0,0,9.3,0,10.108,10.108,0,0,0,3.021-2.789,12.55,12.55,0,0,0,1.627-4.183,26.723,26.723,0,0,0,.813-4.88c0-1.511,0-3.253,0-5.345V97.05h30.443v91.328a81.335,81.335,0,0,1-1.859,18.94,37.531,37.531,0,0,1-6.274,13.594,25.215,25.215,0,0,1-11.619,8.482,56.357,56.357,0,0,1-20.218,2.789Z" transform="translate(383.669 1030.65)" fill="#24b3ba"/>
      <path id="Path_17" data-name="Path 17" d="M44,230.324,46.208,97.05H77.7l14.873,77.966L108.487,97.05H138.93l2.208,133.274h-21.5L117.434,141.9,102.1,230.324H83.273L67.239,141.2l-1.975,89.121Z" transform="translate(467.252 1030.65)" fill="#24b3ba"/>
      <path id="Path_18" data-name="Path 18" d="M53.41,230.325V97.051H89.779a111.863,111.863,0,0,1,14.873.93,51.94,51.94,0,0,1,12.316,3.37,28.7,28.7,0,0,1,9.412,6.391,26.494,26.494,0,0,1,5.693,10.109,45.548,45.548,0,0,1,2.091,14.524,53.216,53.216,0,0,1-3.486,21.031,25.214,25.214,0,0,1-12.317,12.781l18.359,64.488H105.7l-14.64-59.607h-8.25v59.607Zm29.4-76.572H90.36a15.453,15.453,0,0,0,12.665-4.648,22.193,22.193,0,0,0,3.718-14.176,23.239,23.239,0,0,0-3.253-13.711A14.06,14.06,0,0,0,91.87,116.8H82.807Z" transform="translate(567.18 1030.649)" fill="#24b3ba"/>
      <path id="Path_19" data-name="Path 19" d="M60.77,230.324,85.984,97.05h33.231l25.563,133.274H117.124l-4.532-28.235h-19.4l-4.532,28.235Zm34.858-46.477H109.92l-7.088-51.59Z" transform="translate(645.339 1030.65)" fill="#24b3ba"/>
      <path id="Path_20" data-name="Path 20" d="M68.59,230.324V97.05H98.219v53.914h20.45V97.05h29.513V230.324H118.669v-58.1H98.219v58.1Z" transform="translate(728.382 1030.65)" fill="#24b3ba"/>
      <path id="Path_21" data-name="Path 21" d="M51.989,236.211a48.341,48.341,0,0,1-17.545-2.789,26.259,26.259,0,0,1-11.619-8.482,34.858,34.858,0,0,1-6.042-12.781,72.04,72.04,0,0,1-1.859-16.964v-43.8a75.178,75.178,0,0,1,1.859-17.313,34.858,34.858,0,0,1,6.042-12.9,25.446,25.446,0,0,1,11.619-8.366A49.386,49.386,0,0,1,52.1,110.025a51.36,51.36,0,0,1,16.848,2.556,24.4,24.4,0,0,1,10.922,7.436,32.419,32.419,0,0,1,5.81,11.038,60.3,60.3,0,0,1,1.627,14.524v10.806H60.7V139.654a31.023,31.023,0,0,0-.581-3.834,7.089,7.089,0,0,0-1.278-3.486,7.555,7.555,0,0,0-2.672-2.208,9.3,9.3,0,0,0-4.183-.929,9.406,9.406,0,0,0-4.3.929A8.019,8.019,0,0,0,44.9,132.45a9.875,9.875,0,0,0-1.394,3.486,14.292,14.292,0,0,0-.7,4.183q0,1.743,0,4.532v57.284a26.725,26.725,0,0,0,1.859,11.619,7.669,7.669,0,0,0,7.436,3.834,7.9,7.9,0,0,0,4.183-.93,6.856,6.856,0,0,0,2.556-2.208,9.875,9.875,0,0,0,1.394-3.486,31.024,31.024,0,0,0,.581-4.067V189.385H87.312v10.574a72.157,72.157,0,0,1-.93,11.619,37.414,37.414,0,0,1-3.6,10.109,24.865,24.865,0,0,1-6.391,7.9,31.608,31.608,0,0,1-10.109,5,52.051,52.051,0,0,1-14.292,1.627Z" transform="translate(158.438 1168.263)" fill="#1e3a6d"/>
      <path id="Path_22" data-name="Path 22" d="M60.377,236.338a50.9,50.9,0,0,1-17.429-2.673,27.77,27.77,0,0,1-11.619-8.017,34.859,34.859,0,0,1-6.158-12.665,67.97,67.97,0,0,1-1.859-17.08V150.587a68.324,68.324,0,0,1,1.859-17.2,34.857,34.857,0,0,1,6.158-12.549,27.771,27.771,0,0,1,11.619-8.017,50.894,50.894,0,0,1,17.429-2.672,35.9,35.9,0,0,1,28.584,10.225,46.478,46.478,0,0,1,8.6,30.21V195.9a46.477,46.477,0,0,1-8.017,30.327,35.555,35.555,0,0,1-29.165,10.109Zm-4.183-19.985a11.62,11.62,0,0,0,8.366,0,6.739,6.739,0,0,0,2.789-2.208,10.109,10.109,0,0,0,1.511-3.37,24.4,24.4,0,0,0,.7-3.834V139.433a27.073,27.073,0,0,0-.7-3.834,10.574,10.574,0,0,0-1.51-3.254,7.67,7.67,0,0,0-2.789-2.091,9.877,9.877,0,0,0-8.366,0,7.2,7.2,0,0,0-2.672,2.091,7.669,7.669,0,0,0-1.51,3.254,16.152,16.152,0,0,0-.581,3.834V207.29a16.152,16.152,0,0,0,.581,3.834,8.249,8.249,0,0,0,1.511,3.369,8.712,8.712,0,0,0,2.672,1.859Z" transform="translate(247.42 1168.135)" fill="#1e3a6d"/>
      <path id="Path_23" data-name="Path 23" d="M32.1,232.977,34.075,110.16H63.124l13.595,71.808L91.475,110.16h28l1.975,122.817h-19.4l-1.975-81.336L85.665,232.977H68.7L54.177,150.944l-1.859,82.033Z" transform="translate(340.881 1169.87)" fill="#1e3a6d"/>
      <path id="Path_24" data-name="Path 24" d="M42.36,233.065V110.248h40.9a30.907,30.907,0,0,1,24.4,9.063,39.39,39.39,0,0,1,8.017,26.608,56.935,56.935,0,0,1-1.162,12.316,27.305,27.305,0,0,1-9.063,15.686,22.426,22.426,0,0,1-7.32,4.067,34.854,34.854,0,0,1-8.366,2.092,61.7,61.7,0,0,1-9.644.7H69.433v52.287Zm27.073-71.227h8.715a10.69,10.69,0,0,0,9.76-3.718,25.679,25.679,0,0,0,2.324-12.665V140.11a21.382,21.382,0,0,0-.93-4.415,9.179,9.179,0,0,0-1.975-3.486,11.618,11.618,0,0,0-3.6-2.092,15.688,15.688,0,0,0-5.577-.813h-8.6Z" transform="translate(449.836 1169.782)" fill="#1e3a6d"/>
      <path id="Path_25" data-name="Path 25" d="M49.75,232.977,72.989,110.16h30.675L126.9,232.977H101.689l-4.183-26.144H79.612l-3.718,26.144Zm32.186-42.294h13.13l-6.623-47.523Z" transform="translate(528.313 1169.87)" fill="#1e3a6d"/>
      <path id="Path_26" data-name="Path 26" d="M58.48,232.977V110.16H77.536l25.33,58.91V110.16h22.425V232.977H106.933L81.6,169.419v63.558Z" transform="translate(621.02 1169.87)" fill="#1e3a6d"/>
      <path id="Path_27" data-name="Path 27" d="M66.84,232.977V110.16H94.029V232.977Z" transform="translate(709.798 1169.87)" fill="#1e3a6d"/>
      <path id="Path_28" data-name="Path 28" d="M108.7,236.444a50.9,50.9,0,0,1-17.429-2.673,27.77,27.77,0,0,1-11.619-8.017,34.856,34.856,0,0,1-6.158-12.665,73.9,73.9,0,0,1-1.859-17.081V150.693a74.137,74.137,0,0,1,1.975-17.313,34.858,34.858,0,0,1,6.158-12.549,27.77,27.77,0,0,1,11.619-8.017,50.891,50.891,0,0,1,17.429-2.673A35.9,35.9,0,0,1,137.4,120.367a46.476,46.476,0,0,1,8.6,30.21v45.316a46.476,46.476,0,0,1-8.6,30.21,35.555,35.555,0,0,1-28.7,10.342Zm-4.183-19.985a11.62,11.62,0,0,0,8.366,0,6.738,6.738,0,0,0,2.789-2.208,8.25,8.25,0,0,0,1.51-3.37,24.393,24.393,0,0,0,.7-3.834V139.539a27.076,27.076,0,0,0-.7-3.834,8.483,8.483,0,0,0-1.51-3.254,7.672,7.672,0,0,0-2.789-2.091,9.877,9.877,0,0,0-8.366,0,7.205,7.205,0,0,0-2.672,2.092,7.669,7.669,0,0,0-1.51,3.253,16.151,16.151,0,0,0,0,3.834V207.4a16.153,16.153,0,0,0,0,3.835,8.251,8.251,0,0,0,1.51,3.369,8.71,8.71,0,0,0,2.672,1.859Z" transform="translate(760.663 1168.029)" fill="#1e3a6d"/>
      <path id="Path_29" data-name="Path 29" d="M80.47,232.977V110.16H99.526l25.214,58.91V110.16h22.542V232.977H128.923l-25.33-63.558v63.558Z" transform="translate(854.54 1169.87)" fill="#1e3a6d"/>
      <path id="Path_30" data-name="Path 30" d="M123.843,235.808a33.115,33.115,0,0,1-25.911-9.3,44.5,44.5,0,0,1-9.3-29.629l23.239-3.6a41.363,41.363,0,0,0,2.788,16.848,8.482,8.482,0,0,0,7.9,5.229c4.648,0,6.855-3.021,6.855-8.947a23.239,23.239,0,0,0-1.743-9.063,26.027,26.027,0,0,0-4.415-7.2,70.647,70.647,0,0,0-7.2-6.972l-10.922-9.411a87.156,87.156,0,0,1-6.507-6.158,46.482,46.482,0,0,1-5-6.739,27.19,27.19,0,0,1-3.718-8.6,41.717,41.717,0,0,1-1.162-10.457,30.326,30.326,0,0,1,9.179-23.239,36.368,36.368,0,0,1,25.1-8.482,37.881,37.881,0,0,1,9.993,1.278,23.822,23.822,0,0,1,7.553,3.021,21.726,21.726,0,0,1,5.461,4.88,37.2,37.2,0,0,1,3.718,5.81,44.282,44.282,0,0,1,2.208,6.623,39.976,39.976,0,0,1,1.278,6.739c0,1.975,0,4.183,0,6.507L130,147.966v-9.412a18.122,18.122,0,0,0-.813-3.718,11.617,11.617,0,0,0-1.394-2.673,5,5,0,0,0-2.091-1.743,8.486,8.486,0,0,0-3.137,0,6.158,6.158,0,0,0-5.81,2.324,11.619,11.619,0,0,0-1.975,6.507,21.73,21.73,0,0,0,.93,6.391,16.613,16.613,0,0,0,2.9,5.461,37.169,37.169,0,0,0,3.486,4.067l4.415,4.067,10.457,9.179c2.9,2.672,5.345,5.113,7.436,7.436a79.944,79.944,0,0,1,5.926,8.017,34.859,34.859,0,0,1,4.183,9.76,41.374,41.374,0,0,1,1.51,11.619,29.978,29.978,0,0,1-8.947,22.077,31.953,31.953,0,0,1-23.239,8.482Z" transform="translate(940.607 1168.665)" fill="#1e3a6d"/>
      <path id="Path_31" data-name="Path 31" d="M0,207.675H199.853c61.7-13.943,129.44-39.273,201.944-62.047V97.64L167.551,170.261Z" transform="translate(0 1036.915)" fill="#c0d857"/>
      <path id="Path_32" data-name="Path 32" d="M41.68,146.5H389.215L210.509,90.61Z" transform="translate(442.615 962.261)" fill="#c0d857"/>
      <path id="Path_33" data-name="Path 33" d="M320.263,172.4,77.07,97.11v49.615c75.874,22.542,146.753,48.685,210.891,63.209H487.931Z" transform="translate(818.434 1031.287)" fill="#c0d857"/>
    </g>
  </g>
</svg>
