<svg width="194" height="80" viewBox="0 0 194 80" fill="none" xmlns="http://www.w3.org/2000/svg">
<g clip-path="url(#clip0_1003_38)">
<path d="M74.1108 38.319C74.285 38.4932 74.1979 38.319 74.1108 38.319Z" fill="#B49164"/>
<path d="M73.7259 37.8835C73.604 37.779 73.3602 37.57 73.7259 37.8835Z" fill="#B49164"/>
<path d="M81.0814 28.5651C80.8217 27.2322 80.1496 26.014 79.1597 25.0815C77.8284 23.6484 76.3197 22.3901 74.6699 21.3367C73.4994 20.5703 72.2765 19.8736 71.0536 19.2292L75.3163 17.8532L80.8194 16.1114H80.9941C80.9941 16.1114 80.9941 16.1114 81.0814 16.1114C81.1688 16.1114 81.0814 15.9895 81.0814 15.8675V15.6759C80.9065 15.3428 80.6828 15.0376 80.4176 14.7702C80.0274 14.2977 79.568 13.8867 79.0549 13.551C78.9395 13.4684 78.8089 13.4092 78.6706 13.3768L74.8097 12.0356L65.4107 8.8482L54.2473 4.96405L44.5863 1.61985L41.4242 0.522532C40.9357 0.314778 40.4338 0.140202 39.9217 0C39.6542 0.0182709 39.3929 0.0893146 39.1531 0.209013L36.7422 1.04506L28.0071 4.07575L16.8611 7.94248L6.79832 11.426L1.33016 13.3246L1.0157 13.4116C0.736178 13.5162 1.85427 14.7702 1.88921 14.7876C2.31214 15.3324 2.86453 15.7633 3.49646 16.0417L7.35736 17.2784L10.5369 18.2886C9.75078 18.6718 8.98209 19.0724 8.19593 19.4904C6.69485 20.2705 5.25784 21.1674 3.89827 22.1728C2.87496 22.9055 2.02272 23.8502 1.40004 24.9422C1.18043 25.3622 1.06087 25.8271 1.05064 26.3008V31.1777L3.56634 31.9964C1.96964 34.0556 1.07584 36.5703 1.0157 39.1725C1.06148 39.3819 1.16422 39.5748 1.31269 39.7298C1.45245 39.9214 1.60968 40.113 1.74944 40.2698L1.88921 40.4091C2.21856 40.7987 2.60773 41.1338 3.04224 41.4019C1.84197 44.1235 1.18337 47.0516 1.10305 50.0237C1.10305 50.6682 1.10305 51.33 1.10305 51.9919C1.14883 52.2013 1.25158 52.3942 1.40004 52.5493C1.5398 52.7409 1.69703 52.9325 1.8368 53.0892L1.97656 53.2286C1.39225 56.2081 1.07074 59.2329 1.0157 62.2684C1.0157 63.1218 1.0157 64.0101 1.0157 64.8113C1.06148 65.0208 1.16422 65.2137 1.31269 65.3687C1.45245 65.5603 1.60968 65.7519 1.74944 65.9087L1.88921 66.048C2.30606 66.5673 2.84656 66.9745 3.46152 67.2324L7.32242 68.4691L16.7388 71.552L27.9023 75.14L37.5633 78.2404L40.7254 79.2681C41.212 79.4666 41.7146 79.624 42.2278 79.7383C42.4953 79.734 42.7583 79.6685 42.9965 79.5467L45.4074 78.7804L54.1425 75.9587L65.2884 72.3706L75.2988 69.1484L80.8019 67.4066H81.064V67.2847C81.175 63.138 80.7938 58.9929 79.9284 54.9355L80.7844 54.6568H81.0465V54.5349C81.1459 50.4212 80.1897 46.3503 78.2687 42.7083L80.7844 41.8025H81.0465V41.6806C80.9014 38.2747 79.5092 35.0399 77.1332 32.5886L81.064 31.3171L81.0814 28.5651ZM70.0927 35.2012C70.7042 35.5844 71.3156 35.985 71.8397 36.403H71.9271L72.0843 36.525L72.4861 36.8211L72.9403 37.1868L73.0976 37.3088H72.9928L73.1325 37.4133L73.5169 37.7616L73.709 37.9358L74.006 38.2493C73.9999 38.278 73.9999 38.3077 74.006 38.3364L74.1458 38.4932C74.2506 38.6151 74.3554 38.7544 74.4602 38.8589C74.0759 38.4583 74.4602 38.946 74.6175 39.068C74.7027 39.159 74.7788 39.2581 74.8446 39.3641V39.4686L75.0542 39.7647L75.2464 40.0956L70.8963 41.5064C68.4479 39.798 65.8723 38.2782 63.192 36.9604L69.5511 34.8354L70.0927 35.2012ZM73.8139 45.0596C73.9361 45.1816 74.303 45.6867 73.9187 45.1642C74.0934 45.408 74.2855 45.617 74.4602 45.8434L74.5651 45.9828C74.5651 46.1395 74.7572 46.2789 74.8621 46.4356L75.1066 46.8188L75.2289 47.0104C75.3862 47.2891 75.5259 47.5678 75.6657 47.8639C76.3041 49.1462 76.7963 50.4958 77.1332 51.8874C77.1332 52.0093 77.1332 52.1312 77.1332 52.2532L76.1374 52.5667L70.8963 54.3085L55.7672 59.2203L42.6471 63.4353C41.7212 63.7314 40.7603 63.9927 39.8519 64.3411H39.6946L38.6115 63.9927L27.2209 60.2131L11.6201 55.2142L5.27842 53.1763C5.45312 52.6538 5.62782 52.1312 5.83746 51.6087C7.03157 48.6839 8.98527 46.1289 11.4978 44.2062L16.7388 45.9479L27.9023 49.536L37.5633 52.6538L40.7254 53.664C41.2116 53.8683 41.7142 54.0314 42.2278 54.1517C42.4742 54.1441 42.7171 54.0909 42.9441 53.9949L45.355 53.2111L54.09 50.3895L65.236 46.8188L72.9403 44.3281L73.115 44.5023C73.2548 44.6242 73.7265 45.0945 73.2024 44.5023L73.7789 45.0771L73.6042 44.9029L73.8139 45.0596ZM24.845 22.8695L27.7276 23.7926C26.1553 24.8725 24.5305 25.8827 22.8709 26.8059C21.2112 27.729 20.0058 28.3038 18.5557 29.0353L14.6948 27.8684L16.1449 27.102C18.9925 25.6389 21.9624 24.4022 24.8799 22.974L24.845 22.8695ZM61.5323 37.6223L65.7776 39.8692C66.4414 40.2001 67.1053 40.5485 67.7517 40.9142L68.6602 41.4193L69.0969 41.6632L69.3066 41.7851H69.3939L68.5903 42.0464L53.7232 47.0278L41.7561 50.8597L40.3061 51.33L39.8693 51.4868H39.7645C39.6506 51.4441 39.5338 51.4091 39.4151 51.3823L38.035 50.9294L26.3125 47.1672L13.2448 42.9173C16.075 41.0536 19.1672 39.5731 22.1721 37.988L41.0224 44.0494L61.3576 37.5178L61.5323 37.6223ZM32.0252 25.186L33.5626 25.6737C31.3164 27.8416 28.8715 29.795 26.2601 31.5087L23.2902 30.5507L24.3034 30.0282C26.989 28.5983 29.5694 26.9802 32.0252 25.186ZM44.0098 18.1318C45.6869 19.7691 47.4339 21.3193 49.2508 22.7824L45.1104 24.1235L44.8483 23.7752L44.429 23.2701L44.2543 23.0088C44.0272 22.6953 43.8001 22.3992 43.5905 22.0683L43.1013 21.3019C42.5314 20.0874 42.2504 18.7582 42.2802 17.4177V16.4075C42.9441 16.9997 43.4158 17.5745 44.0098 18.1318ZM41.0049 22.5211C41.2844 22.1031 41.5639 21.6676 41.8085 21.2322C42.5772 22.3121 43.4158 23.3746 44.2893 24.3848L41.3368 25.3254C40.8477 25.4821 40.3061 25.6041 39.8169 25.8131C39.6437 25.7344 39.462 25.6758 39.2753 25.6389L38.8037 25.4821C39.5968 24.5405 40.3319 23.5516 41.0049 22.5211ZM37.5109 26.9452L40.673 27.9554C41.1592 28.1597 41.6618 28.3228 42.1754 28.4431C42.4419 28.4313 42.7033 28.3661 42.9441 28.2515L45.355 27.4852L46.77 27.0149C47.6261 27.8684 48.5171 28.7567 49.408 29.4708C50.596 30.4984 51.8364 31.4564 53.1117 32.3795L41.0398 36.2637L30.5577 32.9021C33.0523 31.1519 35.3642 29.1563 37.4585 26.9452H37.5109ZM52.5352 30.8119L52.0635 30.4636L51.8364 30.2894L50.8755 29.5579L49.9671 28.8263L49.6876 28.5825L49.3382 28.3038L48.5345 27.5897L48.1851 27.2587L48.0279 27.1194L47.7658 26.8581L52.6051 25.2905C53.0418 25.6215 53.4961 25.935 53.9503 26.2485C56.0502 27.6748 58.2318 28.9775 60.4841 30.1501L54.4569 32.1009C53.7698 31.6596 53.1117 31.23 52.4828 30.8119H52.5352ZM50.2291 22.4689L49.4779 21.9115L48.0454 20.7619L47.7309 20.5007L47.5038 20.3091L46.9622 19.8388C46.5604 19.5078 46.1761 19.1595 45.7917 18.8111L45.2676 18.3234L45.023 18.097C44.4465 17.5396 43.87 16.9823 43.276 16.3552C43.1561 16.2739 43.0448 16.1806 42.9441 16.0766V15.9546L42.42 15.3798V11.5654C46.75 14.841 51.2458 17.8932 55.8895 20.7097L54.3346 21.1974L50.2291 22.4689ZM35.956 23.1133C35.6241 23.4965 35.2922 23.8797 34.9428 24.2455L33.7723 23.8623C34.7681 23.0785 35.7289 22.2773 36.6723 21.4586C37.3187 20.8838 37.9651 20.3091 38.5765 19.7169C37.7804 20.9063 36.905 22.041 35.956 23.1133ZM62.1613 29.4882L58.8245 27.8684C57.0774 26.9452 55.3304 25.935 53.5834 24.8377L54.1075 24.6809L59.663 22.9391C61.2004 23.7055 62.7727 24.4196 64.345 25.1512C65.9173 25.8827 67.2276 26.5098 68.6252 27.2413L68.8873 27.3632L62.1613 29.4882ZM57.322 20.2046C54.0213 18.4444 50.8353 16.4781 47.7833 14.3174C46.0363 13.1155 44.2893 11.8789 42.5423 10.6248L42.3152 10.4506V7.0716C46.6303 9.24881 50.9454 11.4434 55.2256 13.6903C56.0991 14.1432 56.9726 14.6309 57.8287 15.0663C58.6847 15.5018 59.5757 15.8153 60.3444 16.1636L64.5547 17.9054L57.322 20.2046ZM39.7296 8.81337C37.703 10.2765 35.7813 11.7047 33.7897 13.0981C30.3485 15.5792 26.7541 17.8422 23.0281 19.8736L22.3817 20.2046L17.9093 18.7589L18.6256 18.4628C21.2461 17.3481 23.954 16.3901 26.5221 15.1534C27.6053 14.6309 28.6535 14.0213 29.7192 13.4116L34.7156 10.8338L39.4501 8.4476L39.6946 8.34309L39.7296 8.81337ZM35.2223 16.4946C36.6374 15.5192 38.0524 14.5264 39.4501 13.5162C38.1198 15.0366 36.7024 16.4788 35.2048 17.8357C33.4065 19.4953 31.5168 21.0538 29.5445 22.5037L28.0595 22.0334L27.0637 21.7025C29.8764 20.1349 32.5668 18.306 35.2223 16.4946ZM17.4726 36.4727C15.1197 37.651 12.8282 38.9474 10.6068 40.3569C10.0303 40.7226 9.47125 41.1232 8.8598 41.5238L7.44472 41.071C9.26137 38.7943 11.482 36.8697 13.996 35.3928L17.4726 36.4727ZM7.35736 42.8999C6.53981 43.6829 5.79705 44.54 5.13865 45.4603C5.50732 44.4753 5.96335 43.5253 6.50133 42.6212L7.35736 42.8999ZM72.5385 21.5109C73.2373 21.8592 73.9187 22.225 74.5825 22.6082L74.8271 22.765H74.9843L75.3163 22.974L76.2597 23.5662L77.0458 24.1061H77.1507C77.2746 24.1893 77.3915 24.2825 77.5001 24.3848L70.3897 26.8233C69.2716 26.1092 68.1186 25.4299 66.8957 24.8203C65.1487 23.8971 63.4016 23.0785 61.6546 22.2424L65.2884 21.0754L69.1493 19.8562C70.2325 20.3787 71.403 20.9013 72.5385 21.5109ZM45.2851 3.69256L54.0202 6.72324L65.1312 10.5726L75.1591 14.0561L75.7705 14.2825L74.5651 14.6657L66.721 17.1739L64.4848 16.1985C61.7245 15.0141 58.8594 13.9864 56.1341 12.7149C55.0858 12.2447 54.1075 11.6525 53.0942 11.1299C51.4521 10.259 49.7924 9.38815 48.1327 8.5521L42.2802 5.57367V2.63008C42.4489 2.72331 42.6319 2.78805 42.8218 2.82167L45.2851 3.69256ZM6.85073 15.2231L6.3441 15.0663L7.44472 14.6831L16.7388 11.4783L27.9197 7.61154L37.5807 4.26734L39.7296 3.48354V4.38927C39.4326 4.51119 39.1531 4.68537 38.8735 4.82471L34.9428 6.84516C31.7108 8.48243 28.4613 10.1197 25.2643 11.8441C23.0568 12.9559 20.7946 13.9558 18.4859 14.8399C16.7388 15.6759 14.7997 16.3552 12.9828 17.1739L6.85073 15.2231ZM8.59775 23.3572C10.7938 22.0555 13.0694 20.8921 15.4111 19.8736L16.669 20.2916L20.0582 21.3715C16.6486 22.8462 13.324 24.5093 10.1002 26.353L6.25674 25.0641C7.00921 24.4502 7.79668 23.8803 8.61522 23.3572H8.59775ZM9.75078 33.982C7.92686 35.2319 6.31151 36.7601 4.96395 38.5106C4.61455 38.9809 4.31756 39.4511 4.02057 39.9214H3.89827C4.35033 37.3885 5.5697 35.0543 7.39231 33.233L9.75078 33.982ZM78.4085 63.7489V64.2017C78.4085 64.2017 78.4085 64.5849 78.4085 64.6546H78.3212C78.1986 64.7108 78.0695 64.7518 77.9368 64.7765L76.347 65.299L62.6504 69.7057L46.4206 74.931L41.1796 76.6728L39.9217 77.0908H39.8344H39.7121C39.3452 76.9341 38.9434 76.847 38.5765 76.7251L36.3928 76.0284L29.8764 73.9382L13.2448 68.5213L3.7061 65.4906C3.66882 61.9304 4.03807 58.3776 4.80672 54.9007L7.40978 55.7367L16.7388 58.7151L27.9023 62.3032L37.5633 65.421L40.7254 66.4312C41.2116 66.6354 41.7142 66.7986 42.2278 66.9189C42.4943 66.907 42.7557 66.8418 42.9965 66.7273L45.4074 65.9609L54.1425 63.1392L65.2884 59.5512L75.2988 56.3289L77.8844 55.5103C78.2426 58.2418 78.4177 60.9941 78.4085 63.7489ZM77.9193 46.3311C78.1011 47.2987 78.2294 48.2756 78.3037 49.2573C78.3037 49.5534 78.3037 49.8669 78.3037 50.1805C77.1767 47.8325 75.6319 45.7079 73.744 43.9101L75.2289 43.4398L76.9759 42.8999C77.3774 44.0392 77.6813 45.2103 77.8844 46.4008L77.9193 46.3311ZM76.3645 32.7279L76.5741 33.0066L76.8362 33.4072L76.941 33.5814C76.9436 33.6336 76.9436 33.6859 76.941 33.7381C77.0458 33.9123 77.1332 34.0865 77.2205 34.2607C77.8507 35.5459 78.2189 36.9431 78.3037 38.3712C78.3037 38.5803 78.4085 38.9112 78.3037 39.0157C78.1995 39.0312 78.0934 39.0312 77.9892 39.0157L76.2422 39.5556C74.6362 37.5711 72.7673 35.8134 70.6867 34.3303L76.1723 32.5886L76.3645 32.7279Z" fill="#B49164"/>
<path d="M106.497 49.6266C105.372 49.6206 104.259 49.8464 103.234 50.2886C102.209 50.7308 101.295 51.3792 100.555 52.1897L100.825 52.5558C101.534 52.2466 102.298 52.0711 103.076 52.0389C106.115 52.0389 108.028 54.408 108.028 58.2203V66.8354H112.732V55.6788C112.784 54.8785 112.658 54.0769 112.365 53.326C112.071 52.5752 111.615 51.892 111.027 51.321C110.438 50.75 109.731 50.304 108.951 50.0121C108.17 49.7201 107.334 49.5888 106.497 49.6266Z" fill="#B49164"/>
<path d="M99.5393 49.6203H95.4764V66.8354H99.5393V49.6203Z" fill="#B49164"/>
<path d="M125.005 64.1924C122.506 64.1924 121.081 62.0271 121.081 58.4545V49.6203H116.828V60.6847C116.761 61.4768 116.853 62.2748 117.101 63.0266C117.348 63.7783 117.744 64.4669 118.263 65.0474C118.781 65.6277 119.411 66.0869 120.109 66.3948C120.809 66.7027 121.563 66.8523 122.321 66.8339C123.422 66.8108 124.502 66.526 125.482 66.0009C126.463 65.4758 127.317 64.7241 127.979 63.8026L127.69 63.4562C126.872 63.9449 125.947 64.1989 125.005 64.1924Z" fill="#B49164"/>
<path d="M133.058 49.6203H128.995V66.8354H133.058V49.6203Z" fill="#B49164"/>
<path d="M145.377 56.0908C142.909 55.3325 140.781 54.6163 140.781 53.0574C140.773 52.7743 140.832 52.4933 140.951 52.2359V52.0252H141.27C141.555 51.9551 141.849 51.9197 142.142 51.9199C142.971 51.9199 143.79 52.0904 144.548 52.4204C145.307 52.7504 145.988 53.2327 146.547 53.8369L146.675 54.0054L150.313 51.4775L150.122 51.2879C149.567 50.7357 148.902 50.3029 148.169 50.0165C147.437 49.7301 146.653 49.5965 145.867 49.6237C144.948 49.6075 144.038 49.7873 143.197 50.1508C142.356 50.5143 141.605 51.0531 140.993 51.7303L140.76 52.0042H140.546C139.745 52.1772 139.02 52.5963 138.473 53.2015C137.927 53.8067 137.588 54.5672 137.503 55.3746C137.503 58.0921 140.504 59.0611 143.397 60.009C145.526 60.7042 147.654 61.3783 147.824 62.7476C147.859 63.2438 147.716 63.7362 147.42 64.1379L147.25 64.3696H146.909C146.577 64.4041 146.241 64.4041 145.909 64.3696C143.976 64.3092 142.141 63.5175 140.781 62.1578V61.9893L137.12 64.5381L137.312 64.7277C137.969 65.3942 138.753 65.9241 139.618 66.2859C140.484 66.6476 141.415 66.8341 142.355 66.8343C143.286 66.8517 144.209 66.6727 145.063 66.3096C145.918 65.9463 146.685 65.4071 147.313 64.7277L147.569 64.4749H147.867C148.228 64.4749 151.485 63.4427 151.335 60.4725C151.123 57.9236 148.207 56.9967 145.377 56.0908Z" fill="#B49164"/>
<path d="M163.354 64.1919C160.628 64.1919 159.052 62.0267 159.052 58.4542V49.6203H154.411V60.6844C154.337 61.4783 154.439 62.2782 154.71 63.0315C154.982 63.7847 155.415 64.4744 155.983 65.0552C156.552 65.6358 157.241 66.0946 158.006 66.401C158.772 66.7075 159.597 66.8549 160.426 66.8334C161.623 66.8102 162.8 66.5252 163.865 66C164.93 65.4747 165.858 64.7231 166.576 63.8021L166.26 63.4557C165.375 63.9418 164.374 64.1956 163.354 64.1919Z" fill="#B49164"/>
<path d="M171.654 49.6203H167.592V66.8354H171.654V49.6203Z" fill="#B49164"/>
<path d="M180.796 41.519H175.717V66.8354H180.796V41.519Z" fill="#B49164"/>
<path d="M192.059 49.6203H187.985L180.796 58.1501L187.964 66.8354H194L185.51 56.7951L192.059 49.6203Z" fill="#B49164"/>
<path d="M141.183 38.481V21.2658H136.727V35.3894H129.805H125.349H99.024L95.4764 37.9472V38.481H121.087H125.522H136.727H138.826H141.183Z" fill="#B49164"/>
<path d="M149.047 30.1094C149.047 33.7725 147.612 35.875 145.131 35.875C144.2 35.8645 143.288 35.5954 142.486 35.0947L142.199 35.4415C142.853 36.3634 143.696 37.1159 144.666 37.6417C145.636 38.1675 146.707 38.4529 147.797 38.476C148.555 38.5098 149.313 38.372 150.018 38.0721C150.723 37.7721 151.36 37.3169 151.886 36.7365C152.411 36.1562 152.814 35.464 153.067 34.7063C153.32 33.9486 153.417 33.1426 153.352 32.3419V21.2658H149.047V30.1094Z" fill="#B49164"/>
<path d="M155.403 13.7416C155.247 13.6776 155.079 13.6366 154.907 13.6204H154.742V13.4992C154.836 13.2515 154.884 12.9924 154.883 12.7318C154.883 10.7122 153.915 10.1266 153.088 10.1266C152.325 10.1606 151.602 10.4354 151.061 10.8978C150.521 11.3603 150.199 11.9777 150.159 12.6308C150.159 13.6406 150.939 14.2061 152.757 14.4686H153.065L152.828 14.6302C151.212 15.5211 149.475 16.24 147.655 16.7709L147.277 16.9123H147.679C148.235 17.0536 148.804 17.1548 149.38 17.2152C151.178 16.7471 152.804 15.8918 154.104 14.7311C154.234 14.7622 154.36 14.8028 154.482 14.8524L155.38 13.782L155.403 13.7416ZM154.104 13.0549C154.125 13.1822 154.125 13.3114 154.104 13.4387C151.742 13.0347 151.198 12.3683 151.198 11.9038C151.198 11.4393 151.907 10.9949 152.616 10.9949C153.324 10.9949 154.104 11.9038 154.104 13.0549Z" fill="#B49164"/>
<path d="M186.89 25.305L183.345 21.2658L179.78 25.305L183.345 29.3671L186.89 25.305Z" fill="#B49164"/>
<path d="M187.906 13.8151C187.749 13.7498 187.582 13.7081 187.41 13.6914H187.268V13.5679C187.344 13.312 187.384 13.049 187.386 12.7848C187.386 10.7242 186.418 10.1266 185.591 10.1266C184.829 10.1617 184.11 10.4428 183.573 10.9151C183.036 11.3874 182.72 12.0172 182.685 12.6818C182.685 13.7121 183.465 14.2891 185.284 14.557H185.591L185.331 14.7218C183.715 15.6309 181.978 16.3644 180.158 16.9061L179.78 17.0503H180.181C180.735 17.1425 181.296 17.1976 181.859 17.2152C183.591 16.7649 185.166 15.9431 186.441 14.8248L186.796 14.9485L187.693 13.8563L187.906 13.8151ZM186.653 13.1145C186.675 13.2444 186.675 13.3762 186.653 13.506C184.292 13.0939 183.748 12.4139 183.748 11.94C183.748 11.466 184.481 11.0127 185.19 11.0127C185.898 11.0127 186.607 11.94 186.653 13.1145Z" fill="#B49164"/>
<path d="M189.569 21.2658V35.0321H164.566C164.895 34.1749 165.056 33.2623 165.041 32.3439V21.2658H160.589V30.111C160.589 33.7748 159.098 35.8777 156.484 35.8777C155.496 35.87 154.526 35.6007 153.674 35.0972L153.372 35.4441C154.065 36.3667 154.958 37.1193 155.984 37.6451C157.01 38.1707 158.141 38.456 159.293 38.4791C160.291 38.5051 161.276 38.2612 162.147 37.7729C163.018 37.2846 163.741 36.5699 164.242 35.7042L167.159 38.0456H194V21.2658H189.569Z" fill="#B49164"/>
<path d="M117.363 24.3058C118.7 24.2362 120.031 24.508 121.232 25.0952C122.431 25.6824 123.459 26.5652 124.217 27.659C124.8 28.6088 125.15 29.6816 125.238 30.7905C125.325 31.8993 125.147 33.013 124.719 34.041V34.2573L124.981 34.4304H125.133C126.528 33.6689 127.639 32.4857 128.307 31.0534C128.974 29.6212 129.162 28.015 128.843 26.4693C128.47 24.8991 127.543 23.5123 126.232 22.557C124.92 21.6017 123.308 21.1403 121.685 21.2555H106.406L114.154 13.1646H109.898L102.586 21.4719L103.132 24.3058H117.363Z" fill="#B49164"/>
</g>
<defs>
<clipPath id="clip0_1003_38">
<rect width="194" height="80" fill="white"/>
</clipPath>
</defs>
</svg>
