<svg width="100" height="100" viewBox="0 0 100 100" fill="none" xmlns="http://www.w3.org/2000/svg">
<circle cx="50" cy="50" r="46.5" fill="#1D3A6D" stroke="#C1D957" stroke-width="7"/>
<circle cx="50" cy="50" r="35" fill="white"/>
<path d="M46.688 48.6817C46.5713 48.6701 46.4313 48.6701 46.303 48.6817C43.5263 48.5884 41.3213 46.3134 41.3213 43.5134C41.3213 40.6551 43.6313 38.3334 46.5013 38.3334C49.3596 38.3334 51.6813 40.6551 51.6813 43.5134C51.6696 46.3134 49.4646 48.5884 46.688 48.6817Z" stroke="#1D3A6D" stroke-width="2.5" stroke-linecap="round" stroke-linejoin="round"/>
<path d="M55.1468 40.6666C57.4101 40.6666 59.2301 42.4983 59.2301 44.7499C59.2301 46.9549 57.4801 48.7516 55.2985 48.8333C55.2051 48.8216 55.1001 48.8216 54.9951 48.8333" stroke="#1D3A6D" stroke-width="2.5" stroke-linecap="round" stroke-linejoin="round"/>
<path d="M40.8538 52.9866C38.0305 54.8766 38.0305 57.9566 40.8538 59.8349C44.0622 61.9816 49.3238 61.9816 52.5322 59.8349C55.3555 57.9449 55.3555 54.8649 52.5322 52.9866C49.3355 50.8516 44.0738 50.8516 40.8538 52.9866Z" stroke="#1D3A6D" stroke-width="2.5" stroke-linecap="round" stroke-linejoin="round"/>
<path d="M57.397 59.3334C58.237 59.1584 59.0303 58.82 59.6836 58.3184C61.5036 56.9534 61.5036 54.7017 59.6836 53.3367C59.042 52.8467 58.2603 52.52 57.432 52.3334" stroke="#1D3A6D" stroke-width="2.5" stroke-linecap="round" stroke-linejoin="round"/>
<circle cx="20" cy="20" r="17.5" fill="#1D3A6D" stroke="white" stroke-width="5"/>
<path d="M19.6385 26V14.752H21.7825V26H19.6385ZM17.4305 16.64V14.752H21.6225V16.64H17.4305Z" fill="white"/>
</svg>
