<svg width="176" height="80" viewBox="0 0 176 80" fill="none" xmlns="http://www.w3.org/2000/svg">
<g clip-path="url(#clip0_1011_357)">
<path d="M107.268 24.787C107.268 20.1381 107.296 15.4861 107.246 10.8372C107.233 9.68889 107.644 9.05269 108.698 8.60579C115.034 5.92754 121.357 3.22136 127.664 0.481035C128.657 0.0496595 129.475 0.114831 130.457 0.543104C136.668 3.25239 142.895 5.92754 149.153 8.53441C150.409 9.05889 150.91 9.77268 150.81 11.0978C150.72 12.3299 150.699 13.5837 150.814 14.8157C150.963 16.4264 150.406 17.2985 148.832 17.944C142.755 20.4329 136.731 23.0615 130.712 25.6901C129.481 26.227 128.414 26.2084 127.182 25.6405C124.414 24.3588 121.556 23.2695 118.782 21.9971C117.46 21.3919 117.208 21.7953 117.195 23.077C117.152 27.4249 117.121 27.4249 121.055 29.107C123.291 30.0629 125.549 30.969 127.751 31.9932C128.697 32.4339 129.471 32.3439 130.392 31.9435C136.553 29.256 142.733 26.6056 148.916 23.9677C150.745 23.1888 150.786 23.2322 150.789 25.2184C150.795 29.7122 150.761 34.209 150.81 38.7028C150.823 39.8355 150.471 40.4779 149.386 40.9372C142.954 43.6558 136.544 46.4303 130.137 49.2079C129.313 49.5648 128.591 49.5337 127.767 49.1768C121.463 46.4303 115.158 43.6745 108.807 41.0303C107.557 40.509 107.23 39.8107 107.243 38.5817C107.289 33.9825 107.261 29.3863 107.261 24.787H107.268Z" fill="#2F2F2F"/>
<path d="M67.2736 15.5233C64.5056 11.5571 65.6252 7.86718 67.2456 6.44891C69.0464 4.87237 73.0026 4.75444 74.7785 6.23478C77.2854 8.32338 77.4502 11.4082 75.158 15.5047C77.6119 15.5047 79.9664 15.5109 82.3208 15.5016C83.1045 15.4985 83.0361 14.884 83.0206 14.3844C82.9801 13.0871 83.0859 11.8054 83.3347 10.5361C83.7173 8.58407 84.9613 7.48546 86.6471 6.39926C88.8335 4.9903 90.398 6.12305 92.0775 6.95787C93.757 7.79269 94.3448 9.48406 94.4817 11.2127C94.6309 13.112 94.4941 15.033 94.5314 16.9447C94.547 17.7609 94.2142 18.0185 93.4273 18.0154C86.4853 17.9967 79.5434 18.003 72.6014 18.003C68.639 18.003 64.6797 18.0123 60.7173 18.0061C57.433 17.9998 55.458 16.1999 55.374 12.8947C55.2745 8.96889 55.3802 5.03996 55.3305 1.11413C55.3118 -0.297926 56.2729 0.0868984 57.0286 0.0186231C57.9088 -0.0589624 58.4873 0.0713813 58.4687 1.21965C58.4096 4.83513 58.4407 8.45372 58.45 12.0692C58.4562 14.8313 59.1622 15.5233 61.9365 15.5233C63.6316 15.5233 65.3298 15.5233 67.2674 15.5233H67.2736Z" fill="#2F2F2F"/>
<path d="M82.1186 26.3915C83.8821 25.9818 84.8338 26.7608 85.4714 28.3901C86.221 30.3018 87.2069 32.1204 88.2551 34.3269C89.4089 31.9528 90.4166 29.8456 91.4586 27.757C91.6825 27.307 91.7727 26.7422 92.2548 26.4629C93.3527 25.8267 94.5128 26.5032 94.5159 27.7818C94.5252 31.5028 94.5003 35.2207 94.5314 38.9417C94.5408 39.851 94.407 40.3662 93.2874 40.36C92.2019 40.3538 91.9966 39.91 92.0153 38.9666C92.0619 36.698 92.0308 34.4263 92.0308 31.8256C90.8552 33.2501 90.4477 34.7366 89.7231 36.04C89.4089 36.608 89.2565 37.2411 88.3421 37.2597C87.378 37.2783 87.1167 36.6793 86.8026 36.0214C86.165 34.6963 85.5274 33.3711 84.529 32.1266C84.529 34.06 84.5508 35.9904 84.5228 37.9238C84.4886 40.4903 84.9427 40.3538 82.128 40.3072C81.7889 39.9628 81.932 39.5283 81.932 39.1341C81.9196 35.2797 81.9227 31.4252 81.932 27.5708C81.932 27.1736 81.8014 26.7422 82.1155 26.3884L82.1186 26.3915Z" fill="#2F2F2F"/>
<path d="M27.3356 40.2886C26.6358 40.2948 25.9329 40.3041 25.2331 40.3103C24.894 39.9659 25.0371 39.5314 25.0371 39.1372C25.0247 35.2828 25.0278 31.4283 25.0371 27.577C25.0371 27.1798 24.9065 26.7484 25.2206 26.3946C26.8566 26.0656 27.8674 26.5808 28.4863 28.2629C29.211 30.2304 30.2716 32.0801 31.3508 34.3269C32.4954 31.9652 33.5062 29.8673 34.5388 27.7756C34.7627 27.3194 34.9649 26.7608 35.3474 26.497C36.3707 25.7863 37.6148 26.5063 37.621 27.757C37.6334 31.4749 37.6117 35.1928 37.6334 38.9076C37.6396 39.7672 37.6023 40.3569 36.436 40.3693C35.2137 40.3817 35.1173 39.7921 35.1359 38.8455C35.1764 36.6297 35.1484 34.4107 35.1484 31.7697C34.0287 33.2159 33.5902 34.6 32.9153 35.8445C32.57 36.4807 32.4487 37.2876 31.3539 37.2659C30.2778 37.2442 30.1534 36.4714 29.8113 35.8135C29.1021 34.448 28.3992 33.0794 27.6963 31.7108C27.3045 33.9701 27.631 36.248 27.5128 38.5135C27.4817 39.1062 27.7057 39.73 27.3387 40.2886H27.3356Z" fill="#2F2F2F"/>
<path d="M52.1861 17.9812C49.7103 17.9905 47.2315 18.0185 44.7558 17.9936C43.972 17.9843 43.6454 18.1736 43.434 19.0333C42.7746 21.7084 41.2288 23.1019 38.9801 23.2508C38.5323 23.2819 37.8605 23.5488 37.6801 22.8163C37.4872 22.0343 38.1653 22.087 38.638 21.9567C40.1589 21.5315 40.7592 20.4515 40.753 18.9526C41.1044 16.5692 40.6908 14.164 40.9738 11.7775C41.1075 9.29164 42.1526 7.63752 44.507 6.3558C46.625 5.20443 48.0961 6.04236 49.6917 6.88339C51.6076 7.892 52.214 9.73853 52.2731 11.7992C52.4038 13.863 52.5779 15.9299 52.1861 17.9874V17.9812Z" fill="#2F2F2F"/>
<path d="M65.3111 36.3193C65.4044 37.2783 64.518 38.4266 65.9705 39.1341C66.3748 39.3297 65.9487 39.7828 65.7216 40.0217C65.4635 40.2948 65.1431 40.869 64.7357 40.4655C63.5445 39.2831 62.4062 40.3196 61.2989 40.4996C58.2043 41.0055 55.0661 39.581 55.0568 35.7793C55.0505 33.6783 54.7489 31.5494 55.2745 29.4732C55.9369 26.8539 58.0208 25.7087 61.3363 26.0811C63.7809 26.3543 65.1711 27.8563 65.3204 30.3825C65.5288 32.3625 65.5412 34.3425 65.3111 36.3193Z" fill="#2F2F2F"/>
<path d="M79.8637 40.1459C77.3134 40.5772 77.36 40.5524 76.542 38.5724C75.6867 36.4993 73.8393 37.9145 72.4863 37.5731C71.6217 37.3528 70.6917 37.4521 70.5487 38.6997C70.3838 40.149 69.4974 40.4841 68.16 40.3569C67.3576 40.2793 67.3327 39.9441 67.5411 39.3762C69.0371 35.2735 70.5673 31.1832 72.0229 27.068C72.3246 26.2146 72.9187 26.3822 73.5065 26.3574C74.1752 26.3294 74.8501 26.2581 75.1518 27.1084C76.71 31.4501 78.2869 35.7856 79.8637 40.1459Z" fill="#2F2F2F"/>
<path d="M40.4482 40.1862C42.053 35.7762 43.6392 31.4439 45.2005 27.1022C45.5458 26.1432 46.3202 26.4349 47.0013 26.348C47.8255 26.2425 48.1863 26.6491 48.4414 27.3691C49.7974 31.1925 51.1939 35.0035 52.5593 38.8269C52.7272 39.2924 53.2933 40.0559 52.6153 40.2203C51.8408 40.4065 50.7305 40.8286 50.1302 39.7083C49.757 39.01 49.9591 37.7717 49.0634 37.6445C47.5456 37.4304 45.9719 37.5731 44.423 37.6259C44.0249 37.6383 43.8818 38.0573 43.8352 38.4359C43.5926 40.4127 42.2987 40.5741 40.4513 40.1831L40.4482 40.1862Z" fill="#2F2F2F"/>
<path d="M37.3411 56.1875C38.0129 56.1068 37.9258 56.5909 37.9289 56.9912C37.9351 58.5398 37.9476 60.0885 37.9258 61.6371C37.9071 62.8877 37.1731 63.6264 35.9881 63.5612C33.1236 63.4029 30.2156 64.1043 27.3946 63.1733C27.0525 63.0615 26.9374 63.285 26.7571 63.4277C25.8302 64.1664 24.8132 64.1415 23.9081 63.5333C23.4447 63.2229 23.1617 63.3284 22.7014 63.3719C21.308 63.5053 20.3283 63.8219 19.9737 65.4636C19.7684 66.4194 18.4901 66.4505 17.4265 65.6901C18.0018 65.1532 19.0531 65.8732 19.4294 64.9298C19.7311 64.1757 19.5538 63.3998 19.5818 62.6364C19.616 61.6557 19.5632 60.675 19.6036 59.6943C19.6191 59.3033 19.3423 58.6267 20.0763 58.6423C20.6673 58.6547 20.4776 59.2567 20.4931 59.6291C20.5242 60.3491 20.4931 61.0753 20.5087 61.7953C20.518 62.3415 20.3749 62.9902 21.3018 62.9467C22.1166 62.9064 22.9066 62.8474 23.0124 61.8109C23.0777 61.156 23.0186 60.5105 23.2487 59.8433C23.6344 58.7354 24.3684 58.2512 25.4601 58.3443C26.6389 58.4436 27.2765 59.1357 27.3698 60.3522C27.575 62.9715 27.6621 63.0398 30.3151 62.9374C30.6479 62.925 31.1238 63.1391 31.2855 62.7264C31.4472 62.3136 31.1238 61.8946 30.8252 61.6681C29.8237 60.9047 29.7926 59.9954 30.5297 59.1543C31.3073 58.2699 32.343 58.0278 33.4658 58.6454C34.6943 59.3188 34.8902 60.4081 33.9572 61.5067C33.6586 61.8574 33.1889 62.2298 33.3693 62.6798C33.5777 63.1919 34.1873 62.9343 34.6134 62.9312C35.5092 62.9281 36.5324 63.1857 37.0269 62.0529C37.3162 60.5943 37.0674 59.1202 37.1607 57.6585C37.1918 57.1681 36.9865 56.6406 37.3411 56.1875Z" fill="#2F2F2F"/>
<path d="M69.3606 56.1937C70.1754 56.1223 69.9422 56.743 69.9484 57.1433C69.9733 58.484 69.9671 59.8278 69.9546 61.1715C69.9391 62.956 69.3232 63.586 67.5473 63.5922C63.1806 63.6046 58.8139 63.5922 54.444 63.6015C53.9806 63.6015 53.4923 63.5674 53.06 63.7008C52.1767 63.9739 51.7071 64.5915 51.8315 65.5691C51.9466 66.4722 52.4815 66.9253 53.3648 67.0153C54.2108 67.1022 55.0474 66.947 56.3039 66.7112C54.8764 68.0705 53.6043 68.0301 52.3571 67.518C51.1472 67.0215 50.7056 65.9353 51.0322 64.7188C51.365 63.4867 52.3384 62.9839 53.6198 62.956C54.1983 62.9436 55.3056 63.1453 55.2807 62.7512C55.2092 61.6277 55.3336 60.3305 54.385 59.4305C53.7598 58.8378 53.0787 58.9743 52.4504 59.5081C52.2731 59.6571 52.1052 59.9333 51.8284 59.6043C51.5173 59.235 51.7879 59.0612 52.0492 58.8812C52.7614 58.3909 53.4674 58.1892 54.3663 58.5088C55.4953 58.9123 55.7783 59.8216 55.9401 60.7836C56.3008 62.9436 56.2666 62.9498 58.4158 62.956C59.0378 62.956 59.6567 62.956 60.2788 62.956C61.5312 62.956 62.0661 62.325 61.8836 61.0629C61.6193 59.235 61.0128 58.8502 59.3177 59.5174C59.0098 59.6385 58.789 59.8557 58.5775 59.4709C58.4033 59.1512 58.6957 59.024 58.8823 58.8657C60.0237 57.9098 61.8028 58.2761 62.4248 59.6198C62.7079 60.2312 62.8105 60.8829 62.8291 61.5688C62.854 62.3788 63.277 62.9653 64.1759 62.9343C65.0654 62.9001 65.619 62.475 65.6066 61.4881C65.5879 59.9922 65.5972 58.4933 65.6128 56.9974C65.6159 56.6685 65.507 56.1968 66.0669 56.1999C66.6236 56.1999 66.521 56.6685 66.5241 57.0005C66.5334 58.4964 66.5054 59.9953 66.5303 61.4912C66.5365 61.9629 65.818 62.565 66.4961 62.8474C67.1803 63.1329 68.0201 63.105 68.7074 62.5743C68.9811 62.3633 69.0309 62.0622 69.0869 61.755C69.4072 59.9147 68.8971 58.034 69.3606 56.1999V56.1937Z" fill="#2F2F2F"/>
<path d="M130.939 61.755C130.827 63.2136 129.891 63.6015 128.601 63.5984C124.159 63.586 119.718 63.6046 115.276 63.5829C114.399 63.5798 113.787 63.5208 113.721 64.787C113.653 66.1836 112.188 66.6491 110.851 65.8701C111.233 64.9825 112.922 66.047 112.869 64.5356C113.183 63.1267 112.925 61.696 113.018 60.2778C113.056 59.7284 112.869 59.1543 113.171 58.6267C114.319 58.6671 113.752 59.5578 113.765 60.014C113.849 62.9436 113.821 62.9436 116.732 62.9436C117.093 62.9436 117.46 62.9715 117.817 62.9374C118.52 62.8722 119.768 63.195 119.82 62.7419C119.939 61.7426 119.911 60.5509 119.264 59.6509C118.71 58.8812 117.889 58.785 117.121 59.4522C116.822 59.7129 116.502 59.7222 116.321 59.4553C116.079 59.0985 116.477 58.9216 116.716 58.7602C118.147 57.795 119.833 58.4467 120.34 60.1505C120.893 62.0126 122.191 62.9436 124.234 62.9436C124.336 62.9436 124.442 62.9436 124.545 62.9436C126.206 62.9436 126.86 62.1574 126.507 60.585C126.196 59.2009 125.329 58.7509 124.035 59.3902C123.68 59.564 123.316 59.7936 123.127 59.4119C122.921 58.996 123.422 58.8378 123.721 58.6733C125.22 57.8447 126.734 58.5088 127.182 60.1971C127.3 60.644 127.437 61.1002 127.456 61.5564C127.496 62.4377 127.926 62.9064 128.79 62.9157C129.73 62.925 130.227 62.3788 130.252 61.4819C130.293 60.0884 130.24 58.695 130.286 57.3047C130.302 56.8888 129.932 56.1781 130.855 56.1812C131.222 58.034 131.073 59.8929 130.936 61.755H130.939Z" fill="#2F2F2F"/>
<path d="M149.504 62.6767C151.473 63.3284 153.482 62.6922 155.466 63.015C155.591 62.0963 155.305 61.3795 155.152 60.647C154.832 59.0953 154.058 58.7229 152.639 59.4491C152.381 59.5826 152.157 59.955 151.908 59.5298C151.694 59.1636 152.079 58.9929 152.3 58.816C153.7 57.7019 155.715 58.5584 156.054 60.4205C156.135 60.8736 156.082 61.3546 156.185 61.7984C156.35 62.5091 156.745 63.0305 157.585 62.9281C158.406 62.8288 158.925 62.4253 158.891 61.5191C158.891 61.4663 158.891 61.4167 158.891 61.3639C158.872 60.0698 158.987 58.8129 160.505 58.394C161.416 58.1426 162.275 58.394 162.831 59.2009C163.472 60.1257 163.338 62.537 162.685 63.3501C162.141 64.0267 161.298 64.126 160.704 63.8622C158.676 62.9591 156.633 63.856 154.608 63.617C153.485 63.4836 152.331 63.5922 151.193 63.5922C150.148 63.5922 149.041 63.2663 149.147 65.1098C149.206 66.1649 147.697 66.497 146.494 65.8236C146.506 65.4449 146.798 65.4449 147.041 65.4729C148.353 65.6156 148.624 64.8398 148.615 63.766C148.599 62.4222 148.593 61.0784 148.624 59.7346C148.633 59.2909 148.353 58.6112 149.243 58.6205C149.629 59.955 149.181 61.3391 149.498 62.6767H149.504Z" fill="#2F2F2F"/>
<path d="M93.5797 58.6236C94.0898 58.5181 94.2048 58.8129 94.2048 59.2319C94.2048 60.0078 94.1893 60.7836 94.2142 61.5564C94.2359 62.177 93.9685 62.9715 95.1068 62.9467C96.0865 62.925 96.8703 62.7201 96.9885 61.5874C97.0382 61.1281 96.9823 60.6564 97.0134 60.194C97.1004 58.8347 97.9806 58.2823 99.1998 58.3474C100.36 58.4064 101.131 59.0116 101.054 60.3274C101.032 60.6874 101.032 61.0505 101.057 61.4105C101.113 62.2298 101.567 62.776 102.366 62.8877C103.178 63.0026 103.784 62.6767 103.909 61.7705C104.241 59.9178 103.697 58.0216 104.195 56.1781C104.997 56.1316 104.764 56.7399 104.77 57.1402C104.795 58.5274 104.795 59.9147 104.776 61.3019C104.752 63.1701 103.479 64.0639 101.676 63.4122C101.15 63.2229 100.836 63.1174 100.382 63.5581C99.7597 64.1632 98.6307 64.1788 98.2263 63.7939C97.0071 62.6332 95.8595 63.856 94.6963 63.645C93.9871 63.5146 94.2888 64.2967 94.1924 64.6877C93.8285 66.2022 92.6311 66.6801 91.1817 65.836C91.7602 65.1098 93.5144 65.9353 93.3215 64.247C93.6574 62.3819 93.1723 60.4826 93.5735 58.6205L93.5797 58.6236Z" fill="#2F2F2F"/>
<path d="M89.1632 56.2278C88.6065 56.9912 88.1306 57.6461 87.7108 58.2202C87.8072 58.6392 88.0373 58.6112 88.2302 58.6205C90.2051 58.7167 90.765 59.2536 90.7432 61.0536C90.7245 62.8288 89.919 63.5829 88.0187 63.5953C87.3966 63.5984 86.7715 63.645 86.1588 63.586C84.9831 63.4712 84.1651 63.5767 83.8914 65.0694C83.652 66.3729 82.3706 66.587 81.17 65.6839C81.733 65.1346 82.7935 65.8856 83.1637 64.9205C83.4529 64.1663 83.2881 63.3905 83.3098 62.6271C83.344 61.544 83.3098 60.4609 83.3285 59.3778C83.3347 59.0426 83.2476 58.5833 83.8168 58.6174C84.2429 58.6423 84.218 59.0085 84.2367 59.3095C84.2491 59.5143 84.218 59.7254 84.2491 59.9271C84.3953 60.9109 83.7297 62.4533 84.6254 62.7729C85.9566 63.2508 87.5988 63.1981 89.0419 62.7512C90.2549 62.3726 89.8412 61.2088 89.8133 60.3398C89.7853 59.4274 89.1104 59.2288 88.283 59.2319C87.6952 59.2319 86.8741 59.564 86.5569 59.0116C86.1432 58.2916 87.0701 57.8788 87.406 57.3543C87.7605 56.7988 88.1026 56.0385 89.1632 56.2278Z" fill="#2F2F2F"/>
<path d="M23.6189 75.7142C23.8241 75.4007 23.9734 75.2021 24.0947 74.9849C24.272 74.6652 24.4555 74.2556 24.8816 74.538C25.1895 74.7428 24.9034 75.1276 24.7665 75.3107C24.1507 76.1331 24.1258 76.8811 24.9749 77.7252C23.4633 76.6545 22.3064 77.8648 21.0312 78.0883C20.2194 78.2311 19.5787 77.8773 19.2117 77.2535C18.7545 76.4683 18.6705 75.5156 19.3765 74.839C20.2256 74.029 21.1431 73.4611 20.011 72.1142C19.5072 71.5152 20.1074 70.7146 20.7824 70.3453C21.6688 69.858 22.6298 69.9449 23.3203 70.6711C23.8957 71.2794 23.9485 72.2787 23.3078 72.7597C21.7932 73.9018 22.5894 74.7087 23.622 75.7173L23.6189 75.7142Z" fill="#2F2F2F"/>
<path d="M94.8456 70.3794C95.8968 70.4477 96.5002 71.0156 96.7521 72.0242C97.0911 73.3804 97.116 74.7304 96.721 76.0742C96.4535 76.9835 95.8813 77.5514 94.8829 77.5949C93.841 77.7283 92.799 77.8556 91.7665 77.5235C91.7602 75.168 91.7571 72.8125 91.7509 70.4539C92.7742 70.0939 93.8099 70.2304 94.8456 70.3794Z" fill="#2F2F2F"/>
<path d="M169.148 72.617C170.666 72.0273 172.221 73.0359 173.807 72.4152C174.84 72.0118 175.754 72.7442 175.913 73.8707C176.065 74.9321 175.969 76.0338 175.966 77.1138C175.966 77.4242 175.932 77.7655 175.49 77.7469C175.058 77.7252 175.058 77.3745 175.051 77.0735C175.039 76.1952 175.036 75.32 175.042 74.4418C175.048 73.7528 174.905 73.2097 174.05 73.1818C173.145 73.1538 172.893 73.7032 172.874 74.4573C172.852 75.3356 172.868 76.2107 172.856 77.089C172.849 77.3962 172.84 77.7438 172.405 77.75C171.966 77.7593 171.947 77.4117 171.941 77.1014C171.929 76.2231 171.919 75.348 171.932 74.4697C171.944 73.7901 171.848 73.219 170.986 73.1818C170.1 73.1414 169.814 73.7156 169.77 74.4356C169.708 75.4628 169.72 76.4962 169.699 77.5266C169.242 77.8152 168.99 77.5824 168.999 77.1511C169.03 75.6397 168.797 74.1159 169.142 72.6139L169.148 72.617Z" fill="#2F2F2F"/>
<path d="M63.6689 73.9049C64.6455 73.9794 65.6936 73.2563 66.1757 74.3797C66.6765 75.5466 65.8523 77.1231 64.7513 77.5886C62.7825 78.4172 61.0221 77.3559 60.9444 75.2642C60.9102 74.3363 60.8884 73.4052 60.9568 72.4804C61.0377 71.3601 61.5913 70.6028 62.7483 70.2553C63.8182 69.9356 64.6859 70.2428 65.4542 70.8914C65.6843 71.087 66.1851 71.5121 65.6874 71.9001C65.308 72.1949 65.1338 71.8411 64.8974 71.5121C64.3531 70.7549 63.4792 70.9039 62.7638 71.1056C62.0423 71.3104 61.8619 72.0211 61.8712 72.7411C61.8805 73.669 61.8308 74.6 61.8899 75.5249C61.9645 76.7042 62.7389 77.0952 63.812 77.0052C64.8943 76.9152 65.2458 76.2511 65.3049 75.2238C65.3764 73.9638 64.1105 74.7925 63.6658 73.9049H63.6689Z" fill="#2F2F2F"/>
<path d="M80.7003 59.6322C79.4936 59.3467 78.5512 58.5274 77.7799 59.6974C77.276 60.4671 77.2822 61.2367 77.7301 62.0188C78.2122 62.8598 79.0488 62.9219 79.8792 62.9405C80.8869 62.9653 80.9647 63.4184 80.6412 64.247C80.0783 65.7025 78.8529 66.2456 77.5093 66.3232C76.3709 66.3884 75.2668 65.8701 74.6914 64.7591C74.0818 63.5829 74.1036 62.3912 74.7412 61.1653C75.5498 61.6743 75.0025 62.1491 74.9713 62.6115C74.8967 63.7132 75.2171 64.7156 76.2559 65.2091C77.2169 65.6684 78.2713 65.6249 79.2012 65.0167C79.5869 64.7622 79.9259 64.3277 79.8233 63.856C79.7237 63.3967 79.2168 63.645 78.8902 63.5891C76.7162 63.2105 75.8049 60.8302 77.1889 59.1388C78.1313 57.9874 79.4811 58.0712 80.7035 59.6291L80.7003 59.6322Z" fill="#2F2F2F"/>
<path d="M75.8671 74.0073C75.8671 73.0297 75.8609 72.0522 75.8702 71.0746C75.8733 70.7798 75.8485 70.4167 76.287 70.3918C76.7131 70.367 76.8313 70.696 76.7722 71.0063C76.4798 72.5208 77.3196 72.7287 78.5263 72.5922C79.3288 72.499 79.7082 72.9428 79.9695 73.6721C80.4173 74.9228 80.3831 76.1797 79.6429 77.2069C79.0146 78.0759 77.9572 77.6507 76.9899 77.6693C75.5125 77.6973 75.8858 76.9028 75.8671 76.1673C75.8453 75.4473 75.864 74.7273 75.864 74.0073H75.8702H75.8671Z" fill="#2F2F2F"/>
<path d="M35.786 72.6077C37.3442 72.0646 38.9428 73.0514 40.5601 72.3966C41.5616 71.9901 42.5413 72.9335 42.5849 74.1283C42.6253 75.2611 42.5662 76.3969 42.5506 77.5297C41.969 77.8431 41.854 77.4987 41.8229 77.0207C41.7669 76.1611 41.941 75.289 41.7171 74.4356C41.686 73.697 41.4901 73.1104 40.5694 73.1849C39.7732 73.247 39.568 73.8583 39.5182 74.4666C39.4342 75.4814 39.4622 76.5056 39.4404 77.5266C38.6816 77.8711 38.7407 77.3249 38.7095 76.8656C38.6505 75.9531 38.8433 75.0314 38.5945 74.1252C38.5385 73.4425 38.159 73.1601 37.481 73.1756C36.8154 73.1942 36.576 73.697 36.5013 74.1656C36.3738 74.9569 36.4391 75.7794 36.3707 76.5831C36.3334 77.0238 36.6568 77.6662 35.8419 77.7811C35.4127 76.0618 35.5092 74.3332 35.786 72.6046V72.6077Z" fill="#2F2F2F"/>
<path d="M149.196 71.2266C148.36 71.4873 147.756 70.8046 147.029 70.9597C146.522 71.0683 145.955 71.0559 145.85 71.7201C145.75 72.3532 145.753 72.9738 146.512 73.2532C146.945 73.4114 147.364 73.6287 147.809 73.7125C149.156 73.9732 149.731 74.7149 149.585 76.1021C149.43 77.5638 148.316 77.6631 147.256 77.8462C146.739 77.9331 146.248 77.7779 145.753 77.5886C145.271 77.4055 144.593 77.1883 144.823 76.6638C145.11 76.009 145.567 76.6359 145.934 76.8438C146.668 77.2597 147.427 76.9493 148.145 76.819C148.602 76.7352 148.86 76.2076 148.842 75.7266C148.823 75.258 148.587 74.8359 148.092 74.6621C147.567 74.4759 147.025 74.33 146.503 74.1407C145.063 73.6163 144.528 72.6573 144.973 71.4283C145.324 70.4601 146.68 69.8332 147.825 70.2087C148.31 70.3701 148.975 70.3918 149.206 71.2297L149.196 71.2266Z" fill="#2F2F2F"/>
<path d="M119.083 75.317C118.981 76.0369 119.332 76.909 118.38 77.5793C117.326 78.3211 116.34 77.3218 115.32 77.6849C115.04 77.7842 115.043 77.2193 115.043 76.9307C115.034 75.0221 115.031 73.1166 115.049 71.208C115.049 70.8915 114.909 70.3887 115.485 70.4135C116.001 70.4353 115.967 70.9008 115.926 71.2391C115.802 72.3097 116.054 72.6077 117.258 72.3904C118.607 72.1484 119.114 73.0856 119.08 75.3201L119.083 75.317Z" fill="#2F2F2F"/>
<path d="M46.6903 64.2222C46.2549 66.3853 44.7962 66.947 42.7279 65.4698C43.4961 65.4698 44.0311 65.4543 44.5598 65.4729C45.5769 65.507 45.9719 64.8274 45.975 64.0205C45.975 62.9343 45.101 63.6419 44.7091 63.6356C43.3748 63.6108 42.6968 63.0212 42.5973 61.7177C42.4293 59.4957 42.9114 58.4964 44.3421 58.3505C45.6484 58.2171 46.5441 58.7509 46.6903 60.1722C46.8583 61.5222 46.8552 62.8722 46.6903 64.2253V64.2222Z" fill="#2F2F2F"/>
<path d="M33.2947 70.4383C33.9354 70.3732 33.9043 70.8201 33.9043 71.239C33.9043 72.7845 33.9572 74.3331 33.8732 75.8755C33.7985 77.2659 32.7722 77.75 31.5561 77.8462C30.2218 77.9517 29.0119 77.1262 28.9466 75.9779C28.8533 74.3331 28.9155 72.6821 28.9217 71.0342C28.9217 70.7363 28.9124 70.3639 29.3758 70.4042C29.7895 70.4414 29.805 70.789 29.805 71.0963C29.8175 72.5394 29.8299 73.9824 29.8237 75.4224C29.8175 76.3348 30.2063 76.9183 31.1455 76.9959C32.091 77.0735 32.9401 76.9369 32.9868 75.7048C33.3787 73.9669 32.8002 72.17 33.2916 70.4383H33.2947Z" fill="#2F2F2F"/>
<path d="M145.803 59.2071C145.809 63.527 145.679 63.645 140.926 63.5953C138.55 63.5705 137.322 61.7767 138.367 59.8402C138.519 59.5578 138.612 59.0519 139.091 59.3033C139.511 59.5267 139.113 59.8216 139.017 60.0729C138.373 61.7767 139.048 62.8877 140.892 62.925C145.346 63.0181 144.91 63.0646 144.886 59.2505C144.879 58.4778 144.876 57.705 144.895 56.9354C144.904 56.6002 144.811 56.144 145.393 56.1937C145.825 56.2309 145.794 56.5909 145.8 56.8888C145.812 57.6616 145.803 58.4312 145.803 59.204V59.2071Z" fill="#2F2F2F"/>
<path d="M72.6667 3.32376C71.6839 1.52688 70.7011 2.1817 69.4134 3.25549C68.9407 3.64962 68.1009 2.52308 67.7868 1.91791C67.4105 1.19792 68.4151 0.927919 68.779 0.437579C69.2486 -0.189313 69.6685 0.179995 70.0293 0.595853C70.6575 1.31895 71.2796 1.9086 72.0664 0.772748C72.7569 -0.226554 73.2359 0.37551 73.8703 0.915505C74.6666 1.59515 74.4706 2.06687 73.7833 2.59756C73.4691 2.83963 73.2794 3.25238 72.6698 3.32376H72.6667Z" fill="#2F2F2F"/>
<path d="M131.515 75.1183C131.515 73.1042 132.18 72.2694 133.748 72.3221C135.247 72.3718 135.875 73.1911 135.875 75.0966C135.875 77.0828 135.21 77.8959 133.617 77.8586C132.093 77.8214 131.518 77.0735 131.518 75.1183H131.515Z" fill="#2F2F2F"/>
<path d="M165.634 72.3221C166.302 72.4804 167.046 72.5859 167.41 73.4518C167.96 74.7676 167.634 75.3417 166.228 75.3604C165.92 75.3635 165.599 75.3138 165.304 75.3728C164.921 75.4535 164.191 75.0655 164.256 75.8197C164.306 76.431 164.629 77.0921 165.5 76.9959C165.652 76.9804 165.827 76.8873 165.951 76.9338C166.402 77.1076 167.099 76.2604 167.254 77.0269C167.379 77.6445 166.523 77.7438 166.013 77.8307C164.483 78.0883 163.36 77.0424 163.236 75.3076C163.111 73.5914 164.119 72.2942 165.64 72.319L165.634 72.3221Z" fill="#2F2F2F"/>
<path d="M51.6169 75.4411C51.6169 75.5435 51.6293 75.649 51.6169 75.7514C51.536 76.3938 51.8719 77.5235 51.3898 77.5824C50.519 77.6879 49.6263 78.0914 48.6995 77.8059C47.8131 77.5328 47.4834 76.9679 47.5612 76.0617C47.6358 75.1804 48.0868 74.7676 48.9452 74.7428C49.0478 74.7428 49.1567 74.7428 49.2531 74.7149C49.7881 74.5442 50.8176 75.1214 50.6714 73.9111C50.5345 72.7814 49.6232 73.1942 48.9577 73.25C48.628 73.278 48.2019 73.669 48.0557 73.1476C47.9313 72.7069 48.4569 72.679 48.7648 72.5611C50.7305 71.8194 51.6138 72.7132 51.6138 75.438L51.6169 75.4411Z" fill="#2F2F2F"/>
<path d="M10.2637 75.5404C10.2637 75.5931 10.2637 75.6428 10.2637 75.6955C10.2637 77.48 9.41458 78.1534 7.55158 77.8431C6.58741 77.6817 6.13954 77.1604 6.18931 76.1362C6.23907 75.1586 6.68072 74.7242 7.63244 74.7366C7.94346 74.7397 8.25448 74.7087 8.56239 74.7024C8.94805 74.6931 9.29018 74.6497 9.31195 74.1438C9.33061 73.6783 9.19998 73.309 8.69924 73.219C8.40066 73.1662 8.0772 73.2407 7.77551 73.188C7.38673 73.1197 6.78958 73.8862 6.66206 73.0794C6.5843 72.5859 7.34008 72.5518 7.75685 72.44C9.19687 72.049 10.1859 72.8063 10.2543 74.3052C10.273 74.718 10.2543 75.1307 10.2574 75.5466L10.2637 75.5404Z" fill="#2F2F2F"/>
<path d="M85.1946 75.5745C85.1946 75.6273 85.2008 75.6801 85.1946 75.7297C85.1075 76.3752 85.4403 77.5328 84.9893 77.5762C84.0625 77.6662 83.1232 78.1038 82.1528 77.7842C81.226 77.4769 81.0767 76.8035 81.142 75.9532C81.2073 75.1214 81.6707 74.8732 82.4359 74.7087C83.0548 74.5752 84.2989 75.3014 84.1993 73.9608C84.1029 72.6666 82.9864 73.2128 82.2337 73.3152C81.9724 73.3494 81.7236 73.517 81.5992 73.1911C81.4779 72.8715 81.7827 72.7628 81.9942 72.6449C83.5742 71.7728 85.1573 72.6884 85.1946 74.4883C85.2008 74.8514 85.1946 75.2114 85.1946 75.5745Z" fill="#2F2F2F"/>
<path d="M4.06192 77.5266C4.04637 76.5149 4.03393 75.5062 4.01838 74.4945C2.91737 74.3114 1.7977 73.8366 0.78066 74.7428C0.646922 75.7607 1.05125 76.8221 0.525624 77.8059C0.0373224 77.7562 0 77.4086 0 77.0269C0 75.078 0 73.129 0.0031102 71.1801C0.0031102 70.7735 -0.0435428 70.3018 0.61893 70.4166C1.06991 71.3973 0.47275 72.4928 0.951721 73.4704C1.10412 73.4859 1.25341 73.5108 1.40581 73.5139C3.01897 73.5511 3.89501 72.7804 4.03393 71.2018C4.07125 70.7828 4.03393 70.3577 4.65286 70.4228C5.02608 72.6139 4.7275 74.8235 4.80526 77.0207C4.82392 77.5017 4.64042 77.8462 4.05881 77.5266H4.06192Z" fill="#2F2F2F"/>
<path d="M70.247 75.0562C70.2532 73.0514 70.8161 72.3159 72.337 72.3221C73.7615 72.3283 74.5857 73.3245 74.5981 75.0562C74.6106 76.909 73.7895 77.899 72.2686 77.8586C70.7913 77.8214 70.2376 77.0548 70.2439 75.0593L70.247 75.0562Z" fill="#2F2F2F"/>
<path d="M152.422 76.6949C152.894 75.2549 153.258 74.2028 153.585 73.1383C153.687 72.8063 153.818 72.5239 154.194 72.617C154.67 72.7318 154.44 73.0545 154.341 73.3369C153.684 75.2114 153.081 77.1107 152.362 78.9635C151.946 80.0434 151.744 80.0652 150.359 79.7393C152.114 78.8952 152.095 77.6476 151.423 76.1983C151.059 75.4131 150.745 74.5938 150.534 73.759C150.447 73.4176 149.772 72.8776 150.521 72.6418C151.196 72.4308 151.109 73.219 151.268 73.579C151.653 74.4573 151.943 75.3759 152.425 76.698L152.422 76.6949Z" fill="#2F2F2F"/>
<path d="M53.2124 77.5266V70.457C53.7598 70.5097 53.794 70.727 53.7754 70.9163C53.6572 72.1142 53.7692 72.7907 55.374 72.3997C56.3413 72.1639 57.2246 72.8963 57.209 74.1438C57.1966 75.2704 57.1904 76.3969 57.181 77.5235C56.6088 77.8462 56.4626 77.5235 56.4346 77.03C56.3848 76.158 56.5186 75.2797 56.3537 74.4107C56.304 73.5852 55.9805 73.1011 55.0319 73.1818C53.9495 73.2749 54.1548 74.0911 54.046 74.749C53.8251 75.5 53.9931 76.2697 53.9402 77.0269C53.906 77.5079 53.7878 77.8462 53.2093 77.5266H53.2124Z" fill="#2F2F2F"/>
<path d="M121.528 76.0338C121.547 76.9276 122.153 76.9555 122.819 76.9183C123.59 76.8748 123.699 76.3069 123.727 75.7359C123.77 74.9166 123.736 74.0911 123.752 73.2687C123.758 72.9707 123.736 72.617 124.178 72.6014C124.613 72.589 124.651 72.9242 124.654 73.2376C124.663 74.5225 124.666 75.8073 124.654 77.0921C124.654 77.3931 124.647 77.7562 124.172 77.6569C123.036 77.4241 121.45 78.5972 120.828 76.8935C120.346 75.5714 120.52 74.088 120.803 72.679C120.813 72.6263 121.083 72.6232 121.232 72.5983C121.699 73.7094 121.173 74.9073 121.525 76.0307L121.528 76.0338Z" fill="#2F2F2F"/>
<path d="M140.565 77.5266C140.55 76.5024 140.565 75.4752 140.513 74.4511C140.475 73.7218 140.189 73.1694 139.309 73.1818C138.466 73.1942 138.108 73.6907 138.068 74.4387C138.021 75.3076 138.059 76.1828 138.043 77.0549C138.037 77.3497 138.062 77.7066 137.629 77.7407C137.185 77.7748 137.15 77.4304 137.147 77.1231C137.135 75.8414 137.045 74.5473 137.169 73.278C137.3 71.9683 138.575 72.6511 139.259 72.4245C140.093 72.1483 141.122 72.5301 141.184 73.7994C141.458 74.8638 141.265 75.9438 141.299 77.0145C141.315 77.4862 141.153 77.8462 140.565 77.5297V77.5266Z" fill="#2F2F2F"/>
<path d="M12.7145 60.9978C12.7145 59.145 13.321 58.3381 14.7143 58.3226C16.1917 58.3071 16.7951 59.1078 16.7889 61.0816C16.7826 62.9684 16.2508 63.6077 14.6957 63.5922C13.1717 63.5767 12.7083 62.9684 12.7114 60.9978H12.7145Z" fill="#2F2F2F"/>
<path d="M103.934 73.4549C103.243 73.3369 102.714 73.2097 102.183 73.1756C101.847 73.1538 101.433 73.1445 101.361 73.6566C101.296 74.1314 101.464 74.4573 101.934 74.6031C102.08 74.6497 102.229 74.7211 102.378 74.7242C103.262 74.749 104.061 74.9135 104.22 75.9655C104.316 76.5986 104.248 77.2007 103.57 77.5483C102.559 78.0666 101.57 77.9145 100.603 77.449C100.456 77.3776 100.214 77.2348 100.357 76.9742C100.5 76.7135 100.721 76.6142 100.991 76.7817C101.165 76.8904 101.299 77.0921 101.483 77.1479C102.322 77.3962 103.209 77.1324 103.43 76.3969C103.7 75.5 102.773 75.4566 102.108 75.379C101.221 75.2766 100.484 74.9849 100.435 73.939C100.394 73.0576 100.985 72.6076 101.716 72.4307C102.584 72.2197 103.417 72.3159 103.934 73.458V73.4549Z" fill="#2F2F2F"/>
<path d="M157.19 77.8742C156.878 77.8493 156.595 77.8897 156.372 77.7966C155.97 77.629 155.233 77.5669 155.336 77.0859C155.504 76.3007 156.079 76.9804 156.434 77.0455C157.177 77.179 158.014 77.3373 158.219 76.4621C158.465 75.4069 157.513 75.469 156.801 75.3635C156.036 75.2487 155.423 74.9104 155.404 74.0073C155.389 73.2935 155.538 72.7535 156.365 72.4804C157.264 72.1856 157.986 72.4432 158.667 72.918C158.959 73.1228 158.729 73.4021 158.446 73.4176C158.21 73.4301 157.967 73.2594 157.718 73.2252C157.109 73.1383 156.309 72.9645 156.169 73.7559C156.029 74.5597 156.844 74.6807 157.448 74.7366C158.505 74.8297 159.301 75.1959 159.171 76.4C159.046 77.5638 158.104 77.7717 157.19 77.8773V77.8742Z" fill="#2F2F2F"/>
<path d="M128.041 77.2504C127.882 77.6569 127.717 77.9797 127.157 77.6941C126.47 77.3435 126.336 76.7569 126.215 76.0649C126.038 75.0656 126.809 73.9018 125.708 73.0638C126.339 72.4556 126.131 71.5928 126.392 70.8728C126.42 70.7952 126.769 70.7394 126.784 70.7673C127.182 71.537 128.069 72.5642 127.835 73.0514C127.021 74.7552 126.859 75.6738 127.867 76.999C127.923 77.0735 127.975 77.1542 128.041 77.2473V77.2504Z" fill="#2F2F2F"/>
<path d="M107.638 72.8032C106.434 73.5759 106.213 76.0773 107.196 76.9245C107.423 77.12 107.594 77.2255 107.426 77.4955C107.289 77.7159 107.066 77.9021 106.786 77.7873C106.126 77.5142 105.787 77.0673 105.688 76.2976C105.545 75.199 106.235 73.9949 105.249 72.9397C105.153 72.8342 105.741 71.6859 105.812 70.9473C105.834 70.7332 106.126 70.7208 106.332 70.7735C106.658 70.8604 106.671 71.1521 106.63 71.388C106.496 72.1545 106.907 72.5704 107.644 72.8001L107.638 72.8032Z" fill="#2F2F2F"/>
<path d="M40.7343 59.8464C40.7343 60.8798 40.7405 61.9133 40.7312 62.9467C40.7281 63.2539 40.7156 63.6015 40.2522 63.5488C39.9256 63.5115 39.851 63.257 39.8479 62.9932C39.8416 60.9264 39.8385 58.8626 39.8448 56.7957C39.8448 56.4636 39.9381 56.1564 40.3611 56.1968C40.8058 56.2402 40.7281 56.6219 40.7343 56.9043C40.7498 57.885 40.7405 58.8657 40.7374 59.8495L40.7343 59.8464Z" fill="#2F2F2F"/>
<path d="M106.677 59.7191C106.677 58.7974 106.667 57.8757 106.68 56.954C106.683 56.6064 106.639 56.175 107.181 56.1937C107.625 56.2092 107.573 56.5909 107.576 56.8733C107.585 58.8688 107.585 60.8643 107.576 62.8629C107.576 63.1484 107.628 63.5301 107.184 63.5457C106.643 63.5674 106.683 63.136 106.68 62.7884C106.667 61.7643 106.677 60.7402 106.677 59.716V59.7191Z" fill="#2F2F2F"/>
<path d="M160.399 73.247C160.163 72.8901 160.433 70.8511 160.744 70.7735C161.251 70.6463 161.441 70.9753 161.351 71.3787C161.158 72.2632 161.687 72.617 162.542 72.8125C161.407 73.3928 160.925 75.7514 161.59 76.6763C161.836 77.0176 162.835 77.2473 162.038 77.7283C161.606 77.989 160.754 77.508 160.707 76.6359C160.337 75.5311 160.891 74.3394 160.399 73.2439V73.247Z" fill="#2F2F2F"/>
<path d="M14.3287 72.6108C14.845 72.5332 14.9259 72.8466 14.9227 73.2532C14.9196 75.0035 14.9663 76.7538 14.9072 78.5011C14.8636 79.8293 14.0985 80.2421 12.7052 79.8697C13.1002 79.2583 14.1203 79.3731 14.0394 78.5073C14.282 77.0393 14.0705 75.559 14.1545 74.088C14.1825 73.5945 13.9866 73.067 14.3287 72.6077V72.6108Z" fill="#2F2F2F"/>
<path d="M67.7744 70.4011C68.5675 70.3142 68.3902 70.9101 68.3964 71.3259C68.4182 72.5083 68.356 73.6938 68.4213 74.8731C68.4649 75.6924 67.9299 76.8407 69.4166 77.0362C69.4912 77.0455 69.5783 77.269 69.5876 77.3962C69.6032 77.6507 69.401 77.7966 69.1957 77.7531C68.5675 77.6135 67.793 77.6383 67.7215 76.7073C67.5971 74.6031 67.4945 72.5021 67.7744 70.4011Z" fill="#2F2F2F"/>
<path d="M87.6703 76.6328C87.7543 77.1355 88.6936 76.7104 88.563 77.449C88.5163 77.7128 88.2955 77.7842 88.1027 77.7345C87.6237 77.6042 86.8679 77.6166 86.8368 77.0424C86.7248 74.8545 86.5289 72.6542 86.9394 70.4756C86.9488 70.4322 87.2194 70.4353 87.3686 70.4197C87.7139 71.9311 87.4277 73.4642 87.5304 74.9818C87.5677 75.5342 87.3904 76.1052 87.6735 76.6359L87.6703 76.6328Z" fill="#2F2F2F"/>
<path d="M12.4875 78.4855C12.3631 79.6369 11.8623 80.2576 10.1828 79.789C12.0271 79.1466 11.8063 77.8555 11.8063 76.6483C11.8063 75.5652 11.8063 74.4821 11.8063 73.4021C11.8063 72.9894 11.7628 72.5301 12.4128 72.5983C12.7518 74.5566 12.615 76.5211 12.4875 78.4855Z" fill="#2F2F2F"/>
<path d="M109.361 77.7749C108.726 77.7562 108.826 77.2783 108.82 76.8873C108.807 75.9159 108.776 74.9445 108.832 73.9763C108.857 73.5232 108.568 72.617 109.134 72.7039C109.961 72.8311 110.872 71.6052 111.634 72.9304C111.022 73.4456 109.513 72.9242 109.703 74.4169C109.336 75.5125 109.936 76.7042 109.364 77.7811L109.361 77.7749Z" fill="#2F2F2F"/>
<path d="M44.1866 77.5266C44.1742 76.3442 44.1244 75.1587 44.1679 73.9794C44.1835 73.5294 43.8942 72.6108 44.4696 72.7039C45.3001 72.8404 46.2207 71.5866 46.9765 72.9397C46.3358 73.4239 44.8335 72.9211 45.0357 74.4325C44.8024 75.2394 44.9797 76.0618 44.9268 76.8749C44.8957 77.3435 44.9393 77.8866 44.1835 77.5235L44.1866 77.5266Z" fill="#2F2F2F"/>
<path d="M112.567 75.1028C112.567 74.4914 112.558 73.877 112.571 73.2656C112.577 72.9614 112.586 72.6263 113.009 72.6014C113.457 72.5766 113.476 72.9149 113.479 73.2221C113.488 74.4976 113.488 75.7731 113.479 77.0487C113.479 77.3528 113.469 77.6973 113.046 77.719C112.62 77.7407 112.577 77.4055 112.571 77.0921C112.558 76.428 112.567 75.7669 112.567 75.1028Z" fill="#2F2F2F"/>
<path d="M133.655 63.5736C133.169 63.6139 133.057 63.3346 133.061 62.9219C133.067 60.8891 133.067 58.8533 133.061 56.8205C133.061 56.4078 133.169 56.1254 133.655 56.1688C133.978 58.6392 133.978 61.1064 133.655 63.5767V63.5736Z" fill="#2F2F2F"/>
<path d="M98.5871 72.6045C99.3802 72.5456 99.1719 73.1445 99.175 73.548C99.1936 74.8731 99.175 76.2014 99.1687 77.5297C98.7364 77.809 98.4285 77.6445 98.4347 77.1852C98.4596 75.6583 98.2077 74.1221 98.5871 72.6076V72.6045Z" fill="#2F2F2F"/>
<path d="M129.397 77.5266C129.378 76.1983 129.347 74.8701 129.353 73.5418C129.353 73.1384 129.157 72.5363 129.953 72.6139C130.302 74.119 130.065 75.6428 130.097 77.1573C130.106 77.5887 129.857 77.8276 129.397 77.5297V77.5266Z" fill="#2F2F2F"/>
<path d="M141.278 59.8743C141.654 59.3623 142.236 59.744 142.572 59.3778C142.534 59.2847 142.5 59.1947 142.463 59.1047C142.301 58.7292 141.53 59.2847 141.62 58.5678C141.642 58.394 141.797 58.1426 141.946 58.093C142.512 57.9005 142.338 58.7943 142.92 58.8036C143.107 58.8036 143.175 59.5609 142.833 59.8619C142.351 60.2871 141.81 60.3709 141.278 59.8774V59.8743Z" fill="#2F2F2F"/>
<path d="M54.3259 65.746C53.9713 65.7615 53.8002 65.6157 53.794 65.3053C53.7909 64.9919 53.8002 64.6567 54.2294 64.6381C54.6493 64.6195 54.7084 64.9236 54.7177 65.2557C54.724 65.5567 54.6027 65.7398 54.3259 65.746Z" fill="#2F2F2F"/>
<path d="M113.482 70.7456C113.501 71.0963 113.41 71.357 112.981 71.3259C112.655 71.3011 112.558 71.0994 112.564 70.8077C112.574 70.4756 112.639 70.1839 113.068 70.2087C113.398 70.2273 113.463 70.4725 113.482 70.7425V70.7456Z" fill="#2F2F2F"/>
<path d="M130.233 70.9846C130.24 71.0994 130.118 71.298 129.814 71.326C129.375 71.3663 129.328 71.0653 129.341 70.7425C129.35 70.4849 129.397 70.218 129.73 70.2056C130.137 70.1901 130.224 70.4725 130.233 70.9846Z" fill="#2F2F2F"/>
<path d="M83.5493 56.1999C84.0003 56.1595 84.2118 56.2588 84.2273 56.5754C84.246 56.9199 84.3237 57.3264 83.7888 57.3512C83.4778 57.3668 83.3503 57.1588 83.3378 56.8764C83.3254 56.5754 83.3254 56.2744 83.5493 56.203V56.1999Z" fill="#2F2F2F"/>
<path d="M88.9144 15.5233C86.646 15.5233 85.6145 14.2385 85.8197 11.6689C85.9939 9.46234 87.7543 8.29545 89.8692 8.95958C90.8987 9.28234 91.5425 9.92785 91.7322 11.0016C91.7944 11.3554 91.8909 11.7061 91.9344 12.0661C92.3481 15.4426 92.2734 15.5264 88.9144 15.5264V15.5233Z" fill="white"/>
<path d="M68.7137 11.2251C68.7137 9.17062 69.4508 7.96959 70.6327 7.77097C72.2873 7.49167 73.2234 8.22718 73.6216 10.1141C73.774 10.8434 73.6247 11.5354 73.4038 12.2337C73.0182 13.4533 72.4024 14.9616 71.2422 14.9771C70.0075 14.9926 69.2704 13.5309 68.9003 12.2523C68.7727 11.8147 68.7354 11.3523 68.7137 11.2282V11.2251Z" fill="white"/>
<path d="M46.7028 15.5233C43.0079 15.4116 43.5552 16.2899 43.549 12.2151C43.5459 10.0303 44.7589 8.76096 46.6437 8.76406C48.46 8.76716 49.589 9.97439 49.7414 12.0847C49.7477 12.1871 49.7477 12.2895 49.7445 12.392C49.6886 16.2092 50.2204 15.4209 46.7028 15.5202V15.5233Z" fill="white"/>
<path d="M62.7949 36.3721C61.781 36.0307 61.1528 34.6249 60.2415 35.9469C59.3551 37.2317 61.1248 37.2566 61.302 38.0541C59.7345 38.9231 58.2105 38.2931 57.8497 36.5428C57.4205 34.4573 57.3956 32.3501 57.8155 30.2552C58.1483 28.5918 58.733 28.1977 60.5245 28.2349C62.0454 28.266 62.6768 29.2435 62.7638 30.5004C62.8945 32.3904 62.7981 34.2959 62.7981 36.3752L62.7949 36.3721Z" fill="white"/>
<path d="M73.6122 29.4297C74.2685 31.447 74.7475 33.008 75.2886 34.5473C75.5126 35.1835 75.3228 35.3169 74.7039 35.3852C71.6621 35.7266 71.5222 35.5807 72.4646 32.7008C72.7818 31.7325 73.1395 30.7766 73.6122 29.4297Z" fill="white"/>
<path d="M46.8458 29.6408C47.4181 31.3352 47.9375 32.887 48.4694 34.4325C48.74 35.2176 48.4009 35.3604 47.6638 35.3945C44.7402 35.5249 44.7402 35.5497 45.6391 32.8032C45.9719 31.7852 46.1958 30.727 46.8458 29.6408Z" fill="white"/>
<path d="M26.474 61.3578C26.39 62.1398 26.7166 63.3284 25.233 63.2571C23.7961 63.1888 23.9703 62.0529 23.9392 61.0753C23.9081 60.0823 24.0138 59.0426 25.2486 59.0581C26.6824 59.0767 26.4554 60.3057 26.4771 61.3547L26.474 61.3578Z" fill="white"/>
<path d="M32.3056 62.3974C32.1315 61.3422 29.8424 60.976 31.3321 59.5019C31.9759 58.8657 32.7784 58.906 33.3724 59.5454C34.7658 61.0474 32.5171 61.3422 32.3056 62.3974Z" fill="white"/>
<path d="M162.29 61.0133C162.29 61.5129 162.334 61.8791 162.281 62.2329C162.163 63.0491 161.59 63.4588 160.85 63.2415C159.183 62.7481 159.923 61.3019 159.843 60.2343C159.759 59.1481 160.633 59.2102 161.367 59.2598C162.732 59.356 162.147 60.4422 162.287 61.0133H162.29Z" fill="white"/>
<path d="M100.428 61.2026C100.413 62.1957 100.422 63.2912 99.0288 63.2539C97.7069 63.2198 97.623 62.1771 97.6292 61.1591C97.6354 60.1102 97.8998 59.0643 99.1097 59.0612C100.422 59.0612 100.441 60.1971 100.428 61.2026Z" fill="white"/>
<path d="M21.0312 77.2442C20.3034 77.3714 19.7902 76.94 19.7715 76.1704C19.7467 75.2331 20.4465 74.4604 21.252 74.4945C22.1291 74.5349 22.7418 75.5993 22.8164 76.3255C22.8849 77.0083 21.8896 77.2286 21.0312 77.2411V77.2442Z" fill="white"/>
<path d="M21.6657 73.157C21.1089 72.8063 20.8446 72.2973 20.8383 71.6549C20.8321 70.8915 21.3609 70.6897 21.9611 70.7611C22.5707 70.8356 23.0093 71.2763 22.8942 71.9032C22.7822 72.5177 22.3281 72.9614 21.6688 73.157H21.6657Z" fill="white"/>
<path d="M96.071 73.7497C96.0648 76.4062 95.4521 77.058 93.5268 76.9431C92.8581 76.9028 92.628 76.6856 92.6467 76.0338C92.6809 74.8545 92.6062 73.669 92.6778 72.4928C92.7089 71.9839 92.233 71.1273 93.2687 71.056C94.1644 70.997 95.1473 70.7984 95.7289 71.838C96.127 72.5518 96.0803 73.3183 96.071 73.7466V73.7497Z" fill="white"/>
<path d="M76.8002 75.0624C76.8437 74.2369 76.5296 73.1787 77.9323 73.1631C79.3101 73.1476 79.279 74.1252 79.2914 75.0935C79.3008 76.0679 79.2666 77.1355 78.0038 77.1262C76.7162 77.1169 76.7255 76.0369 76.8033 75.0624H76.8002Z" fill="white"/>
<path d="M115.951 75.1214C116.029 74.2742 115.653 73.1104 117.167 73.1694C118.393 73.2159 118.449 74.1221 118.458 75.0376C118.471 75.9966 118.43 77.0735 117.214 77.1231C115.933 77.1759 115.88 76.1145 115.951 75.1245V75.1214Z" fill="white"/>
<path d="M46.003 61.336C46.1491 62.2857 45.9252 63.0336 44.6842 62.9622C43.5552 62.897 43.238 62.1243 43.2287 61.1715C43.2162 60.1319 43.4682 59.0364 44.7091 59.0705C45.9936 59.1046 46.0496 60.2467 46.003 61.336Z" fill="white"/>
<path d="M132.417 75.1338C132.482 74.2338 132.196 73.1476 133.692 73.1538C135.185 73.16 134.855 74.2431 134.964 75.1307C135.107 76.2945 134.703 77.1759 133.505 77.1386C132.299 77.1045 132.454 75.978 132.417 75.1338Z" fill="white"/>
<path d="M165.525 74.7552C165.074 74.5411 164.228 75.078 164.253 74.1563C164.271 73.5045 164.791 73.129 165.525 73.1352C166.256 73.1414 166.772 73.4952 166.772 74.1749C166.772 75.0904 165.932 74.5194 165.525 74.7552Z" fill="white"/>
<path d="M49.7041 75.3666C50.2111 75.3728 50.7678 75.258 50.7523 76.0866C50.7367 76.9183 50.2204 77.1542 49.5486 77.1542C48.9421 77.1542 48.4103 76.9525 48.4009 76.1952C48.3916 75.2363 49.0914 75.3666 49.7041 75.3666Z" fill="white"/>
<path d="M8.22337 75.3852C8.97293 75.2859 9.37415 75.4256 9.34305 76.2449C9.31194 77.0828 8.70856 77.1262 8.18605 77.1417C7.55157 77.1635 6.8611 76.9338 6.90776 76.1487C6.95752 75.3387 7.64799 75.2952 8.22026 75.3852H8.22337Z" fill="white"/>
<path d="M82.949 75.3573C83.6893 75.3759 84.2864 75.2083 84.2833 76.1362C84.2833 77.0362 83.6799 77.1293 83.0765 77.1511C82.4918 77.1697 81.8916 76.9338 81.8605 76.2449C81.8231 75.3852 82.4825 75.3263 82.9459 75.3573H82.949Z" fill="white"/>
<path d="M73.6869 75.2828C73.7491 76.1269 73.5904 77.1231 72.3588 77.1138C71.1863 77.1045 70.897 76.1176 70.925 75.1214C70.953 74.1873 71.0214 73.1725 72.3401 73.1663C73.6962 73.1601 73.69 74.1563 73.6869 75.2828Z" fill="white"/>
<path d="M15.8496 61.0536C15.7967 61.8574 16.1886 62.9591 14.7735 62.9529C13.4672 62.9467 13.4112 61.9567 13.3832 60.9978C13.3521 59.9767 13.6351 59.0209 14.8108 59.0643C16.0331 59.1078 15.9429 60.1536 15.8496 61.0567V61.0536Z" fill="white"/>
</g>
<defs>
<clipPath id="clip0_1011_357">
<rect width="176" height="80" fill="white"/>
</clipPath>
</defs>
</svg>
