<svg width="146" height="80" viewBox="0 0 146 80" fill="none" xmlns="http://www.w3.org/2000/svg">
<g clip-path="url(#clip0_1010_2)">
<path d="M131.738 41.3746C131.646 41.544 131.502 41.6691 131.353 41.7786C130.337 42.516 129.298 43.2092 128.094 43.6184C127.641 43.7721 127.202 43.8034 126.754 43.5897C126.539 43.4855 126.377 43.3499 126.262 43.1363C125.749 42.2007 125.296 41.2469 125.184 40.1629C125.155 39.8762 125.037 39.6 124.972 39.3159C124.754 38.3726 124.315 37.4892 124.252 36.4963C124.233 36.2253 124.001 35.9438 123.883 35.6598C123.686 35.1933 123.535 34.7269 123.467 34.2291C123.443 34.0519 123.385 33.8825 123.173 33.893C122.789 33.9112 122.823 33.6584 122.789 33.4004C122.655 32.418 122.498 31.4408 121.988 30.4401C121.64 31.7535 121.048 32.8897 120.93 34.1692C120.92 34.2708 120.93 34.3933 120.875 34.4715C120.334 35.3002 120.014 36.2487 119.428 37.0566C118.829 37.8853 118.232 38.7166 117.535 39.4645C116.852 40.1967 116.143 40.9082 115.371 41.5466C114.392 42.3545 113.306 42.9591 112.031 43.1753C111.209 43.3135 110.413 43.277 109.654 42.8835C109.293 42.6959 108.974 42.4822 108.804 42.0913C108.662 41.7707 108.401 41.5701 108.055 41.4189C107.838 41.729 107.513 41.9089 107.21 42.1251C106.631 42.5343 106.05 42.9408 105.516 43.4125C104.828 44.0197 103.993 44.2646 103.079 44.1812C102.611 44.1369 102.108 44.2281 101.684 43.9206C101.653 43.8998 101.603 43.892 101.564 43.8972C100.452 44.0431 99.9778 43.2249 99.4805 42.4874C99.1559 42.0053 98.9125 41.4711 98.6377 40.9551C98.5173 40.731 98.3733 40.5512 98.143 40.4156C97.3735 39.9596 97.0254 39.2221 96.8369 38.3856C96.7872 38.1589 96.9049 37.867 96.583 37.7472C96.4024 36.9576 96.3893 36.1497 96.3003 35.3497C96.0962 33.5151 95.9129 31.6753 95.8082 29.8329C95.7664 29.0954 95.8135 28.3449 95.7978 27.6022C95.7925 27.3937 95.8082 27.1905 95.714 26.9976C95.6538 26.6588 95.7978 26.4478 96.1093 26.3096C97.2949 25.7885 98.4492 25.2047 99.5433 24.5063C99.6637 24.4308 99.8103 24.3786 99.9516 24.3552C100.428 24.2718 100.496 24.4282 100.504 24.78C100.525 25.7155 100.446 26.6536 100.598 27.584C100.873 29.2439 101.14 30.9065 101.404 32.5691C101.556 33.5333 101.684 34.5027 101.847 35.4643C102.035 36.5745 102.357 37.6586 102.737 38.7087C103.297 40.2671 104.37 41.1062 106.116 41.2522C106.385 41.2756 106.655 41.3069 106.924 41.3434C107.21 41.3825 107.495 41.4059 107.888 41.3095C107.398 40.9733 107.011 40.6189 106.555 40.4183C106.144 40.2358 105.98 39.9388 105.912 39.5713C105.807 39.0006 105.815 38.4091 105.535 37.8775C105.516 37.8436 105.503 37.7862 105.519 37.7576C105.778 37.2989 105.537 36.783 105.694 36.3061C105.836 35.8709 105.898 35.4357 105.757 34.964C105.658 34.6357 105.741 34.263 105.849 33.919C106.069 33.2024 106.278 32.4831 106.498 31.7691C106.71 31.0733 106.932 30.3801 106.875 29.6322C106.849 29.2935 106.972 28.9781 107.105 28.668C107.623 27.4641 108.422 26.5051 109.568 25.8432C110.037 25.5722 110.518 25.309 110.953 24.9884C111.612 24.5037 112.35 24.2536 113.141 24.118C113.656 24.0294 114.167 23.9226 114.651 23.7219C115.559 23.3467 116.444 23.4353 117.308 23.8601C117.219 24.0216 117.054 24.0659 116.897 24.1207C114.507 24.9572 113.002 26.6771 112.047 28.9443C110.735 31.3261 109.914 33.8617 109.696 36.5719C109.607 37.695 109.678 38.8182 110.133 39.8788C110.453 40.6241 110.981 41.2105 111.594 41.7186C112.013 42.0652 112.416 42.0053 112.884 41.5909C113.672 40.8951 114.311 40.0717 114.868 39.1909C115.245 38.5967 115.654 38.0104 115.871 37.3276C116.797 35.824 117.347 34.1614 117.876 32.4988C118.603 30.216 119.156 27.8889 119.499 25.5122C119.506 25.4497 119.54 25.395 119.577 25.3454C119.784 25.2855 119.779 25.1031 119.805 24.9415C120.101 23.0705 120.519 21.2228 120.881 19.3648C120.949 19.0156 120.996 18.6664 120.977 18.312C120.922 17.3113 120.917 16.3106 120.97 15.3125C120.991 14.8982 120.949 14.5308 120.611 14.2363C120.417 14.0695 120.47 13.9548 120.7 13.8246C121.956 13.1157 123.173 12.347 124.359 11.5261C124.563 11.3828 124.781 11.2499 125.006 11.143C125.333 10.9893 125.451 11.0466 125.547 11.3984C125.597 11.5756 125.61 11.7685 125.613 11.9535C125.623 13.0584 125.587 14.1607 125.529 15.263C125.453 16.7615 125.385 18.2599 125.547 19.7583C125.6 20.2534 125.581 20.759 125.615 21.2567C125.642 21.6294 125.665 22.0072 125.746 22.3721C126.105 23.9565 126.27 25.5722 126.49 27.1774C126.623 28.1442 126.704 29.1163 126.979 30.0648C127.128 30.5782 127.131 31.1333 127.21 31.6675C127.524 33.7887 127.929 35.8917 128.379 37.9869C128.568 38.8599 128.885 39.7042 129.154 40.5564C129.306 41.0333 129.722 41.1922 130.149 41.3277C130.348 41.3903 130.369 41.1766 130.484 41.1036C130.853 41.4424 131.353 41.1401 131.745 41.3616L131.738 41.3746Z" fill="#3DC2C2"/>
<path d="M24.4023 25.1344C23.8448 25.3454 23.248 25.2777 22.6721 25.3428C21.989 25.4184 21.2954 25.3871 20.6096 25.494C20.3662 25.5331 20.1071 25.5174 19.8584 25.494C19.3637 25.4445 19.1596 25.163 19.2931 24.6757C19.4422 24.1337 19.67 23.6177 19.9291 23.1174C20.552 21.916 21.1645 20.7095 21.7796 19.5055C21.845 19.3752 21.8895 19.2319 21.9733 19.1146C22.4078 18.5048 22.6067 17.809 22.7454 17.0872C22.7925 16.8422 22.8344 16.5842 22.947 16.368C23.1956 15.8859 23.4757 15.5028 24.1458 15.4481C25.0095 15.3777 25.8602 15.1145 26.7135 14.9295C27.059 14.8539 27.4045 14.7653 27.75 14.6845C27.852 14.6611 27.9777 14.6715 28.051 14.6142C28.6032 14.1816 29.2524 14.2623 29.8858 14.2597C30.014 14.2597 30.1423 14.2754 30.2444 14.192C30.5742 13.9236 30.9851 13.8089 31.3384 13.5874C31.6368 13.3998 31.8907 13.1392 32.2729 13.1053C32.3435 13.1001 32.4299 13.0297 32.4718 12.9672C32.7676 12.5242 33.2151 12.4981 33.6889 12.4668C34.0684 12.4408 34.4977 12.4799 34.7568 12.076C34.817 11.9821 34.9374 11.9821 35.0447 11.9926C35.173 12.0056 35.3038 12.0082 35.4085 11.9326C36.0027 11.5157 36.7539 11.4479 37.3638 11.0675C37.4972 10.9841 37.6464 10.9971 37.7904 11.0101C38.4866 11.0727 39.0939 10.8616 39.6671 10.4785C40.0283 10.2388 40.4026 10.0147 40.8633 9.96775C41.0805 9.94429 41.2873 9.79836 41.4993 9.71236C41.672 9.642 41.8553 9.50649 42.0228 9.51952C42.8944 9.5977 43.588 9.06609 44.3732 8.86022C44.7737 8.75598 45.1742 8.85501 45.5275 8.74034C45.8625 8.6335 46.0981 8.2817 46.5012 8.23218C47.6686 8.08625 48.7705 7.70578 49.8724 7.30447C50.9691 6.90576 51.9559 6.24906 53.105 5.97804C53.2201 5.95198 53.3222 5.85816 53.4243 5.7878C53.5107 5.72787 53.5813 5.61581 53.6703 5.60018C54.5419 5.44643 55.0576 4.72458 55.7669 4.31284C55.8166 4.28417 55.882 4.27896 56.0103 4.24248C55.9422 4.8236 55.971 5.39691 55.7931 5.89986C55.4371 6.90054 55.2827 7.98462 54.7566 8.90452C54.0865 10.0772 53.9164 11.4323 53.2672 12.6024C53.1782 12.7639 53.1495 12.9568 53.0971 13.1366C52.9531 13.6395 52.7882 14.1034 52.3145 14.4343C52.0423 14.6246 51.8748 14.966 51.6366 15.2708C51.4534 15.0598 51.456 14.82 51.4036 14.6089C51.2073 13.8063 51.0948 13.7359 50.286 13.9731C49.4013 14.2311 48.5847 14.6663 47.7261 14.992C46.1478 15.5966 44.6114 16.3002 42.9965 16.8162C42.1824 17.0768 41.371 17.3295 40.5439 17.5406C40.1592 17.6397 39.7247 17.7257 39.4708 18.1035C38.4264 18.6638 37.3271 19.112 36.2356 19.5602C34.0344 20.4593 31.9221 21.546 29.7706 22.5493C27.907 23.4196 26.0172 24.2327 24.2347 25.0275C24.2347 25.0275 24.3316 25.0458 24.4023 25.1396V25.1344Z" fill="#3DC2C2"/>
<path d="M24.4023 25.1344C24.2635 25.1161 24.1274 25.0979 23.8709 25.0666C24.3761 24.8164 24.7765 24.6028 25.1901 24.4177C26.8836 23.6542 28.6032 22.9506 30.2679 22.1271C32.5869 20.9805 34.9322 19.8964 37.3245 18.914C37.7878 18.7237 38.2432 18.5153 38.6934 18.2964C38.9421 18.1739 39.1959 18.1009 39.4734 18.0983C40.5649 18.2807 41.6589 18.4527 42.7478 18.6534C43.0383 18.7081 43.3262 18.7368 43.6168 18.7394C43.8471 18.742 44.0879 18.7185 44.2083 18.9817C44.258 19.0912 44.3418 19.1329 44.4596 19.0938C44.881 18.9531 45.2919 19.0938 45.6872 19.1824C46.6425 19.3961 47.59 19.6541 48.5349 19.9016C49.4248 20.1336 50.3043 20.3759 51.1445 20.7329C51.9271 21.0665 52.7045 21.4001 53.4635 21.8014C54.7906 22.5024 55.9789 23.3597 57.0991 24.337C57.1907 24.4177 57.2902 24.5376 57.4185 24.5089C57.6331 24.462 57.7195 24.5454 57.7666 24.7383C57.8189 24.9572 57.9812 25.1422 58.1723 25.1839C58.4916 25.2516 58.5937 25.4497 58.7036 25.7103C58.8764 26.1194 59.1957 26.4373 59.5176 26.7292C59.7506 26.9403 59.8762 27.1722 59.9495 27.4641C60.2453 28.642 60.206 29.8251 59.9312 30.9925C59.536 32.6604 58.8554 34.2291 58.1618 35.7901C58.1278 35.8657 58.0702 35.9282 58.0205 35.996C57.374 36.9185 56.5076 37.6377 55.725 38.4325C55.6046 38.555 55.4685 38.7192 55.2512 38.5941C55.2408 38.5889 55.2355 38.5602 55.2381 38.5446C55.2381 38.5237 55.2512 38.5055 55.2565 38.4873C55.4685 37.5986 55.759 36.7256 55.6883 35.7901C55.6596 35.4122 55.6098 35.0552 55.458 34.7008C55.246 34.2031 55.0759 33.6897 54.89 33.1815C54.7749 32.8688 54.6571 32.5535 54.4582 32.2825C54.2304 31.9698 53.9085 31.7014 54.1912 31.2453C54.2383 31.1671 54.1807 30.9456 54.0315 30.8701C53.8954 30.8023 53.7933 30.9065 53.7122 31.0004C53.5237 31.214 53.385 31.0994 53.2594 30.9352C53.084 30.7033 52.9139 30.4635 52.7464 30.2264C52.5762 29.984 52.7254 29.6583 52.571 29.4003C52.2831 29.4629 52.4035 29.7912 52.1522 29.8954C51.9193 29.6948 51.6418 29.5019 51.4219 29.2596C51.0764 28.8791 50.6053 28.6889 50.2048 28.3918C50.053 28.2798 49.8593 28.2433 49.6683 28.2459C49.4327 28.2485 49.1814 28.212 49.0113 28.0739C48.3857 27.5631 47.5743 27.5788 46.8781 27.2843C45.9306 26.883 44.8915 26.7422 43.9728 26.2549C43.7319 26.1272 43.4493 26.1325 43.1771 26.1168C42.2636 26.0595 41.3265 26.0829 40.468 25.7337C39.8974 25.5018 39.3163 25.5748 38.7405 25.5044C38.5128 25.4758 38.2825 25.481 38.06 25.4054C37.9815 25.3793 37.8794 25.3376 37.8166 25.3663C37.0444 25.7337 36.3194 25.223 35.5551 25.249C34.6547 25.2803 33.7438 25.1735 32.8487 25.0223C32.71 24.9989 32.5608 25.0562 32.4168 25.0666C32.1891 25.0849 31.9326 25.1683 31.7363 25.0953C30.8254 24.7643 29.8701 24.9129 28.9435 24.8347C28.0431 24.7617 27.1165 24.7669 26.2057 24.9233C25.6089 25.0249 25.0043 25.0692 24.4023 25.137V25.1344Z" fill="#009AAC"/>
<path d="M55.2591 38.4846C55.4475 38.6514 55.513 38.4377 55.5941 38.357C56.2563 37.7081 56.9054 37.0488 57.565 36.3973C57.709 36.254 57.8294 36.0794 58.0257 35.9934C58.0257 36.0142 58.0335 36.0377 58.0257 36.0559C56.1778 39.8606 54.1231 43.5246 50.9141 46.4015C50.1211 47.1129 49.3254 47.8218 48.425 48.3977C48.0664 48.627 47.6921 48.8172 47.4094 49.1586C47.1503 49.4713 46.7629 49.5912 46.3938 49.745C45.3181 50.1984 44.2999 50.7691 43.2765 51.3216C42.0044 52.0069 40.6852 52.5906 39.3425 53.1066C38.8347 53.3021 38.3453 53.5314 37.8558 53.7607C37.6464 53.8597 37.4449 53.9197 37.4396 53.5627C37.437 53.3855 37.2957 53.3672 37.1674 53.4089C36.8298 53.5184 36.479 53.5731 36.1466 53.7138C35.2253 54.1073 34.2673 54.4044 33.2963 54.6493C33.0947 54.7015 32.901 54.7822 32.7178 54.5894C32.5791 54.4461 32.5084 54.5998 32.4325 54.691C32.2519 54.9047 32.0713 55.1236 31.7546 54.9073C31.3829 55.1836 31.0269 55.0402 30.65 54.8995C30.5008 54.8448 30.281 54.949 30.2129 55.0898C29.9093 55.736 29.2497 55.8246 28.7027 55.968C27.5981 56.2572 26.4674 56.4709 25.3131 56.4683C25.0775 56.4683 24.8577 56.5361 24.6483 56.6351C23.9965 56.953 23.2872 57.0208 22.5831 57.112C22.5412 57.1172 22.4968 57.1041 22.4575 57.1172C21.1435 57.5159 19.7668 57.3413 18.4319 57.555C17.9136 57.6384 17.3928 57.6566 16.8693 57.6384C16.283 57.6175 15.6967 57.6149 15.113 57.6253C13.5216 57.6566 11.9433 57.5472 10.4016 57.1406C9.00654 56.7732 7.61407 56.351 6.37865 55.5953C5.35 54.9673 4.33967 54.2897 3.43143 53.4845C2.97076 53.0754 2.68546 52.5385 2.35828 52.0304C2.24835 51.861 2.18815 51.6499 1.9552 51.53C1.84265 51.8636 1.99184 52.1059 2.15674 52.3379C2.77707 53.2004 3.43404 54.0343 4.18786 54.7875C4.37108 54.9725 4.58833 55.1393 4.64329 55.4442C4.35799 55.4624 4.19571 55.3113 4.03082 55.1549C3.13566 54.3028 2.35305 53.3516 1.64896 52.3405C0.981515 51.3841 0.714537 50.2557 0.429238 49.1456C-0.0785428 47.1599 -0.0418988 45.1428 0.0863551 43.1206C0.146556 42.1669 0.211992 41.2131 0.44756 40.2775C0.829704 38.7374 1.33748 37.2416 1.96305 35.7849C2.36613 34.8467 2.76398 33.906 3.17753 32.9757C3.43143 32.4076 3.73766 31.8681 4.33182 31.36C4.24806 32.1652 4.05961 32.8193 3.68532 33.3796C2.26144 35.5139 1.76936 37.9139 1.52332 40.4078C1.35581 42.1069 1.48668 43.7878 1.81386 45.4399C2.11224 46.9462 2.52841 48.4472 3.46022 49.7241C3.82666 50.2244 4.23759 50.6909 4.61188 51.186C4.83437 51.4805 5.28456 51.5717 5.54892 51.8766C5.64315 51.9861 5.77402 52.0642 5.87348 52.1711C6.70059 53.0284 7.73447 53.5627 8.79976 54.05C8.98822 54.136 9.17406 54.2246 9.34942 54.3418C9.7813 54.6311 10.2289 54.863 10.7838 54.8917C11.2314 54.9152 11.6999 55.0637 12.0977 55.2383C12.739 55.5197 13.4012 55.4989 14.0529 55.5927C14.8146 55.7048 15.5867 55.7621 16.3537 55.8377C16.7908 55.8794 17.2305 55.8455 17.6676 55.8507C18.2565 55.8559 18.8297 55.6162 19.4239 55.7777C19.5391 55.809 19.7013 55.8168 19.793 55.7569C20.2562 55.4546 20.8033 55.5823 21.2927 55.4337C21.3896 55.4051 21.5178 55.3738 21.599 55.4129C22.1198 55.6735 22.6538 55.5536 23.1904 55.5119C23.4443 55.4937 23.6877 55.4676 23.918 55.353C24.2347 55.194 24.5671 55.1731 24.8891 55.3139C25.2163 55.4572 25.4963 55.4155 25.7607 55.1888C25.8706 55.0924 25.9884 55.0011 26.1454 54.9959C26.9542 54.9699 27.7002 54.6936 28.4226 54.3783C29.1424 54.063 29.9433 54.0917 30.6553 53.7816C31.252 53.9953 31.6918 53.6174 32.1708 53.3829C32.2833 53.3281 32.422 53.2421 32.5215 53.2682C33.0633 53.4193 33.3172 53.0232 33.6051 52.7157C33.9009 52.4004 34.1888 52.0721 34.3354 51.5639C34.0082 51.6395 33.7098 51.801 33.469 51.7411C33.0319 51.6317 32.7021 51.8141 32.3278 51.9339C31.7965 52.1033 31.7494 52.0434 31.8724 51.444C32.0582 51.3606 32.1524 51.6186 32.3278 51.5665C32.566 51.3476 32.4404 50.9176 32.7492 50.7691C33.0057 50.6466 33.3067 50.5789 33.592 50.5554C34.5657 50.4746 35.3745 49.8414 36.3456 49.7632C37.9003 49.0726 39.565 48.6817 41.1407 48.0302C42.1248 47.6237 43.0069 47.0035 44.0198 46.709C44.6978 46.511 45.2945 46.1878 45.8835 45.8491C46.4881 45.4999 47.1084 45.1559 47.5691 44.6008C47.6973 44.4445 47.891 44.335 48.0664 44.2282C48.9406 43.6965 49.8148 43.1545 50.6472 42.5708C51.7727 41.7838 52.8982 40.9759 53.8666 39.9857C54.1283 39.7173 54.4006 39.4567 54.6885 39.2143C54.9319 39.0084 55.1125 38.7661 55.2512 38.4846H55.2591Z" fill="#3DC2C2"/>
<path d="M82.2945 42.8939C82.0249 43.3109 81.6244 43.5715 81.1952 43.793C79.8786 44.4731 78.5071 44.7989 77.0204 44.4757C76.4419 44.3506 76.0179 44.0979 75.8347 43.5063C75.7352 43.1858 75.5755 42.8783 75.3164 42.662C74.9264 42.3414 74.8427 41.9115 74.7354 41.458C74.539 40.6319 74.3977 39.7954 74.2616 38.9589C74.2119 38.654 74.1019 38.5628 73.8114 38.6488C73.4293 38.7635 73.0602 38.8886 72.7618 39.1778C72.3535 39.5713 71.8928 39.8945 71.3903 40.1577C71.0134 40.3557 70.7307 40.6684 70.4375 40.9629C69.9743 41.4294 69.4429 41.776 68.8252 42.0105C68.32 42.2033 67.8358 42.4561 67.3411 42.6802C66.8072 42.92 66.268 43.1467 65.6634 43.1363C65.6005 43.1363 65.522 43.1206 65.4775 43.1519C64.8467 43.5871 64.1557 43.4151 63.4752 43.3682C63.3286 43.3578 63.182 43.3734 63.0355 43.3604C62.7763 43.3343 62.6559 43.4516 62.6036 43.6939C62.5617 43.8842 62.6167 44.1369 62.3314 44.1969C62.0513 44.2542 61.7791 44.2255 61.5618 44.0353C60.6353 43.2327 59.7977 42.3701 59.6328 41.0723C59.5988 40.8039 59.4993 40.5459 59.2873 40.3531C58.9837 40.0769 58.9811 39.7199 59.0701 39.3681C59.3213 38.3804 59.5386 37.3849 59.7087 36.379C59.7506 36.1341 59.8291 35.8917 59.9286 35.665C60.6615 33.9842 61.3839 32.2981 62.2973 30.7059C63.3993 28.7827 64.9593 27.2374 66.6239 25.7989C67.7939 24.7878 69.011 23.8392 70.2648 22.9323C71.0998 22.3304 71.9871 21.8248 72.9895 21.5538C73.3638 21.4522 73.6805 21.1342 74.115 21.2437C74.2145 21.4808 74.0758 21.6528 73.9344 21.7988C72.7487 23.034 71.7332 24.4047 70.7281 25.7806C70.6443 25.8927 70.5527 25.9969 70.4271 26.0569C70.5658 26.0465 70.7307 25.9969 70.7255 26.2367C70.38 26.1715 70.1653 26.3227 69.9402 26.5911C68.5268 28.2719 67.1945 30.0075 66.2601 32.0063C65.6791 33.2519 65.1477 34.5262 64.9122 35.8891C64.6661 37.3094 64.7211 38.7035 65.3257 40.0482C65.6843 40.8456 65.9801 41.0541 66.8543 41.0098C67.0846 40.9994 67.3542 41.0619 67.5348 40.9603C68.2834 40.5407 69.1445 40.3896 69.8669 39.9127C71.2882 38.9772 72.5446 37.8566 73.7119 36.6292C75.23 35.0344 76.9078 33.635 78.8526 32.577C78.9599 32.5196 79.062 32.4336 79.2347 32.4962C79.2766 33.0408 79.274 33.5959 79.1928 34.1483C79.0148 35.3445 79.0018 36.5536 78.9154 37.7576C78.8526 38.6332 79.0881 39.4931 79.1981 40.3583C79.2635 40.8717 79.308 41.3929 79.4938 41.8854C79.6038 42.1799 79.7215 42.4691 79.9205 42.7141C80.2398 43.1102 80.4885 43.1206 80.902 42.7662C81.3574 42.9434 81.86 42.6177 82.305 42.8939H82.2945Z" fill="#3DC2C2"/>
<path d="M132.984 31.988C132.989 31.6753 132.994 31.3626 133.002 31.0525C133.012 30.6746 132.879 30.3801 132.56 30.1456C132.259 29.9267 132.274 29.7313 132.583 29.5228C132.858 29.3352 133.146 29.1632 133.439 28.999C134.295 28.5195 135.174 28.0791 135.965 27.4901C136.158 27.3442 136.35 27.352 136.352 27.6309C136.36 28.4752 136.713 29.2544 136.797 30.0831C136.918 31.2427 137.185 32.3789 137.391 33.5255C137.472 33.9816 137.64 34.3672 137.944 34.7477C138.284 35.1751 138.464 35.7302 138.768 36.1992C139.315 37.0436 139.606 38.013 140.066 38.8912C140.433 39.5896 140.77 40.2984 141.103 41.0098C141.2 41.2157 141.333 41.4059 141.317 41.6535C141.312 41.729 141.336 41.8489 141.385 41.8802C141.812 42.1382 141.998 42.6125 142.357 42.9304C142.592 43.1389 142.828 43.1884 143.095 43.019C143.448 42.7949 143.812 42.5864 144.147 42.3388C144.613 41.9949 145.141 41.8203 145.691 41.6769C145.798 41.6483 145.895 41.6196 145.966 41.7291C146.029 41.8281 146.005 41.9323 145.948 42.0235C145.615 42.5577 145.238 43.0633 144.733 43.4438C143.982 44.0067 143.228 44.5774 142.446 45.0881C141.399 45.7735 140.229 46.2426 139.027 46.6048C138.328 46.8159 137.763 46.3702 137.729 45.6406C137.724 45.5389 137.718 45.4373 137.716 45.3435C137.653 45.3279 137.609 45.3018 137.575 45.3122C137.069 45.4946 137.056 45.4999 136.855 45.0308C135.886 42.7923 135.002 40.5225 134.271 38.1954C134.211 37.9999 134.206 37.781 134.017 37.6429C133.813 37.4892 133.816 37.2468 133.758 37.0331C133.426 35.7953 133.167 34.5471 132.997 33.2754C132.939 32.8402 132.957 32.4128 132.984 31.9828V31.988Z" fill="#3DC2C2"/>
<path d="M84.2863 29.7521C84.2131 29.3273 84.4303 29.0355 84.7339 28.7853C85.3307 28.2954 85.9981 27.8993 86.6106 27.4328C87.2022 26.9794 87.8591 26.6875 88.5292 26.4061C88.681 26.3409 88.8433 26.294 89.0056 26.2654C89.1731 26.2341 89.2882 26.307 89.2935 26.4973C89.2987 26.6432 89.3092 26.7891 89.3039 26.9351C89.2307 28.9599 89.605 30.9535 89.7018 32.9652C89.7803 34.5888 90.2802 36.1028 90.61 37.6586C90.7514 38.3335 90.8351 39.0084 90.9294 39.6886C91.0707 40.7023 91.5078 41.5049 92.5443 41.8593C92.8924 41.8854 93.2484 41.617 93.5887 41.8932C93.2091 42.4717 92.6281 42.8079 92.0418 43.118C90.8142 43.7669 89.4872 44.1135 88.1287 44.3585C87.8722 44.4054 87.6236 44.3506 87.4194 44.1865C87.2519 44.0509 87.0137 43.9337 87.1289 43.6366C87.1393 43.6079 87.1184 43.5376 87.1001 43.5324C86.5556 43.3734 86.663 42.8705 86.574 42.4978C86.4614 42.0261 86.2834 41.5883 86.0374 41.1766C85.6396 40.5095 85.3124 39.8215 85.2705 39.0293C85.2705 38.9824 85.1972 38.9381 85.1606 38.8938C84.8753 38.0156 84.8988 37.0957 84.7889 36.194C84.5559 34.3203 84.2811 32.4519 84.2706 30.5574C84.2706 30.2889 84.3204 30.0231 84.2837 29.7573L84.2863 29.7521Z" fill="#3DC2C2"/>
<path d="M70.715 26.2341C70.6443 26.1194 70.4977 26.1246 70.3538 26.023C70.8066 25.408 71.2332 24.8034 71.6887 24.2197C72.3744 23.3389 73.0497 22.4476 73.8507 21.6632C73.9632 21.5512 74.0234 21.3844 74.1072 21.2437C75.5598 21.1655 76.9288 21.4313 78.1747 22.2157C78.8552 22.6431 79.3342 23.232 79.5776 23.993C79.8524 24.8529 79.9545 25.7259 79.787 26.6354C79.5985 27.6569 79.4232 28.6837 79.3682 29.7208C79.3551 29.9919 79.2399 30.13 79.0227 30.2524C78.46 30.5678 77.9051 30.9013 77.3449 31.2245C76.7298 31.5815 76.1671 32.0141 75.5808 32.4128C75.0939 32.7437 75.0259 32.6656 74.8401 32.1313C74.6097 31.4642 74.5993 30.7945 74.594 30.1117C74.5914 29.6817 74.4239 29.3039 74.1569 28.9677C74.0156 28.7879 73.8507 28.6211 73.7303 28.4309C73.0131 27.3025 71.9818 26.6119 70.715 26.2367V26.2341Z" fill="#009AAC"/>
<path d="M65.9199 54.9282C65.9932 55.2044 65.857 55.4103 65.7864 55.6188C64.7237 58.686 63.6453 61.7506 62.5931 64.8204C62.4361 65.279 62.2188 65.6386 61.8 65.8888C61.499 66.066 61.2216 66.2823 60.8761 66.5168C59.9129 63.5096 58.9706 60.5648 58.0048 57.555C57.7875 57.8885 57.7456 58.2091 57.6593 58.5088C57.0363 60.7108 56.4134 62.9128 55.8061 65.12C55.7355 65.378 55.6281 65.5709 55.4031 65.7168C55.0235 65.9644 54.6545 66.2302 54.2278 66.5246C53.8771 65.5396 53.5525 64.6223 53.2254 63.7076C52.3223 61.1799 51.4167 58.6495 50.5137 56.1217C50.3252 55.5953 50.3252 55.5875 50.7859 55.2722C51.1079 55.0507 51.401 54.7822 51.8172 54.5972C52.8929 57.6097 53.953 60.5831 55.0392 63.6242C55.1884 63.4444 55.2224 63.2985 55.2643 63.1499C55.9213 60.7837 56.5914 58.4228 57.23 56.0513C57.3242 55.6969 57.4891 55.4598 57.7875 55.2722C58.1199 55.0637 58.4366 54.8318 58.8397 54.5581C59.8213 57.6149 60.7845 60.6065 61.7451 63.5956C61.7843 63.5956 61.8236 63.5904 61.8655 63.5877C62.0461 63.0874 62.2319 62.5897 62.4047 62.0867C63.1375 59.9629 63.8704 57.8364 64.6007 55.71C64.8066 55.1141 65.2454 54.85 65.9173 54.9178L65.9199 54.9282Z" fill="#3DC2C2"/>
<path d="M112.028 28.8557C111.905 28.6915 111.989 28.543 112.068 28.397C113.039 26.5885 114.29 25.0562 116.235 24.2014C116.58 24.0503 116.939 23.9617 117.3 23.8653C118.164 24.1988 118.991 24.5871 119.567 25.3533C119.797 25.7207 119.593 26.0986 119.53 26.44C118.959 29.5019 118.195 32.5144 117.015 35.407C116.787 35.9647 116.52 36.5067 116.263 37.054C116.195 37.1973 116.143 37.3771 115.926 37.3719C115.672 37.2286 115.654 36.9654 115.609 36.7256C115.371 35.3601 114.952 34.0233 114.976 32.6134C114.984 32.1548 114.792 31.7378 114.497 31.3574C113.842 30.5209 113.238 29.6427 112.248 29.1449C112.136 29.0902 112.049 28.9912 112.028 28.8583V28.8557Z" fill="#009AAC"/>
<path d="M139.174 22.8907C138.865 23.2294 138.991 23.6542 138.878 24.0295C138.794 24.3031 138.559 24.3943 138.31 24.462C137.593 24.6575 137.588 24.6575 137.52 25.4158C137.504 25.6087 137.457 25.7833 137.355 25.9448C137.069 26.3957 136.876 26.4426 136.454 26.1142C136.237 25.9448 136.004 25.825 135.748 25.7233C135.261 25.5305 134.813 25.2621 134.386 24.9572C133.774 24.522 133.114 24.1597 132.463 23.7845C132.096 23.576 131.735 23.4718 131.382 23.8314C131.246 23.9695 131.055 23.9825 130.853 23.9356C130.468 23.8418 130.348 23.5864 130.56 23.2555C131.243 22.187 131.884 21.0978 132.51 19.9954C132.735 19.5967 132.989 19.2137 133.248 18.8384C133.413 18.5987 133.625 18.3954 133.863 18.2208C134.036 18.0931 134.195 18.0384 134.313 18.2885C134.376 18.4241 134.475 18.5361 134.614 18.5961C135.185 18.8384 135.604 19.284 136.075 19.6619C136.323 19.8599 136.548 20.0684 136.651 20.3811C136.698 20.5218 136.776 20.66 136.907 20.7277C137.431 20.9961 137.826 21.4417 138.323 21.744C138.765 22.0124 138.87 22.4998 139.174 22.8933V22.8907Z" fill="#3DC2C2"/>
<path d="M111.065 80C110.573 78.8664 110.115 77.7954 109.647 76.7295C109.49 76.3699 109.437 75.9034 109.113 75.7002C108.812 75.5151 108.377 75.6454 108.003 75.6428C107.123 75.635 106.247 75.6376 105.367 75.6428C104.846 75.6428 104.844 75.6454 104.653 76.138C104.283 77.0891 103.917 78.0429 103.548 78.9941C103.368 79.4597 103.024 79.6812 102.514 79.6586C102.436 79.656 102.354 79.6325 102.265 79.6169C102.273 79.3198 102.412 79.0827 102.509 78.8351C103.679 75.8487 104.862 72.8675 106.016 69.8733C106.236 69.3052 106.542 68.8726 107.068 68.5416C107.801 68.0804 107.783 68.0491 108.134 68.857C109.542 72.0857 110.947 75.3119 112.353 78.5407C112.544 78.9785 112.544 78.9837 112.172 79.2443C111.832 79.484 111.487 79.7159 111.068 80.0026L111.065 80Z" fill="#3DC2C2"/>
<path d="M132.306 78.8299C131.706 79.3172 131.162 79.7602 130.311 79.6769C129.484 79.5961 128.641 79.6586 127.806 79.6586C127.066 79.6586 127.115 79.6977 127.115 78.9941C127.115 77.9543 127.115 76.9119 127.115 75.8722C127.115 73.2506 127.115 70.6264 127.115 68.0048C127.115 67.8589 127.123 67.7129 127.115 67.567C127.102 67.3195 127.23 67.2569 127.458 67.2387C128.72 67.137 128.717 67.1318 128.717 68.4009V77.7016C128.717 77.8266 128.717 77.9517 128.717 78.0768C128.72 78.7309 128.72 78.7335 129.353 78.7361C130.167 78.7361 130.984 78.7335 131.798 78.7413C131.952 78.7413 132.122 78.6892 132.308 78.8273L132.306 78.8299Z" fill="#3EC2C2"/>
<path d="M93.5913 41.8906C93.4238 41.8646 93.272 41.9167 93.1123 41.961C92.916 42.0131 92.7066 42.0496 92.5469 41.8567C93.1149 40.9004 93.4918 39.8736 93.7248 38.7921C93.9211 37.8801 94.298 37.0123 94.3765 36.0741C94.3844 35.9699 94.4236 35.8683 94.4184 35.7666C94.3739 34.5835 94.7874 33.4864 95.0858 32.3711C95.3188 31.5033 95.358 30.6095 95.4444 29.7234C95.5334 28.8166 95.5622 27.9019 95.7114 27.0002C95.8056 27.0576 95.8763 27.1514 95.8815 27.2504C95.9129 27.8836 96.159 28.5013 96.0124 29.1475C95.981 29.2883 95.9444 29.4394 95.9653 29.5749C96.07 30.2525 96.036 30.9378 96.1171 31.6128C96.2061 32.3502 96.2427 33.0903 96.3291 33.8278C96.4495 34.8311 96.5464 35.8344 96.6825 36.8351C96.727 37.1582 96.6589 37.4475 96.5804 37.7472C96.3396 38.2579 96.0333 38.7296 95.7036 39.1856C95.1513 39.944 94.5859 40.6919 94.0179 41.4398C93.8923 41.604 93.7352 41.7421 93.5913 41.8932V41.8906Z" fill="#009AAC"/>
<path d="M89.2385 78.6814C88.6888 79.6951 87.3173 80.0756 86.3855 79.802C85.2862 79.4788 84.4591 78.5198 84.3989 77.3393C84.3518 76.4246 84.3779 75.5073 84.3727 74.5927C84.3727 74.134 84.3727 73.678 84.3727 73.2193C84.3727 72.7659 84.145 72.5366 83.6896 72.5314C83.5456 72.5314 83.399 72.5314 83.2367 72.5314C83.4697 72.1769 85.2155 70.9235 85.8699 70.6264C85.9458 70.7124 85.9275 70.8193 85.9248 70.9183C85.9091 71.6505 85.9196 71.6115 86.6682 71.6115C87.2964 71.6115 87.9219 71.6115 88.5501 71.6115C88.6862 71.6115 88.8223 71.6271 89.0788 71.6427C88.4088 72.1848 87.8774 72.6278 87.0215 72.56C85.9353 72.4766 85.9301 72.5392 85.9301 73.6337C85.9301 74.4467 85.9301 75.2572 85.9301 76.0702C85.9301 76.6383 86.0348 77.1908 86.2782 77.7042C86.7441 78.6788 87.6183 79.0697 88.6627 78.8013C88.8407 78.757 89.0003 78.6319 89.2411 78.6814H89.2385Z" fill="#3DC2C2"/>
<path d="M84.2863 29.7521C84.3701 29.8277 84.3963 29.9267 84.3936 30.0336C84.3439 31.261 84.5821 32.4649 84.6737 33.6819C84.7679 34.9353 85.014 36.1758 85.1213 37.4292C85.1632 37.9087 85.3464 38.4013 85.1632 38.8912C84.4486 40.0925 83.6058 41.2079 82.818 42.3623C82.6766 42.5682 82.5013 42.7506 82.2945 42.8939C81.9176 42.8574 81.5695 43.0633 81.1847 43.0086C81.0172 42.9851 80.9072 42.946 80.8915 42.7636C81.6296 41.6196 82.1243 40.3661 82.5222 39.0736C83.0117 37.4892 83.5063 35.8995 83.8021 34.2708C84.0246 33.0304 84.0508 31.7561 84.1659 30.4948C84.2863 30.2968 84.1424 30.057 84.268 29.859C84.2602 29.8199 84.268 29.7834 84.2863 29.7495V29.7521Z" fill="#009AAC"/>
<path d="M75.3714 66.1416C74.895 66.2015 74.3113 66.35 73.9711 66.0973C73.6308 65.8445 73.8533 65.2399 73.8507 64.7917C73.8376 61.5916 73.8507 58.3941 73.835 55.194C73.835 54.7666 73.9606 54.493 74.3192 54.2767C74.6385 54.0838 74.9317 53.8467 75.2379 53.6278C75.4813 53.6226 75.4211 53.8102 75.4211 53.9379C75.4211 57.9667 75.4316 61.9955 75.4159 66.0243C75.4159 66.0634 75.3871 66.1025 75.374 66.1416H75.3714Z" fill="#3DC2C2"/>
<path d="M140.653 75.3901C140.671 75.3796 140.689 75.3692 140.705 75.3562C141.333 74.7699 142.061 74.5353 142.93 74.6135C143.608 74.6734 143.644 74.5744 143.406 73.9203C142.911 72.5626 141.582 71.9737 140.137 72.4818C139.922 72.5574 139.718 72.6512 139.446 72.7633C139.493 72.5444 139.624 72.4558 139.731 72.3541C140.76 71.3821 142.364 71.0876 143.574 71.6479C144.579 72.1144 145.139 72.9222 145.17 74.0011C145.223 75.7497 145.181 77.4983 145.196 79.2469C145.199 79.5856 145.063 79.6847 144.754 79.6638C144.526 79.6482 144.293 79.643 144.066 79.6638C143.72 79.6951 143.644 79.5283 143.644 79.2208C143.644 78.9863 143.746 78.7231 143.54 78.512C143.524 78.4807 143.511 78.4468 143.495 78.4156C143.461 77.7745 143.503 77.1334 143.487 76.4924C143.482 76.2657 143.511 76.0337 143.369 75.8331C142.951 75.5464 142.485 75.7367 142.042 75.695C141.736 75.6663 141.422 75.7054 141.113 75.6767C140.92 75.6585 140.679 75.6845 140.653 75.3875V75.3901Z" fill="#3DC2C2"/>
<path d="M121.077 75.3979C121.111 75.3744 121.153 75.3588 121.182 75.3301C121.812 74.7386 122.55 74.491 123.412 74.6213C123.472 74.6317 123.537 74.6265 123.6 74.6213C123.972 74.6005 124.021 74.5327 123.935 74.1575C123.652 72.8988 122.412 72.1014 121.14 72.3385C120.71 72.4193 120.315 72.5939 119.86 72.7685C120.849 71.2961 123.482 70.7958 124.854 72.2134C125.275 72.6486 125.519 73.162 125.605 73.7561C125.663 75.7184 125.707 77.6781 125.581 79.6378C125.189 79.643 124.799 79.6456 124.406 79.6586C124.168 79.6664 124.092 79.557 124.074 79.3277C124.053 79.054 124.199 78.7491 123.951 78.512C123.935 78.4807 123.922 78.4469 123.906 78.4156C123.875 77.7745 123.914 77.1335 123.898 76.495C123.893 76.2683 123.922 76.0364 123.783 75.8357C123.391 75.549 122.943 75.7341 122.524 75.6976C122.197 75.6689 121.865 75.708 121.538 75.6793C121.346 75.6637 121.103 75.6976 121.079 75.3979H121.077Z" fill="#3DC2C2"/>
<path d="M132.984 31.988C133.07 32.0558 133.109 32.1496 133.112 32.2564C133.156 33.8278 133.515 35.3471 133.9 36.8585C133.968 37.1217 133.999 37.3823 134.017 37.6481C133.635 38.3778 133.366 39.1596 133.015 39.9075C132.719 40.5381 132.238 40.9499 131.738 41.3773C131.463 41.3512 131.219 41.518 130.942 41.5023C130.678 41.4867 130.497 41.4085 130.476 41.1193C131.068 39.3264 131.374 37.4631 131.853 35.6442C132.101 34.7034 132.327 33.7575 132.57 32.8141C132.649 32.5118 132.8 32.2408 132.984 31.988Z" fill="#009AAC"/>
<path d="M95.714 59.2749C96.1799 58.6573 96.7793 58.2247 97.5201 57.9928C99.1481 57.4846 100.601 58.4592 100.719 60.1557C100.758 60.7368 100.734 61.3206 100.737 61.9043C100.737 63.1734 100.742 64.4451 100.737 65.7142C100.737 66.1572 100.721 66.1754 100.281 66.1728C98.978 66.1676 99.2109 66.3188 99.1978 65.1487C99.1847 63.9838 99.1926 62.8164 99.1952 61.6515C99.1952 61.1486 99.1376 60.6534 98.9701 60.1766C98.5278 58.9048 97.4468 58.4592 96.2244 59.0325C96.0543 59.1107 95.8842 59.1863 95.7114 59.2619L95.7193 59.2723L95.714 59.2749Z" fill="#3DC2C2"/>
<path d="M104.147 66.1155C104.14 64.5963 104.132 63.077 104.129 61.5577C104.129 61.1382 104.1 60.7264 103.98 60.3251C103.844 59.8769 103.629 59.4756 103.257 59.1785C102.789 58.8032 102.263 58.6599 101.674 58.8527C101.423 58.9361 101.174 59.0299 100.891 59.1316C101.472 58.2039 102.828 57.6905 103.859 57.9094C104.948 58.1413 105.6 59.1159 105.645 59.9915C105.731 61.9434 105.66 63.8926 105.681 65.8445C105.681 66.0217 105.671 66.2015 105.435 66.1911C105.006 66.1728 104.566 66.2823 104.145 66.1155H104.147Z" fill="#3DC2C2"/>
<path d="M28.3703 6.07968C28.3441 5.98587 28.331 5.96502 28.3336 5.94678C28.4907 4.99561 28.4907 4.99821 29.4068 4.6855C33.7124 3.20793 38.0155 1.71993 42.2871 0.151148C42.4206 0.101635 42.562 0.067758 42.7792 0.00260925C42.5018 0.67755 42.2295 1.17529 41.5019 1.44109C37.3062 2.98121 33.1 4.49005 28.8676 5.92332C28.7105 5.97544 28.5509 6.02235 28.3677 6.07968H28.3703Z" fill="#3EC2C2"/>
<path d="M89.338 23.3858C90.9896 22.5805 92.7354 22.002 94.1776 20.8554C94.0991 20.6391 93.9368 20.6469 93.8059 20.6339C93.4499 20.5974 93.1097 20.4958 92.7773 20.3733C91.7538 19.998 91.3822 19.3544 91.5602 18.2833C91.7329 17.2566 92.8244 16.2846 93.8687 16.1986C94.51 16.1465 94.9523 16.4097 95.2534 16.9595C95.6617 17.71 95.6538 18.5205 95.591 19.3335C95.5491 19.8964 95.5308 19.8938 96.0726 20.1023C95.9915 20.3889 95.7664 20.5844 95.6119 20.8215C95.5203 20.9622 95.3999 21.03 95.2429 20.9466C94.9942 20.8163 94.8633 20.9701 94.7168 21.1316C93.662 22.2939 92.293 22.9532 90.8561 23.4874C90.3535 23.675 89.8536 23.4509 89.338 23.3806V23.3858Z" fill="#3EC2C2"/>
<path d="M71.9975 65.0627C71.1338 66.1859 69.3278 66.6602 67.828 66.1807C66.2392 65.6751 65.2367 64.4477 65.1582 62.9154C65.0771 61.3284 65.8518 59.9629 67.1972 59.3948C66.2968 61.0365 66.1397 62.6496 67.4537 64.0855C68.6917 65.438 70.2491 65.7194 71.9975 65.0601V65.0627Z" fill="#3EC2C2"/>
<path d="M108.251 62.376C108.296 63.3063 108.817 63.9786 109.505 64.5129C110.573 65.3442 111.782 65.61 113.109 65.2295C113.227 65.1956 113.335 65.1096 113.468 65.1696C112.824 66.1181 111.144 66.5924 109.678 66.2458C108.128 65.8784 106.966 64.6432 106.773 63.1578C106.563 61.5499 107.338 60.1297 108.987 59.2462C108.84 59.4599 108.746 59.5798 108.673 59.7101C108.204 60.5492 107.943 61.4222 108.262 62.3838L108.254 62.376H108.251Z" fill="#3EC2C2"/>
<path d="M78.8709 59.4052C77.9809 60.8489 77.803 62.2926 78.7688 63.6764C79.9493 65.3676 81.6349 65.6777 83.5613 65.1253C83.5011 65.378 83.3126 65.4536 83.1661 65.5526C81.3705 66.7905 79.1562 66.5794 77.7846 65.1435C76.1383 63.4184 76.5728 60.5675 78.672 59.4182C78.7034 59.4 78.7505 59.413 78.8709 59.4052Z" fill="#3EC2C2"/>
<path d="M90.61 65.1357C89.7411 66.2354 88.0947 66.6471 86.6551 66.1598C85.2155 65.6725 84.1764 64.3044 84.1372 62.8346C84.0927 61.2059 84.891 59.8378 86.2206 59.3166C85.281 60.8228 85.1213 62.3577 86.184 63.8118C87.2781 65.3103 88.804 65.6907 90.61 65.1331V65.1357Z" fill="#3EC2C2"/>
<path d="M91.8114 72.5756C92.7066 71.4577 94.476 71.0876 95.8292 71.588C97.2845 72.1248 98.2582 73.459 98.3053 75.033C98.3393 76.2422 97.6535 77.8006 96.2009 78.4104C97.1615 76.852 97.2819 75.3249 96.2087 73.8838C95.1251 72.4245 93.6227 72.0883 91.8114 72.5782V72.5756Z" fill="#3EC2C2"/>
<path d="M90.8273 64.995C91.869 63.4053 91.9476 61.8965 90.9084 60.4085C89.9792 59.0742 88.4899 58.6416 86.5452 59.0847C87.1995 58.0918 88.9768 57.6722 90.1808 58.0058C91.6387 58.4097 92.8192 59.7153 92.95 61.1486C93.1071 62.8581 92.3559 64.2705 90.8273 64.9976V64.995Z" fill="#3EC2C2"/>
<path d="M91.5602 72.7529C90.5865 74.2982 90.4425 75.7914 91.4502 77.2273C92.5312 78.77 94.0677 79.1609 95.9077 78.6215C95.2586 79.5231 93.5258 80.1694 92.0313 79.6612C90.6179 79.1817 89.5657 77.884 89.4348 76.4429C89.2856 74.7959 90.2986 73.2688 91.5602 72.7529Z" fill="#3EC2C2"/>
<path d="M95.7088 59.2645C95.5334 59.4834 95.591 59.7414 95.591 59.9863C95.5858 61.8574 95.591 63.7285 95.5884 65.5995C95.5884 66.1702 95.5805 66.1781 94.9969 66.1755C94.6854 66.1755 94.3713 66.2145 94.0624 66.139C93.9551 65.5839 94.0179 65.0236 94.0153 64.466C94.0049 62.5584 94.0101 60.6482 94.0153 58.7407C94.0153 58.54 93.9499 58.3237 94.086 58.1361C94.4812 58.1309 94.8738 58.1309 95.2691 58.1179C95.5125 58.11 95.5779 58.2247 95.5989 58.4514C95.6224 58.7251 95.468 59.0299 95.7193 59.2697L95.714 59.2593L95.7088 59.2645Z" fill="#3DC2C2"/>
<path d="M137.512 79.6404C137.179 79.6482 136.847 79.6612 136.514 79.6586C136.033 79.6534 136.025 79.6482 136.022 79.1817C136.017 78.3113 136.017 77.441 136.022 76.5732C136.028 74.9366 136.038 73.3027 136.046 71.6662C136.535 71.5072 137.027 71.5672 137.52 71.6375C137.624 71.833 137.575 72.0466 137.575 72.2499C137.577 74.5119 137.58 76.7712 137.575 79.0332C137.575 79.2365 137.629 79.4501 137.514 79.643L137.512 79.6404Z" fill="#3DC2C2"/>
<path d="M115.41 79.6378C115.033 79.6456 114.659 79.6378 114.282 79.6612C113.973 79.6795 113.882 79.5414 113.895 79.2547C113.91 78.8821 113.897 78.5068 113.897 78.1315C113.897 76.1328 113.897 74.134 113.897 72.1379C113.897 71.6245 113.905 71.6193 114.413 71.6167C114.745 71.6167 115.08 71.6323 115.413 71.6401C115.546 72.1483 115.47 72.6643 115.47 73.1776C115.47 75.1295 115.47 77.0813 115.47 79.0306C115.47 79.2339 115.528 79.4475 115.408 79.6378H115.41Z" fill="#3DC2C2"/>
<path d="M66.7522 62.2769C67.0872 62.0424 67.4249 61.8053 67.7599 61.5707C67.9274 61.4535 68.1237 61.4952 68.307 61.4926C69.1629 61.4873 70.0188 61.4926 70.8747 61.4899C71.3667 61.4873 71.4086 61.4222 71.2882 60.9375C70.9401 59.5303 69.6157 58.6938 68.1944 58.9804C68.0138 59.0169 67.8332 59.0534 67.561 59.1081C68.2494 58.2638 69.0817 57.8807 70.0632 57.9433C71.1573 58.0136 72.0001 58.5504 72.4687 59.5746C72.5629 59.7804 72.6336 60.0046 72.6754 60.2261C72.8089 60.9427 72.7461 61.5421 71.9949 61.9747C71.5054 62.2561 71.0552 62.4333 70.4873 62.4203C69.2571 62.389 68.0269 62.4098 66.7993 62.4098C66.7836 62.3655 66.7679 62.3186 66.7522 62.2743V62.2769Z" fill="#3DC2C2"/>
<path d="M129.005 72.4897C129.806 71.4759 131.382 71.1111 132.607 71.6271C133.599 72.044 134.206 72.7998 134.52 73.8057C135.046 75.4839 134.496 77.2638 133.117 78.34C133.025 78.413 132.942 78.5198 132.727 78.4677C132.973 77.9621 133.227 77.4722 133.308 76.9172C133.47 75.8305 133.345 74.7985 132.766 73.85C132.054 72.6851 130.832 72.1717 129.484 72.448C129.343 72.4766 129.207 72.5418 129.005 72.4897Z" fill="#3EC2C2"/>
<path d="M108.257 62.3864C108.592 62.1414 108.927 61.8965 109.259 61.6463C109.458 61.4978 109.681 61.49 109.914 61.49C110.707 61.4926 111.502 61.4952 112.295 61.49C112.502 61.49 112.712 61.529 112.965 61.4274C112.89 60.5127 112.513 59.7778 111.701 59.2879C110.919 58.8189 110.089 58.8267 109.228 59.0768C109.966 58.2117 110.874 57.8051 112 57.9928C113.054 58.17 113.769 58.7798 114.164 59.7674C114.355 60.2495 114.313 60.7473 114.293 61.2476C114.29 61.3075 114.287 61.3935 114.251 61.4248C113.779 61.8235 113.342 62.3708 112.698 62.3916C111.217 62.4359 109.733 62.4542 108.251 62.376L108.259 62.3838L108.257 62.3864Z" fill="#3DC2C2"/>
<path d="M109.332 50.988C109.275 50.3104 109.539 50.0134 110.136 49.8153C113.738 48.614 117.321 47.3553 120.888 46.0549C121.077 45.9872 121.257 45.8543 121.53 45.909C121.336 46.4276 121.114 46.8211 120.522 47.0374C116.918 48.3612 113.308 49.6642 109.668 50.8837C109.571 50.915 109.471 50.9437 109.33 50.9854L109.332 50.988Z" fill="#3FC2C2"/>
<path d="M123.951 78.512C123.388 79.557 121.404 80.0469 120.229 79.3068C118.972 78.5146 118.839 76.9537 119.985 76.0129C120.195 75.8409 120.415 75.6846 120.692 75.6324C120.771 75.7054 120.797 75.7966 120.802 75.8983C120.802 75.9399 120.802 75.9816 120.794 76.0207C120.559 77.8267 121.606 78.8013 123.427 78.4781C123.605 78.4469 123.794 78.3635 123.959 78.5198L123.951 78.512Z" fill="#3EC2C2"/>
<path d="M143.54 78.512C142.836 79.5466 141.26 79.9166 140.166 79.5023C139.284 79.1661 138.734 78.3765 138.763 77.4853C138.789 76.6201 139.336 75.953 140.278 75.6403C140.323 75.6872 140.352 75.7445 140.359 75.8096C140.359 76.2162 140.15 76.5992 140.268 77.0292C140.556 78.0612 141.634 78.7387 142.715 78.5537C142.987 78.5068 143.26 78.314 143.545 78.5198L143.54 78.512Z" fill="#3DC2C2"/>
<path d="M83.6686 58.4775C83.2865 58.7485 82.9148 59.0117 82.5458 59.2749C82.4306 59.3583 82.3233 59.3557 82.1976 59.2905C81.326 58.8397 80.4125 58.7511 79.4441 59.0404C79.9676 57.813 82.4175 57.4872 83.6686 58.4749V58.4775Z" fill="#3FC3C3"/>
<path d="M115.669 72.3932C116.313 71.6375 117.098 71.2675 118.109 71.4968C118.556 71.5984 118.907 71.833 119.192 72.2239C118.836 72.5991 118.378 72.818 117.994 73.1255C117.81 73.2741 117.708 73.1594 117.575 73.0369C117.028 72.5288 116.397 72.3542 115.677 72.6278C115.596 72.5522 115.593 72.474 115.669 72.3959V72.3932Z" fill="#3FC3C3"/>
<path d="M135.454 68.9794C135.881 68.6772 136.224 68.4478 136.554 68.1977C136.758 68.0413 136.92 68.083 137.114 68.2133C137.423 68.4218 137.745 68.6094 138.098 68.8309C137.763 69.2296 137.321 69.4537 136.928 69.7352C136.81 69.8186 136.69 69.756 136.583 69.6883C136.234 69.4694 135.886 69.2505 135.46 68.982L135.454 68.9794Z" fill="#3FC3C3"/>
<path d="M75.3708 66.1416C75.3682 62.204 75.3656 58.269 75.3552 54.3314C75.3552 54.0969 75.4594 53.8285 75.2353 53.6278C75.3239 53.5366 75.4281 53.5131 75.4594 53.6565C75.4933 53.8154 75.4855 53.9848 75.4855 54.1516C75.4855 57.9302 75.4855 61.7088 75.4829 65.4901C75.4829 65.709 75.5636 65.9513 75.3734 66.1416H75.3708Z" fill="#B6E8E8"/>
<path d="M115.668 72.3932C115.668 72.4714 115.673 72.5496 115.676 72.6252C115.467 72.831 115.546 73.0942 115.546 73.334C115.54 75.2233 115.546 77.1126 115.538 79.0019C115.538 79.2156 115.639 79.4632 115.413 79.6378C115.413 76.9719 115.418 74.3034 115.421 71.6375C115.572 71.7287 115.533 71.8799 115.543 72.0154C115.553 72.1509 115.517 72.3046 115.671 72.3906L115.668 72.3932Z" fill="#9DE0E0"/>
<path d="M137.512 79.6404C137.512 76.9719 137.517 74.306 137.52 71.6375C137.71 71.773 137.637 71.9789 137.639 72.1535C137.645 74.478 137.645 76.8051 137.639 79.1296C137.639 79.3042 137.718 79.5101 137.514 79.6404H137.512Z" fill="#8BDBDB"/>
<path d="M94.0827 58.1387C94.0775 60.5336 94.0749 62.931 94.0697 65.3259C94.0697 65.5969 94.0645 65.8679 94.0592 66.139C93.8794 65.9722 93.9498 65.7507 93.9472 65.5526C93.942 63.2724 93.942 60.9922 93.9472 58.7094C93.9472 58.514 93.8612 58.2872 94.0801 58.1387H94.0827Z" fill="#B6E8E8"/>
<path d="M104.147 66.1155C104.503 66.1207 104.859 66.1155 105.213 66.1338C105.501 66.1468 105.637 66.04 105.624 65.7403C105.611 65.365 105.621 64.9898 105.624 64.6145C105.631 63.0744 105.637 61.5317 105.645 59.9915C105.781 60.1505 105.747 60.3433 105.747 60.5258C105.747 62.2431 105.749 63.963 105.747 65.6803C105.747 66.2484 105.736 66.2719 105.145 66.2458C104.812 66.2302 104.446 66.4074 104.147 66.1155Z" fill="#8ADADA"/>
<path d="M125.602 73.7562C125.727 73.8917 125.709 74.0637 125.709 74.2278C125.709 75.8826 125.709 77.5374 125.709 79.1922C125.709 79.3485 125.761 79.5309 125.581 79.6404" fill="#9FE0E0"/>
<path d="M120.69 75.8904C120.69 75.8044 120.69 75.7184 120.69 75.6324C120.792 75.51 120.936 75.4578 121.077 75.3979C121.237 75.5933 121.459 75.5073 121.653 75.5126C122.289 75.523 122.927 75.5126 123.563 75.5204C123.734 75.523 123.943 75.4396 124.061 75.6559C123.878 75.8279 123.645 75.8253 123.417 75.8279C122.509 75.8435 121.598 75.8044 120.69 75.893V75.8904Z" fill="#9FE0E0"/>
<path d="M140.286 75.7732C140.284 75.7288 140.281 75.6872 140.278 75.6429C140.367 75.5047 140.511 75.4526 140.653 75.3901C140.81 75.5907 141.032 75.5099 141.228 75.5126C141.888 75.523 142.548 75.5126 143.207 75.5204C143.359 75.5204 143.547 75.4578 143.634 75.6663C143.469 75.8201 143.26 75.8331 143.055 75.8279C142.134 75.8018 141.208 75.9191 140.289 75.7732H140.286Z" fill="#9EE0E0"/>
<path d="M137.517 71.6349C137.025 71.6453 136.533 71.6532 136.043 71.6636C136.53 71.4212 137.025 71.4942 137.517 71.6349Z" fill="#8BDBDB"/>
<path d="M84.2675 29.8616C84.2857 30.0831 84.3405 30.3072 84.1659 30.4974C84.1476 30.2785 84.1111 30.0544 84.2675 29.8616Z" fill="#3DC2C2"/>
<path d="M137.928 45.5754C138.161 45.6171 138.276 45.7969 138.417 45.9377C138.48 46.0002 138.493 46.0784 138.417 46.1487C138.352 46.2113 138.268 46.2347 138.192 46.193C137.949 46.0601 137.844 45.8621 137.925 45.5754H137.928Z" fill="#DCF4F4"/>
<path d="M106.82 70.5769C107.029 70.5508 107.037 70.689 107.068 70.7645C107.566 71.9111 108.06 73.0578 108.545 74.2096C108.689 74.5536 108.657 74.6005 108.283 74.6083C107.822 74.6187 107.362 74.6344 106.904 74.6057C106.461 74.577 106.087 74.6787 105.749 74.9705C105.529 75.1582 105.278 75.3093 105.04 75.4761C105.006 75.4578 104.972 75.437 104.938 75.4188" fill="#FEFFFF"/>
<path d="M92.1648 18.5596C91.9894 18.2416 91.9868 17.9237 92.1883 17.6162C92.6202 16.9569 93.6201 16.7979 94.2273 17.3009C94.8267 17.796 95.112 18.4423 95.112 19.2892C95.1068 19.3413 95.0963 19.4664 95.0806 19.5889C95.0544 19.7922 94.9366 19.8834 94.7325 19.8339" fill="#FEFFFF"/>
</g>
<defs>
<clipPath id="clip0_1010_2">
<rect width="146" height="80" fill="white"/>
</clipPath>
</defs>
</svg>
