<svg xmlns="http://www.w3.org/2000/svg" width="275.484" height="275.482" viewBox="0 0 275.484 275.482">
  <g id="Group_4740" data-name="Group 4740" opacity="0.022">
    <g id="Group_4721" data-name="Group 4721" transform="translate(33.935 33.935)">
      <g id="Group_4720" data-name="Group 4720" transform="translate(0 0)">
        <g id="Group_4719" data-name="Group 4719">
          <path id="Path_24409" data-name="Path 24409" d="M1314.516,1052.643a81.59,81.59,0,0,1,4.813-7.772,68.259,68.259,0,0,1,10.623-11.788c.16-.134.322-.266.483-.4.04.2.079.412.114.618a68.356,68.356,0,0,1,.563,15.856,92.459,92.459,0,0,1-8.5,30.665,133.974,133.974,0,0,1-8.1,14.613,134.152,134.152,0,0,1-8.1-14.613,92.45,92.45,0,0,1-8.494-30.665,68.248,68.248,0,0,1,.561-15.856c.036-.206.075-.415.116-.618.16.134.321.266.483.4a68.319,68.319,0,0,1,10.621,11.788A82.254,82.254,0,0,1,1314.516,1052.643Zm-43.849-18.163a81.64,81.64,0,0,1,8.9-2.091,68.17,68.17,0,0,1,15.846-.824c.208.018.418.037.624.06-.117.172-.238.347-.355.515a68.37,68.37,0,0,1-10.816,11.611,92.516,92.516,0,0,1-27.689,15.678,134.2,134.2,0,0,1-16.065,4.606,134.16,134.16,0,0,1,4.609-16.064,92.369,92.369,0,0,1,15.674-27.689A68.242,68.242,0,0,1,1273,1009.468c.173-.121.347-.241.521-.358.017.209.038.416.056.624a68.258,68.258,0,0,1-.823,15.847A82.169,82.169,0,0,1,1270.668,1034.48ZM1252.5,990.631a81.6,81.6,0,0,1,7.771,4.815,68.261,68.261,0,0,1,11.788,10.621c.134.16.269.324.4.486-.206.038-.412.074-.618.113a68.185,68.185,0,0,1-15.855.56,92.468,92.468,0,0,1-30.665-8.493,133.558,133.558,0,0,1-14.616-8.1,134.1,134.1,0,0,1,14.616-8.1,92.431,92.431,0,0,1,30.665-8.49,68.185,68.185,0,0,1,15.855.56q.309.054.618.113c-.131.161-.266.326-.4.484a68.319,68.319,0,0,1-11.788,10.623A81.836,81.836,0,0,1,1252.5,990.631Zm18.163-43.847a82.167,82.167,0,0,1,2.091,8.9,68.239,68.239,0,0,1,.823,15.844c-.018.207-.039.418-.056.626-.174-.117-.348-.237-.521-.358a68.251,68.251,0,0,1-11.609-10.815,92.437,92.437,0,0,1-15.674-27.689,134.453,134.453,0,0,1-4.609-16.064,134.266,134.266,0,0,1,16.065,4.606,92.461,92.461,0,0,1,27.689,15.678,68.3,68.3,0,0,1,10.816,11.608c.117.171.238.345.355.516-.206.022-.416.043-.624.061a68.392,68.392,0,0,1-15.846-.824A81.98,81.98,0,0,1,1270.668,946.784Zm43.849-18.165a81.9,81.9,0,0,1-4.815,7.772,68.377,68.377,0,0,1-10.621,11.789l-.483.4c-.041-.2-.08-.409-.116-.615a68.255,68.255,0,0,1-.561-15.857,92.421,92.421,0,0,1,8.494-30.665,134.294,134.294,0,0,1,8.1-14.616,134.116,134.116,0,0,1,8.1,14.616,92.43,92.43,0,0,1,8.5,30.665,68.363,68.363,0,0,1-.563,15.857c-.035.206-.074.412-.114.615-.161-.131-.323-.264-.483-.4a68.317,68.317,0,0,1-10.623-11.789A81.239,81.239,0,0,1,1314.516,928.619Zm43.847,18.165a82.053,82.053,0,0,1-8.9,2.091,68.4,68.4,0,0,1-15.847.824c-.209-.018-.418-.039-.624-.061.117-.171.235-.345.355-.516a68.2,68.2,0,0,1,10.816-11.608,92.447,92.447,0,0,1,27.688-15.678,134.345,134.345,0,0,1,16.063-4.606,133.943,133.943,0,0,1-4.606,16.064,92.439,92.439,0,0,1-15.677,27.689,68.187,68.187,0,0,1-11.609,10.815c-.171.121-.344.241-.518.358-.018-.209-.038-.419-.058-.626a68.226,68.226,0,0,1,.824-15.844A81.483,81.483,0,0,1,1358.364,946.784Zm18.165,43.847a81.254,81.254,0,0,1-7.771-4.813,68.257,68.257,0,0,1-11.788-10.623c-.134-.159-.269-.323-.4-.484q.309-.059.618-.113a68.2,68.2,0,0,1,15.856-.56,92.438,92.438,0,0,1,30.665,8.49,134.218,134.218,0,0,1,14.616,8.1,133.675,133.675,0,0,1-14.616,8.1,92.474,92.474,0,0,1-30.665,8.493,68.2,68.2,0,0,1-15.856-.56c-.206-.039-.412-.075-.618-.113.133-.161.267-.326.4-.486a68.2,68.2,0,0,1,11.788-10.621A81.023,81.023,0,0,1,1376.528,990.631Zm-18.165,43.849a81.485,81.485,0,0,1-2.091-8.9,68.246,68.246,0,0,1-.824-15.847q.031-.311.058-.624c.174.117.347.237.518.358a68.178,68.178,0,0,1,11.609,10.815,92.371,92.371,0,0,1,15.677,27.689,133.653,133.653,0,0,1,4.606,16.064,134.277,134.277,0,0,1-16.063-4.606,92.5,92.5,0,0,1-27.688-15.678,68.264,68.264,0,0,1-10.816-11.611c-.12-.168-.238-.343-.355-.515.206-.022.415-.042.624-.06a68.174,68.174,0,0,1,15.847.824A81.712,81.712,0,0,1,1358.364,1034.48Zm-43.847,44.275q.56-1.1,1.1-2.2a88.494,88.494,0,0,0,7.717-24.352,86.489,86.489,0,0,0-8.818,20.286,86.616,86.616,0,0,0-8.82-20.286,88.514,88.514,0,0,0,7.719,24.352Q1313.952,1077.656,1314.516,1078.754Zm-62.312-25.809c.781-.255,1.562-.514,2.337-.782a88.467,88.467,0,0,0,22.676-11.761,86.561,86.561,0,0,0-20.581,8.109,86.57,86.57,0,0,0,8.112-20.581,88.478,88.478,0,0,0-11.764,22.676C1252.717,1051.38,1252.456,1052.16,1252.2,1052.945Zm-25.81-62.314q1.1.564,2.2,1.1a88.436,88.436,0,0,0,24.353,7.717,86.663,86.663,0,0,0-20.289-8.818,86.7,86.7,0,0,0,20.289-8.817,88.433,88.433,0,0,0-24.353,7.716C1227.86,989.891,1227.126,990.255,1226.394,990.631Zm25.81-62.312c.252.784.513,1.565.779,2.337a88.479,88.479,0,0,0,11.764,22.679,86.5,86.5,0,0,0-8.112-20.581,86.623,86.623,0,0,0,20.581,8.109,88.559,88.559,0,0,0-22.676-11.764C1253.766,928.832,1252.985,928.572,1252.2,928.319Zm62.313-25.809q-.564,1.1-1.1,2.2a88.537,88.537,0,0,0-7.719,24.353,86.587,86.587,0,0,0,8.82-20.289,86.46,86.46,0,0,0,8.818,20.289,88.516,88.516,0,0,0-7.717-24.353Q1315.077,903.608,1314.516,902.509Zm62.312,25.809q-1.175.38-2.34.78a88.57,88.57,0,0,0-22.675,11.764,86.6,86.6,0,0,0,20.58-8.109,86.6,86.6,0,0,0-8.11,20.581,88.383,88.383,0,0,0,11.763-22.679C1376.315,929.883,1376.577,929.1,1376.829,928.319Zm25.81,62.312c-.734-.376-1.469-.74-2.2-1.1a88.437,88.437,0,0,0-24.354-7.716,86.612,86.612,0,0,0,20.287,8.817,86.576,86.576,0,0,0-20.287,8.818,88.44,88.44,0,0,0,24.354-7.717Q1401.537,991.194,1402.638,990.631Zm-25.81,62.314q-.378-1.178-.782-2.34a88.382,88.382,0,0,0-11.763-22.676,86.677,86.677,0,0,0,8.11,20.581,86.538,86.538,0,0,0-20.58-8.109,88.478,88.478,0,0,0,22.675,11.761Q1375.654,1052.566,1376.829,1052.945Z" transform="translate(-1210.709 -886.824)" fill="#fff"/>
        </g>
      </g>
    </g>
    <g id="Group_4724" data-name="Group 4724" transform="translate(4.899 4.901)">
      <g id="Group_4723" data-name="Group 4723" transform="translate(0 0)">
        <g id="Group_4722" data-name="Group 4722">
          <path id="Path_24410" data-name="Path 24410" d="M1046.164,775.24q-1.336,1.767-2.642,3.548a237.205,237.205,0,0,1-20.087,24.749,203.757,203.757,0,0,1-14.7,14.186,203.742,203.742,0,0,1-14.7-14.186,237.243,237.243,0,0,1-20.086-24.749q-1.309-1.777-2.643-3.548c-1.465.2-2.923.419-4.378.64a237.33,237.33,0,0,1-31.7,3.3,203.728,203.728,0,0,1-20.424-.363c-.429-6.413-.6-13.26-.362-20.425a237.619,237.619,0,0,1,3.295-31.7q.334-2.178.643-4.375-1.77-1.336-3.55-2.642a237.077,237.077,0,0,1-24.749-20.09,203.8,203.8,0,0,1-14.186-14.7c4.23-4.837,8.953-9.8,14.186-14.7A237.429,237.429,0,0,1,914.828,650.1q1.775-1.309,3.55-2.642-.307-2.194-.643-4.378a237.527,237.527,0,0,1-3.295-31.7c-.238-7.162-.067-14.012.362-20.424a204.126,204.126,0,0,1,20.424-.362,237.322,237.322,0,0,1,31.7,3.3q2.182.332,4.378.64,1.336-1.769,2.643-3.547a237.15,237.15,0,0,1,20.086-24.752,203.707,203.707,0,0,1,14.7-14.183,203.723,203.723,0,0,1,14.7,14.183,237.112,237.112,0,0,1,20.087,24.752q1.309,1.775,2.642,3.547,2.195-.3,4.376-.64a237.371,237.371,0,0,1,31.7-3.3,204.1,204.1,0,0,1,20.424.362c.43,6.412.6,13.262.363,20.424a237.131,237.131,0,0,1-3.3,31.7q-.33,2.182-.641,4.378c1.178.891,2.364,1.769,3.547,2.642a237.613,237.613,0,0,1,24.75,20.087c5.234,4.9,9.957,9.861,14.188,14.7a203.572,203.572,0,0,1-14.188,14.7,237.26,237.26,0,0,1-24.75,20.09c-1.183.873-2.369,1.751-3.547,2.642q.307,2.194.641,4.375a237.223,237.223,0,0,1,3.3,31.7c.236,7.165.067,14.012-.363,20.425a203.7,203.7,0,0,1-20.424.363,237.379,237.379,0,0,1-31.7-3.3C1049.087,775.659,1047.627,775.441,1046.164,775.24Zm-37.427,41.511a185.5,185.5,0,0,0,15.865-17.026c6.631-7.877,12.438-16.784,18.419-25.915.522-.778,1.047-1.562,1.583-2.34.928.173,1.851.353,2.771.537,10.687,2.227,21.09,4.418,31.351,5.3a185.135,185.135,0,0,0,23.256.82,184.339,184.339,0,0,0-.822-23.256c-.878-10.261-3.071-20.664-5.3-31.351q-.276-1.378-.54-2.772,1.173-.8,2.344-1.58c9.129-5.983,18.036-11.789,25.912-18.422a184.8,184.8,0,0,0,17.029-15.865,185.012,185.012,0,0,0-17.029-15.863c-7.876-6.634-16.783-12.44-25.912-18.422q-1.174-.783-2.344-1.58.265-1.395.54-2.772c2.226-10.688,4.418-21.092,5.3-31.352a184.311,184.311,0,0,0,.822-23.255,185.135,185.135,0,0,0-23.256.82c-10.261.878-20.665,3.072-31.351,5.3-.92.182-1.843.365-2.771.537-.536-.779-1.061-1.56-1.583-2.341-5.981-9.129-11.788-18.035-18.419-25.914a185.129,185.129,0,0,0-15.865-17.024,184.573,184.573,0,0,0-15.865,17.024c-6.632,7.879-12.441,16.785-18.422,25.914q-.779,1.171-1.58,2.341c-.928-.173-1.851-.355-2.773-.537-10.686-2.226-21.089-4.42-31.35-5.3a185.142,185.142,0,0,0-23.256-.82,184.824,184.824,0,0,0,.82,23.255c.881,10.261,3.074,20.665,5.3,31.352q.276,1.378.54,2.772-1.174.8-2.344,1.58c-9.129,5.982-18.036,11.788-25.915,18.422a184.967,184.967,0,0,0-17.026,15.863,184.759,184.759,0,0,0,17.026,15.865c7.879,6.633,16.786,12.439,25.915,18.422q1.174.779,2.344,1.58-.265,1.395-.54,2.772c-2.226,10.687-4.418,21.091-5.3,31.351a184.853,184.853,0,0,0-.82,23.256,185.142,185.142,0,0,0,23.256-.82c10.261-.881,20.665-3.072,31.35-5.3.921-.184,1.844-.365,2.773-.537.536.778,1.061,1.562,1.58,2.34,5.982,9.132,11.791,18.038,18.422,25.915A184.941,184.941,0,0,0,1008.736,816.751Z" transform="translate(-875.893 -552.04)" fill="#fff"/>
        </g>
      </g>
    </g>
    <g id="Group_4727" data-name="Group 4727" transform="translate(0 0)">
      <g id="Group_4726" data-name="Group 4726" transform="translate(0 0)">
        <g id="Group_4725" data-name="Group 4725">
          <path id="Path_24411" data-name="Path 24411" d="M2465.211,3365.751c1.1,2.577-3.724,7.246-8.391,9.914-2.361,1.307-8.364,3.357-14.452,6.2-6.09,2.788-12.217,6.385-15.028,9.017,3.232-3.108,7.72-8.59,12.444-13.463,4.671-4.91,9.538-9.185,12.083-10.6C2456.965,3363.907,2464.11,3363.179,2465.211,3365.751Z" transform="translate(-2287.896 -3115.396)" fill="#fff"/>
          <path id="Path_24412" data-name="Path 24412" d="M3545.7,2678.029c2.6,1.04,2.491,7.755,1.08,12.941-.746,2.595-3.542,8.291-5.84,14.6-2.334,6.279-4.123,13.153-4.247,17,.083-4.485-.62-11.534-.724-18.321-.17-6.774.251-13.239,1.048-16.038C3538.566,2682.556,3543.1,2676.986,3545.7,2678.029Z" transform="translate(-3300.348 -2488.64)" fill="#fff"/>
          <path id="Path_24413" data-name="Path 24413" d="M3689.621,1625.808c2.574-1.1,7.244,3.725,9.911,8.39,1.309,2.363,3.359,8.368,6.2,14.454,2.788,6.093,6.386,12.215,9.02,15.028-3.111-3.231-8.593-7.72-13.466-12.443-4.91-4.67-9.182-9.537-10.6-12.083C3687.774,1634.057,3687.047,1626.909,3689.621,1625.808Z" transform="translate(-3439.265 -1527.642)" fill="#fff"/>
          <path id="Path_24414" data-name="Path 24414" d="M3001.9,821.2c1.042-2.6,7.757-2.486,12.942-1.075,2.6.743,8.291,3.54,14.6,5.837,6.277,2.334,13.153,4.123,17,4.248-4.485-.088-11.533.618-18.32.722-6.775.168-13.237-.25-16.039-1.048C3006.432,828.339,3000.864,823.8,3001.9,821.2Z" transform="translate(-2812.516 -791.073)" fill="#fff"/>
          <path id="Path_24415" data-name="Path 24415" d="M1949.7,520.652c-1.1-2.575,3.724-7.244,8.389-9.913,2.363-1.307,8.364-3.358,14.453-6.2,6.092-2.788,12.216-6.385,15.027-9.02-3.231,3.111-7.718,8.592-12.442,13.466-4.672,4.91-9.538,9.185-12.083,10.6C1957.948,522.5,1950.8,523.226,1949.7,520.652Z" transform="translate(-1851.534 -495.523)" fill="#fff"/>
          <path id="Path_24416" data-name="Path 24416" d="M1145.065,1019.17c-2.6-1.037-2.489-7.752-1.077-12.94.746-2.595,3.541-8.289,5.838-14.6,2.336-6.278,4.122-13.153,4.247-17-.082,4.485.618,11.533.725,18.322.167,6.774-.251,13.235-1.048,16.036C1152.2,1014.646,1147.664,1020.212,1145.065,1019.17Z" transform="translate(-1114.936 -933.076)" fill="#fff"/>
          <path id="Path_24417" data-name="Path 24417" d="M844.537,2141.356c-2.577,1.1-7.244-3.726-9.913-8.39-1.31-2.36-3.359-8.366-6.2-14.452-2.787-6.092-6.385-12.215-9.019-15.027,3.108,3.231,8.591,7.718,13.466,12.443,4.908,4.67,9.182,9.537,10.6,12.083C846.383,2133.109,847.111,2140.254,844.537,2141.356Z" transform="translate(-819.408 -1964.04)" fill="#fff"/>
          <path id="Path_24418" data-name="Path 24418" d="M1343.056,3221.819c-1.04,2.6-7.755,2.486-12.943,1.074-2.593-.743-8.288-3.541-14.6-5.836-6.279-2.336-13.153-4.123-17-4.249,4.484.084,11.533-.618,18.319-.726,6.775-.166,13.238.251,16.04,1.051C1338.529,3214.681,1344.1,3219.219,1343.056,3221.819Z" transform="translate(-1256.961 -2976.462)" fill="#fff"/>
          <path id="Path_24419" data-name="Path 24419" d="M1949.7,3365.751c-1.1,2.577,3.724,7.246,8.389,9.914,2.363,1.307,8.364,3.357,14.453,6.2,6.092,2.788,12.216,6.385,15.027,9.017-3.231-3.108-7.718-8.59-12.442-13.463-4.672-4.91-9.538-9.185-12.083-10.6C1957.948,3363.907,1950.8,3363.179,1949.7,3365.751Z" transform="translate(-1851.534 -3115.396)" fill="#fff"/>
          <path id="Path_24420" data-name="Path 24420" d="M3001.9,3221.819c1.042,2.6,7.757,2.486,12.942,1.074,2.6-.743,8.291-3.541,14.6-5.836,6.277-2.336,13.153-4.123,17-4.249-4.485.084-11.533-.618-18.32-.726-6.775-.166-13.237.251-16.039,1.051C3006.432,3214.681,3000.864,3219.219,3001.9,3221.819Z" transform="translate(-2812.516 -2976.462)" fill="#fff"/>
          <path id="Path_24421" data-name="Path 24421" d="M3689.621,2141.356c2.574,1.1,7.244-3.726,9.911-8.39,1.309-2.36,3.359-8.366,6.2-14.452,2.788-6.092,6.386-12.215,9.02-15.027-3.111,3.231-8.593,7.718-13.466,12.443-4.91,4.67-9.182,9.537-10.6,12.083C3687.774,2133.109,3687.047,2140.254,3689.621,2141.356Z" transform="translate(-3439.265 -1964.04)" fill="#fff"/>
          <path id="Path_24422" data-name="Path 24422" d="M3545.7,1019.17c2.6-1.037,2.491-7.752,1.08-12.94-.746-2.595-3.542-8.289-5.84-14.6-2.334-6.278-4.123-13.153-4.247-17,.083,4.485-.62,11.533-.724,18.322-.17,6.774.251,13.235,1.048,16.036C3538.566,1014.646,3543.1,1020.212,3545.7,1019.17Z" transform="translate(-3300.348 -933.076)" fill="#fff"/>
          <path id="Path_24423" data-name="Path 24423" d="M2465.211,520.652c1.1-2.575-3.724-7.244-8.391-9.913-2.361-1.307-8.364-3.358-14.452-6.2-6.09-2.788-12.217-6.385-15.028-9.02,3.232,3.111,7.72,8.592,12.444,13.466,4.671,4.91,9.538,9.185,12.083,10.6C2456.965,522.5,2464.11,523.226,2465.211,520.652Z" transform="translate(-2287.896 -495.523)" fill="#fff"/>
          <path id="Path_24424" data-name="Path 24424" d="M1343.056,821.2c-1.04-2.6-7.755-2.486-12.943-1.075-2.593.743-8.288,3.54-14.6,5.837-6.279,2.334-13.153,4.123-17,4.248,4.484-.088,11.533.618,18.319.722,6.775.168,13.238-.25,16.04-1.048C1338.529,828.339,1344.1,823.8,1343.056,821.2Z" transform="translate(-1256.961 -791.073)" fill="#fff"/>
          <path id="Path_24425" data-name="Path 24425" d="M844.537,1625.808c-2.577-1.1-7.244,3.725-9.913,8.39-1.31,2.363-3.359,8.368-6.2,14.454-2.787,6.093-6.385,12.215-9.019,15.028,3.108-3.231,8.591-7.72,13.466-12.443,4.908-4.67,9.182-9.537,10.6-12.083C846.383,1634.057,847.111,1626.909,844.537,1625.808Z" transform="translate(-819.408 -1527.642)" fill="#fff"/>
          <path id="Path_24426" data-name="Path 24426" d="M1145.065,2678.029c-2.6,1.04-2.489,7.755-1.077,12.941.746,2.595,3.541,8.291,5.838,14.6,2.336,6.279,4.122,13.153,4.247,17-.082-4.485.618-11.534.725-18.321.167-6.774-.251-13.239-1.048-16.038C1152.2,2682.556,1147.664,2676.986,1145.065,2678.029Z" transform="translate(-1114.936 -2488.64)" fill="#fff"/>
        </g>
      </g>
    </g>
    <g id="Group_4730" data-name="Group 4730" transform="translate(24.11 24.113)">
      <g id="Group_4729" data-name="Group 4729">
        <g id="Group_4728" data-name="Group 4728">
          <path id="Path_24427" data-name="Path 24427" d="M2440.122,2709.313a86.259,86.259,0,0,1-7.891,18.077c-6.356,11.294-15.645,20.623-20.814,25.478a63.763,63.763,0,0,0,9.253-12.085,81.213,81.213,0,0,0,7.236-16.309c3.747-11.333,4.079-22.283,4.507-27.122.153-1.757.334-3.57.529-5.372,1.407,1.136,2.82,2.29,4.172,3.424,3.725,3.12,11.7,10.628,22.366,15.99a81.154,81.154,0,0,0,16.647,6.416,63.639,63.639,0,0,0,15.09,2.006c-7.089.221-20.256.191-32.735-3.3A86.332,86.332,0,0,1,2440.122,2709.313Z" transform="translate(-2297.463 -2525.609)" fill="#fff"/>
          <path id="Path_24428" data-name="Path 24428" d="M1534.933,2709.313a86.313,86.313,0,0,1-18.361,7.2c-12.479,3.491-25.644,3.521-32.734,3.3a63.656,63.656,0,0,0,15.09-2.006,81.151,81.151,0,0,0,16.647-6.416c10.663-5.362,18.64-12.871,22.365-15.99,1.35-1.134,2.762-2.288,4.172-3.424.192,1.8.376,3.615.529,5.372.429,4.839.76,15.79,4.507,27.122a81.125,81.125,0,0,0,7.236,16.309,63.7,63.7,0,0,0,9.251,12.085c-5.169-4.855-14.459-14.185-20.812-25.478A86.171,86.171,0,0,1,1534.933,2709.313Z" transform="translate(-1450.327 -2525.609)" fill="#fff"/>
          <path id="Path_24429" data-name="Path 24429" d="M1140.974,2116.237a86.274,86.274,0,0,1-18.075-7.892c-11.291-6.354-20.621-15.644-25.481-20.813a63.6,63.6,0,0,0,12.09,9.25,80.943,80.943,0,0,0,16.309,7.239c11.331,3.748,22.281,4.079,27.118,4.507,1.76.153,3.576.335,5.375.529-1.136,1.409-2.292,2.82-3.428,4.172-3.117,3.725-10.625,11.7-15.989,22.364a81.18,81.18,0,0,0-6.414,16.65,63.638,63.638,0,0,0-2.006,15.088c-.22-7.088-.192-20.255,3.3-32.734A86.284,86.284,0,0,1,1140.974,2116.237Z" transform="translate(-1097.418 -1973.581)" fill="#fff"/>
          <path id="Path_24430" data-name="Path 24430" d="M1140.974,1211.035a86.281,86.281,0,0,1-7.2-18.362c-3.493-12.477-3.52-25.644-3.3-32.735a63.678,63.678,0,0,0,2.006,15.091,81.143,81.143,0,0,0,6.414,16.649c5.364,10.661,12.872,18.639,15.989,22.363,1.136,1.353,2.291,2.766,3.428,4.173-1.8.192-3.615.376-5.375.528-4.837.43-15.787.761-27.118,4.507a81.244,81.244,0,0,0-16.309,7.239,63.623,63.623,0,0,0-12.09,9.253c4.859-5.17,14.19-14.46,25.481-20.815A86.366,86.366,0,0,1,1140.974,1211.035Z" transform="translate(-1097.418 -1126.431)" fill="#fff"/>
          <path id="Path_24431" data-name="Path 24431" d="M1534.933,817.119a86.224,86.224,0,0,1,7.891-18.074c6.353-11.294,15.644-20.623,20.812-25.48a63.671,63.671,0,0,0-9.251,12.087,81.062,81.062,0,0,0-7.236,16.309c-3.747,11.331-4.079,22.281-4.507,27.119-.153,1.76-.337,3.573-.529,5.373-1.41-1.137-2.822-2.289-4.172-3.426-3.725-3.117-11.7-10.627-22.365-15.99a81.105,81.105,0,0,0-16.647-6.413,63.653,63.653,0,0,0-15.09-2.007c7.09-.22,20.254-.189,32.734,3.3A86.249,86.249,0,0,1,1534.933,817.119Z" transform="translate(-1450.327 -773.565)" fill="#fff"/>
          <path id="Path_24432" data-name="Path 24432" d="M2440.122,817.119a86.268,86.268,0,0,1,18.359-7.2c12.479-3.491,25.646-3.522,32.735-3.3a63.636,63.636,0,0,0-15.09,2.007,81.109,81.109,0,0,0-16.647,6.413c-10.663,5.363-18.641,12.873-22.366,15.99-1.352,1.137-2.764,2.288-4.172,3.426-.195-1.8-.376-3.614-.529-5.373-.428-4.839-.76-15.788-4.507-27.119a81.149,81.149,0,0,0-7.236-16.309,63.733,63.733,0,0,0-9.253-12.087c5.169,4.857,14.458,14.186,20.814,25.48A86.312,86.312,0,0,1,2440.122,817.119Z" transform="translate(-2297.463 -773.565)" fill="#fff"/>
          <path id="Path_24433" data-name="Path 24433" d="M3033.2,1211.035a86.412,86.412,0,0,1,18.073,7.89c11.293,6.355,20.625,15.645,25.482,20.815a63.564,63.564,0,0,0-12.088-9.253,81.278,81.278,0,0,0-16.309-7.239c-11.331-3.746-22.281-4.077-27.121-4.507-1.76-.152-3.573-.336-5.372-.528,1.136-1.407,2.288-2.82,3.424-4.173,3.12-3.724,10.628-11.7,15.991-22.363a81.126,81.126,0,0,0,6.416-16.649,63.773,63.773,0,0,0,2.006-15.091c.22,7.091.189,20.258-3.3,32.735A86.307,86.307,0,0,1,3033.2,1211.035Z" transform="translate(-2849.492 -1126.431)" fill="#fff"/>
          <path id="Path_24434" data-name="Path 24434" d="M3033.2,2116.237a86.31,86.31,0,0,1,7.2,18.359c3.491,12.479,3.522,25.646,3.3,32.734a63.733,63.733,0,0,0-2.006-15.088,81.163,81.163,0,0,0-6.416-16.65c-5.362-10.662-12.871-18.639-15.991-22.364-1.136-1.352-2.288-2.763-3.424-4.172,1.8-.193,3.612-.375,5.372-.529,4.84-.429,15.79-.76,27.121-4.507a80.978,80.978,0,0,0,16.309-7.239,63.541,63.541,0,0,0,12.088-9.25c-4.858,5.17-14.189,14.459-25.482,20.813A86.319,86.319,0,0,1,3033.2,2116.237Z" transform="translate(-2849.492 -1973.581)" fill="#fff"/>
          <path id="Path_24435" data-name="Path 24435" d="M2273.931,2461.843c.56-.776,1.054-1.46,1.463-2.045,2.816-4.016,5.727-8.509,8.09-12.042,2.262-3.605,3.806-6.442,2.873-7.563-.849-1.037-4.112-.085-7.958,2.5a33.228,33.228,0,0,0-4.469,3.477,33.273,33.273,0,0,0-4.468-3.477c-3.847-2.589-7.112-3.541-7.958-2.5-.933,1.121.61,3.958,2.873,7.563,2.364,3.533,5.273,8.026,8.09,12.042C2272.876,2460.383,2273.369,2461.067,2273.931,2461.843Z" transform="translate(-2160.299 -2295.282)" fill="#fff"/>
          <path id="Path_24436" data-name="Path 24436" d="M1976.122,2261.6c.947-.152,1.777-.287,2.48-.412,4.831-.849,10.066-1.965,14.238-2.794,4.148-.949,7.244-1.862,7.379-3.316.134-1.333-2.848-2.969-7.4-3.858a33,33,0,0,0-5.618-.7,32.967,32.967,0,0,0-.7-5.62c-.888-4.549-2.522-7.532-3.856-7.4-1.452.135-2.365,3.231-3.316,7.38-.828,4.169-1.947,9.406-2.8,14.236C1976.408,2259.82,1976.276,2260.656,1976.122,2261.6Z" transform="translate(-1899.918 -2110.543)" fill="#fff"/>
          <path id="Path_24437" data-name="Path 24437" d="M1797.371,1950.041c.775.559,1.458,1.055,2.043,1.463,4.016,2.816,8.51,5.727,12.042,8.091,3.605,2.263,6.441,3.807,7.564,2.876,1.034-.851.082-4.113-2.506-7.959a33.125,33.125,0,0,0-3.479-4.47,33.1,33.1,0,0,0,3.479-4.469c2.588-3.846,3.54-7.11,2.506-7.959-1.123-.932-3.959.612-7.564,2.875-3.533,2.364-8.026,5.276-12.042,8.092C1798.828,1948.987,1798.146,1949.48,1797.371,1950.041Z" transform="translate(-1736.669 -1836.411)" fill="#fff"/>
          <path id="Path_24438" data-name="Path 24438" d="M1976.122,1652.251c.154.945.287,1.778.41,2.48.848,4.83,1.967,10.064,2.8,14.236.951,4.149,1.864,7.244,3.316,7.38,1.334.131,2.968-2.849,3.856-7.4a32.965,32.965,0,0,0,.7-5.618,33.185,33.185,0,0,0,5.618-.7c4.552-.889,7.534-2.524,7.4-3.856-.135-1.453-3.231-2.366-7.379-3.316-4.172-.828-9.407-1.948-14.238-2.8C1977.9,1652.538,1977.068,1652.4,1976.122,1652.251Z" transform="translate(-1899.918 -1576.049)" fill="#fff"/>
          <path id="Path_24439" data-name="Path 24439" d="M2273.931,1473.486c-.562.775-1.055,1.46-1.463,2.045-2.817,4.016-5.726,8.508-8.09,12.042-2.263,3.605-3.806,6.439-2.873,7.563.846,1.037,4.111.085,7.958-2.506a33.126,33.126,0,0,0,4.468-3.476,33.082,33.082,0,0,0,4.469,3.476c3.846,2.591,7.109,3.543,7.958,2.506.933-1.123-.611-3.958-2.873-7.563-2.364-3.534-5.274-8.026-8.09-12.042C2274.985,1474.946,2274.491,1474.261,2273.931,1473.486Z" transform="translate(-2160.299 -1412.787)" fill="#fff"/>
          <path id="Path_24440" data-name="Path 24440" d="M2585.484,1652.251c-.945.152-1.778.287-2.48.409-4.832.849-10.066,1.968-14.236,2.8-4.15.949-7.244,1.863-7.379,3.316-.134,1.332,2.847,2.967,7.4,3.856a33.221,33.221,0,0,0,5.621.7,32.926,32.926,0,0,0,.7,5.618c.891,4.551,2.525,7.531,3.859,7.4,1.45-.136,2.365-3.231,3.314-7.38.827-4.172,1.947-9.406,2.794-14.236C2585.2,1654.029,2585.331,1653.2,2585.484,1652.251Z" transform="translate(-2434.425 -1576.049)" fill="#fff"/>
          <path id="Path_24441" data-name="Path 24441" d="M2785.719,1950.041c-.776-.561-1.458-1.054-2.044-1.462-4.016-2.816-8.51-5.728-12.042-8.092-3.606-2.262-6.441-3.806-7.564-2.875-1.035.849-.084,4.113,2.506,7.959a32.872,32.872,0,0,0,3.476,4.469,32.894,32.894,0,0,0-3.476,4.47c-2.59,3.846-3.541,7.109-2.506,7.959,1.124.931,3.958-.613,7.564-2.876,3.533-2.364,8.026-5.275,12.042-8.091C2784.261,1951.1,2784.943,1950.6,2785.719,1950.041Z" transform="translate(-2619.156 -1836.411)" fill="#fff"/>
          <path id="Path_24442" data-name="Path 24442" d="M2585.484,2261.6c-.153-.945-.287-1.781-.412-2.481-.847-4.83-1.967-10.067-2.794-14.236-.949-4.149-1.864-7.245-3.314-7.38-1.334-.134-2.968,2.849-3.859,7.4a32.928,32.928,0,0,0-.7,5.62,33.034,33.034,0,0,0-5.621.7c-4.55.89-7.531,2.525-7.4,3.858.135,1.454,3.23,2.367,7.379,3.316,4.171.829,9.4,1.945,14.236,2.794C2583.707,2261.314,2584.539,2261.449,2585.484,2261.6Z" transform="translate(-2434.425 -2110.543)" fill="#fff"/>
        </g>
      </g>
    </g>
    <g id="Group_4733" data-name="Group 4733" transform="translate(29.171 29.171)">
      <g id="Group_4732" data-name="Group 4732" transform="translate(0 0)">
        <g id="Group_4731" data-name="Group 4731">
          <path id="Path_24443" data-name="Path 24443" d="M2773.255,3191.815c-4.626,2.788-8.7,6.308-10.489,8.909,2.141-3.179,5.118-8.193,8.869-12.821,5.922.621,11.573,2.059,15.337,2.794C2783.866,3190.127,2778.5,3190.516,2773.255,3191.815Z" transform="translate(-2623.404 -2983.584)" fill="#fff"/>
          <path id="Path_24444" data-name="Path 24444" d="M1787.252,3191.815c-5.242-1.3-10.613-1.689-13.717-1.118,3.764-.735,9.414-2.173,15.337-2.794,3.749,4.627,6.726,9.641,8.869,12.821C1795.951,3198.124,1791.878,3194.6,1787.252,3191.815Z" transform="translate(-1719.962 -2983.584)" fill="#fff"/>
          <path id="Path_24445" data-name="Path 24445" d="M1164.69,2449.37c-2.785-4.625-6.309-8.7-8.909-10.489,3.181,2.143,8.2,5.12,12.822,8.87-.622,5.923-2.06,11.571-2.8,15.336C1166.381,2459.984,1165.99,2454.612,1164.69,2449.37Z" transform="translate(-1155.781 -2299.519)" fill="#fff"/>
          <path id="Path_24446" data-name="Path 24446" d="M1164.69,1463.367c1.3-5.242,1.691-10.614,1.116-13.717.736,3.764,2.174,9.414,2.8,15.336-4.626,3.749-9.641,6.726-12.822,8.87C1158.381,1472.066,1161.9,1467.994,1164.69,1463.367Z" transform="translate(-1155.781 -1396.076)" fill="#fff"/>
          <path id="Path_24447" data-name="Path 24447" d="M1787.252,840.8c4.626-2.785,8.7-6.309,10.489-8.909-2.142,3.182-5.12,8.195-8.869,12.82-5.923-.618-11.573-2.059-15.337-2.794C1776.639,842.5,1782.01,842.106,1787.252,840.8Z" transform="translate(-1719.962 -831.896)" fill="#fff"/>
          <path id="Path_24448" data-name="Path 24448" d="M2773.255,840.8c5.242,1.3,10.611,1.691,13.717,1.118-3.764.735-9.415,2.176-15.337,2.794-3.75-4.626-6.728-9.638-8.869-12.82C2764.557,834.5,2768.629,838.019,2773.255,840.8Z" transform="translate(-2623.404 -831.896)" fill="#fff"/>
          <path id="Path_24449" data-name="Path 24449" d="M3515.7,1463.367c2.788,4.627,6.311,8.7,8.912,10.489-3.182-2.144-8.2-5.121-12.822-8.87.62-5.922,2.06-11.572,2.8-15.336C3514.01,1452.753,3514.4,1458.125,3515.7,1463.367Z" transform="translate(-3307.469 -1396.076)" fill="#fff"/>
          <path id="Path_24450" data-name="Path 24450" d="M3515.7,2449.37c-1.3,5.243-1.688,10.614-1.115,13.717-.735-3.766-2.176-9.413-2.8-15.336,4.626-3.75,9.64-6.727,12.822-8.87C3522.01,2440.671,3518.487,2444.744,3515.7,2449.37Z" transform="translate(-3307.469 -2299.519)" fill="#fff"/>
        </g>
      </g>
    </g>
    <g id="Group_4736" data-name="Group 4736" transform="translate(113.074 113.075)">
      <g id="Group_4735" data-name="Group 4735">
        <g id="Group_4734" data-name="Group 4734">
          <path id="Path_24451" data-name="Path 24451" d="M2147.931,1841.312c2.106-1.221,4.036-2.372,5.739-3.394,1.927-.483,4.107-1.032,6.459-1.659.628-2.351,1.175-4.531,1.658-6.459,1.02-1.7,2.176-3.632,3.392-5.739-1.217-2.106-2.372-4.035-3.392-5.74-.483-1.927-1.03-4.106-1.658-6.458-2.353-.629-4.532-1.176-6.459-1.659-1.7-1.022-3.633-2.176-5.739-3.394-2.108,1.218-4.037,2.372-5.739,3.394-1.928.483-4.108,1.03-6.459,1.659-.628,2.351-1.176,4.531-1.658,6.458-1.023,1.7-2.176,3.633-3.394,5.74,1.218,2.107,2.37,4.037,3.394,5.739.482,1.928,1.03,4.108,1.658,6.459,2.351.628,4.531,1.176,6.459,1.659C2143.894,1838.94,2145.823,1840.091,2147.931,1841.312Zm6.844-.728c-2.014,2.322-4.377,5.075-6.844,8.143-2.467-3.068-4.833-5.822-6.845-8.143-3.065.219-6.683.493-10.6.92.426-3.917.7-7.533.918-10.6-2.323-2.011-5.072-4.378-8.144-6.844,3.072-2.468,5.821-4.832,8.144-6.843-.219-3.065-.492-6.683-.918-10.6,3.914.426,7.532.7,10.6.92,2.012-2.322,4.378-5.075,6.845-8.145,2.467,3.069,4.83,5.823,6.844,8.145,3.064-.219,6.682-.494,10.6-.92-.426,3.916-.7,7.534-.919,10.6,2.321,2.011,5.073,4.375,8.144,6.843-3.071,2.467-5.823,4.833-8.144,6.844.218,3.065.493,6.682.919,10.6C2161.457,1841.077,2157.839,1840.8,2154.775,1840.584Z" transform="translate(-2123.263 -1799.394)" fill="#fff"/>
        </g>
      </g>
    </g>
    <g id="Group_4739" data-name="Group 4739" transform="translate(10.902 10.904)">
      <g id="Group_4738" data-name="Group 4738" transform="translate(0 0)">
        <g id="Group_4737" data-name="Group 4737">
          <path id="Path_24452" data-name="Path 24452" d="M2327.452,3366.1c3.309-2.482,6.022-3.913,7.124-3.09,1.843,1.355-1.663,8.961-7.124,15.692-5.461-6.731-8.967-14.337-7.127-15.692C2321.429,3362.187,2324.14,3363.618,2327.452,3366.1Z" transform="translate(-2200.612 -3125.024)" fill="#fff"/>
          <path id="Path_24453" data-name="Path 24453" d="M1382.4,2939.075c4.093.588,7.024,1.491,7.222,2.855.344,2.261-7.512,5.159-16.135,6.057.9-8.621,3.8-16.477,6.06-16.136C1380.908,2932.051,1381.811,2934.983,1382.4,2939.075Z" transform="translate(-1336.337 -2731.459)" fill="#fff"/>
          <path id="Path_24454" data-name="Path 24454" d="M957.724,2003.565c2.48,3.31,3.913,6.021,3.09,7.126-1.357,1.84-8.963-1.665-15.692-7.126,6.729-5.462,14.335-8.967,15.692-7.127C961.637,1997.544,960.2,2000.255,957.724,2003.565Z" transform="translate(-945.122 -1876.727)" fill="#fff"/>
          <path id="Path_24455" data-name="Path 24455" d="M1382.4,1058.53c-.588,4.093-1.491,7.024-2.854,7.223-2.263.342-5.16-7.514-6.06-16.136,8.623.9,16.479,3.8,16.135,6.058C1389.423,1057.039,1386.492,1057.941,1382.4,1058.53Z" transform="translate(-1336.337 -1012.468)" fill="#fff"/>
          <path id="Path_24456" data-name="Path 24456" d="M2327.452,633.854c-3.312,2.482-6.022,3.914-7.127,3.092-1.84-1.357,1.666-8.962,7.127-15.692,5.461,6.731,8.968,14.335,7.124,15.692C2333.474,637.768,2330.76,636.336,2327.452,633.854Z" transform="translate(-2200.612 -621.253)" fill="#fff"/>
          <path id="Path_24457" data-name="Path 24457" d="M3262.959,1058.53c-4.094-.589-7.026-1.491-7.224-2.855-.341-2.262,7.516-5.159,16.137-6.058-.9,8.622-3.8,16.479-6.058,16.136C3264.451,1065.554,3263.545,1062.622,3262.959,1058.53Z" transform="translate(-3055.343 -1012.468)" fill="#fff"/>
          <path id="Path_24458" data-name="Path 24458" d="M3689.967,2003.565c-2.481-3.31-3.916-6.022-3.092-7.127,1.358-1.84,8.962,1.665,15.694,7.127-6.732,5.461-14.335,8.966-15.694,7.126C3686.051,2009.586,3687.486,2006.876,3689.967,2003.565Z" transform="translate(-3448.889 -1876.727)" fill="#fff"/>
          <path id="Path_24459" data-name="Path 24459" d="M3262.959,2939.075c.585-4.093,1.492-7.024,2.855-7.224,2.26-.341,5.16,7.515,6.058,16.136-8.621-.9-16.478-3.8-16.137-6.057C3255.934,2940.566,3258.865,2939.663,3262.959,2939.075Z" transform="translate(-3055.343 -2731.459)" fill="#fff"/>
        </g>
      </g>
    </g>
  </g>
</svg>
