<svg width="92" height="100" viewBox="0 0 92 100" fill="none" xmlns="http://www.w3.org/2000/svg">
<g clip-path="url(#clip0_122_1201)">
<path d="M40.2877 28.8323V47.8101L36.8864 49.0378L38.6193 45.6504V44.4553L31.5633 46.8153V47.8893L33.8285 50.1421L30.6231 51.3V55.0275V57.0706V60.2297L14.5547 65.7534V71.5101L31.5126 65.6835V65.6602L35.8264 64.2298V59.3561L38.0709 58.6106V54.3728L40.2877 53.5691V53.5644L46.0071 51.6704V26.9173L40.2877 28.8323Z" fill="white"/>
<path d="M55.4111 0.81538C55.4111 0.81538 55.1507 1.21376 55.1369 1.46304C55.1369 1.46304 54.8327 1.91267 54.0768 1.91267C54.0768 1.91267 53.556 1.95693 53.556 2.38793C53.556 2.38793 53.5123 2.54868 53.2887 2.56731C53.2887 2.56731 53.0468 2.60692 53.079 2.99132V4.03735C53.079 4.03735 53.0214 4.78985 53.4339 4.8015C53.4339 4.8015 54.3995 4.75024 54.3995 5.14862V5.547C54.3995 5.547 54.4179 5.88015 54.1321 5.90111C54.1321 5.90111 53.904 5.98498 53.9155 6.39501V7.14051C53.9155 7.14051 53.8717 7.69964 54.3464 7.64839C54.3464 7.64839 54.4916 7.65538 54.4916 7.99551V9.04155C54.4916 9.04155 54.5239 9.21395 54.2243 9.21395H53.2703C53.2703 9.21395 53.0813 9.21395 53.0698 9.54243L53.0975 10.5069C53.0975 10.5069 53.079 10.7842 53.3717 10.7888C53.3717 10.7888 53.7519 11.8675 54.4778 12.0725V17.4494C54.4778 17.4494 54.4778 17.8734 54.1344 17.8595C54.1344 17.8595 53.5998 17.8595 53.563 18.2066V18.8356C53.563 18.8356 53.5123 19.3365 53.8556 19.3621C53.8556 19.3621 54.275 19.5415 54.2612 19.9282C54.2612 19.9282 54.2865 20.506 53.9685 20.5456C53.9685 20.5456 53.4731 20.6737 53.4984 21.2771C53.4984 21.2771 53.3072 22.0087 53.9939 22.1508V26.9336L57.7661 28.1987V22.1531C58.4528 22.011 58.2616 21.2795 58.2616 21.2795C58.2869 20.6761 57.7915 20.5479 57.7915 20.5479C57.4735 20.5083 57.4988 19.9306 57.4988 19.9306C57.485 19.5462 57.9044 19.3644 57.9044 19.3644C58.2478 19.3388 58.1971 18.8379 58.1971 18.8379V18.2089C58.1579 17.8618 57.6256 17.8618 57.6256 17.8618C57.2822 17.8758 57.2822 17.4518 57.2822 17.4518V12.0748C58.0058 11.8698 58.3883 10.7912 58.3883 10.7912C58.681 10.7842 58.6626 10.5093 58.6626 10.5093L58.6902 9.54476C58.681 9.21628 58.4897 9.21628 58.4897 9.21628H57.5357C57.2361 9.21628 57.2684 9.04388 57.2684 9.04388V7.99784C57.2684 7.65771 57.4136 7.65072 57.4136 7.65072C57.8906 7.70197 57.8445 7.14284 57.8445 7.14284V6.39734C57.8583 5.98731 57.6279 5.90344 57.6279 5.90344C57.3421 5.88481 57.3606 5.54933 57.3606 5.54933V5.15095C57.3606 4.75257 58.3261 4.80382 58.3261 4.80382C58.7386 4.78985 58.681 4.03968 58.681 4.03968V2.99365C58.7132 2.60925 58.4713 2.56964 58.4713 2.56964C58.2478 2.55101 58.204 2.39026 58.204 2.39026C58.204 1.95926 57.6832 1.915 57.6832 1.915C56.9274 1.915 56.6232 1.46537 56.6232 1.46537C56.6093 1.21376 56.349 0.817709 56.349 0.817709C56.349 0.817709 55.9526 0.328473 55.4111 0.81538Z" fill="white"/>
<path d="M35.7983 0.216655C35.7983 0.216655 35.5379 0.615034 35.5241 0.864312C35.5241 0.864312 35.2199 1.31394 34.464 1.31394C34.464 1.31394 33.9433 1.35821 33.9433 1.7892C33.9433 1.7892 33.8995 1.94995 33.6759 1.96859C33.6759 1.96859 33.434 2.00819 33.4662 2.39259V3.43863C33.4662 3.43863 33.4086 4.19112 33.8211 4.20277C33.8211 4.20277 34.7867 4.15152 34.7867 4.5499V4.94827C34.7867 4.94827 34.8051 5.28142 34.5193 5.30239C34.5193 5.30239 34.2912 5.38626 34.3027 5.79628V6.54179C34.3027 6.54179 34.259 7.10092 34.7337 7.04966C34.7337 7.04966 34.8788 7.05665 34.8788 7.39679V8.44282C34.8788 8.44282 34.9111 8.61522 34.6115 8.61522H33.6575C33.6575 8.61522 33.4686 8.61522 33.457 8.94371L33.4847 9.9082C33.4847 9.9082 33.4662 10.1854 33.7589 10.1901C33.7589 10.1901 34.1391 11.2687 34.865 11.4738V16.8507C34.865 16.8507 34.865 17.2747 34.5217 17.2607C34.5217 17.2607 33.987 17.2607 33.9502 17.6079V18.2369C33.9502 18.2369 33.9963 18.6958 34.5793 18.6865C34.5793 18.6865 34.8834 18.9195 34.7913 19.3318C34.7913 19.3318 34.842 19.898 34.4341 19.9212C34.4341 19.9212 34.0539 20.1076 34.0792 20.711C34.0792 20.711 34.07 21.4099 34.7567 21.552L34.7636 28.01L38.1534 26.8777V21.5544C38.8401 21.4123 38.6488 20.6807 38.6488 20.6807C38.6741 20.0773 38.1787 19.9492 38.1787 19.9492C37.8607 19.9096 37.886 19.3318 37.886 19.3318C37.8722 18.9474 38.2916 18.7657 38.2916 18.7657C38.635 18.7401 38.5843 18.2392 38.5843 18.2392V17.6102C38.5451 17.2631 38.0128 17.2631 38.0128 17.2631C37.6694 17.277 37.6694 16.853 37.6694 16.853V11.4761C38.393 11.2711 38.7755 10.1924 38.7755 10.1924C39.0682 10.1854 39.0498 9.91053 39.0498 9.91053L39.0774 8.94604C39.0682 8.61755 38.8769 8.61755 38.8769 8.61755H37.9229C37.6233 8.61755 37.6556 8.44515 37.6556 8.44515V7.39912C37.6556 7.05898 37.8008 7.05199 37.8008 7.05199C38.2778 7.10325 38.2317 6.54412 38.2317 6.54412V5.79861C38.2455 5.38859 38.0151 5.30472 38.0151 5.30472C37.7293 5.28608 37.7478 4.9506 37.7478 4.9506V4.55223C37.7478 4.15385 38.7133 4.2051 38.7133 4.2051C39.1258 4.19112 39.0682 3.44096 39.0682 3.44096V2.39492C39.1005 2.01052 38.8585 1.97092 38.8585 1.97092C38.635 1.95228 38.5912 1.79153 38.5912 1.79153C38.5912 1.36054 38.0704 1.31627 38.0704 1.31627C37.3146 1.31627 37.0104 0.866641 37.0104 0.866641C36.9966 0.615034 36.7362 0.218985 36.7362 0.218985C36.7362 0.218985 36.3421 -0.270252 35.7983 0.216655Z" fill="white"/>
<path d="M14.5522 37.3497V63.8291L28.3624 59.1021V32.8208L14.5522 37.3497ZM22.6567 55.971L20.2625 56.84V40.6742L22.6567 39.8728V55.971Z" fill="white"/>
<path d="M38.0293 34.61L30.623 37.0888V32.0683L38.0293 29.5872V34.61Z" fill="white"/>
<path d="M38.0293 42.1419L30.623 44.623V39.6025L38.0293 37.1191V42.1419Z" fill="white"/>
<path d="M40.2715 56.4253V64.8355L14.5547 73.4111V82.6391L24.8576 79.1911V72.9452L32.8515 70.0191V76.519L45.968 72.1321V54.515L40.2715 56.4253Z" fill="white"/>
<path d="M31.9319 76.8265L25.7769 78.8836V73.3669L31.9319 71.1933V76.8265Z" fill="white"/>
<path d="M69.1888 54.3752V34.6193L56.5308 30.3863V53.7392L56.5124 54.4847V61.2385L63.467 63.5775V68.7238L54.0836 65.588V57.2011L48.3618 55.2954V72.8427L69.1888 79.8132V59.7172L61.3147 57.0776L69.1888 54.3752ZM61.741 37.2705L64.1745 38.0813V50.9179L61.741 51.731V37.2705Z" fill="white"/>
<path d="M77.3443 82.5459L71.6387 80.6379V35.4394L77.3443 37.3497V82.5459Z" fill="white"/>
<path d="M53.9869 54.2005L48.2651 52.2854V27.6186L53.9869 29.5336V54.2005Z" fill="white"/>
<path d="M32.3742 89.914C31.9479 89.914 31.5746 89.8698 31.2566 89.7789C30.9363 89.6904 30.6736 89.5622 30.4639 89.3992C30.2542 89.2361 30.0837 89.0217 29.9546 88.7608C29.8256 88.4999 29.7334 88.211 29.6804 87.8965C29.6274 87.582 29.6021 87.2139 29.6021 86.7946V80.29H31.6529V87.1044C31.6529 87.2535 31.6576 87.3793 31.6645 87.4841C31.6714 87.589 31.6898 87.7031 31.7175 87.8243C31.7451 87.9454 31.7843 88.0456 31.8327 88.1248C31.8811 88.204 31.9525 88.2669 32.0447 88.3205C32.1369 88.3718 32.2475 88.3974 32.3765 88.3974C32.5056 88.3974 32.6139 88.3718 32.706 88.3205C32.7959 88.2693 32.8674 88.204 32.9157 88.1248C32.9641 88.0456 33.0033 87.9454 33.031 87.8243C33.0586 87.7031 33.0771 87.5867 33.084 87.4818C33.0909 87.3747 33.0955 87.2489 33.0955 87.1044V80.29H35.151V86.7946C35.151 87.3211 35.1072 87.7707 35.0173 88.1411C34.9298 88.5115 34.78 88.833 34.5726 89.1079C34.3652 89.3828 34.0795 89.5855 33.7177 89.7183C33.3536 89.8488 32.9065 89.914 32.3742 89.914Z" fill="white"/>
<path d="M35.978 89.7842L36.1301 80.2884H38.3515L39.3931 85.8424L40.5153 80.2884H42.663L42.8151 89.7842H41.3311L41.179 83.4847L40.0752 89.7842H38.7778L37.6234 83.4381L37.4828 89.7842H35.978Z" fill="white"/>
<path d="M43.7051 89.7842V80.2884H46.2652C46.6616 80.2884 47.0119 80.3117 47.3183 80.3583C47.6248 80.4049 47.9106 80.4841 48.1802 80.5982C48.4475 80.7124 48.6687 80.8638 48.8438 81.0502C49.0167 81.2366 49.1526 81.4789 49.2517 81.7724C49.3508 82.066 49.3992 82.4107 49.3992 82.8021C49.3992 83.4242 49.3162 83.925 49.1503 84.3025C48.9844 84.6799 48.6848 84.9734 48.2493 85.1854L49.5398 89.7842H47.3921L46.362 85.5349H45.779V89.7842H43.7051ZM45.7767 84.3258H46.309C46.733 84.3258 47.0303 84.2163 47.2031 83.9949C47.376 83.7736 47.4635 83.4381 47.4635 82.9932C47.4635 82.5552 47.3852 82.229 47.2285 82.017C47.0718 81.805 46.7999 81.7002 46.415 81.7002H45.7744V84.3258H45.7767Z" fill="white"/>
<path d="M49.7261 89.7842L51.5051 80.2884H53.8509L55.6184 89.7842H53.7034L53.3808 87.7691H52.0097L51.6917 89.7842H49.7261ZM52.1895 86.5133H53.1919L52.6872 82.8371L52.1895 86.5133Z" fill="white"/>
<path d="M56.1323 89.7842V80.2884H58.2109V84.1254H59.6557V80.2884H61.7343V89.7842H59.6557V85.6257H58.2109V89.7842H56.1323Z" fill="white"/>
<path d="M14.8148 100C14.3309 100 13.9207 99.9324 13.5797 99.7973C13.2386 99.6622 12.9713 99.4618 12.7731 99.1986C12.5773 98.9353 12.4344 98.6301 12.3491 98.2877C12.2616 97.9429 12.2178 97.5398 12.2178 97.0762V93.9614C12.2178 93.4862 12.2616 93.0761 12.3491 92.7244C12.4367 92.3749 12.5773 92.0697 12.7731 91.8065C12.969 91.5455 13.2363 91.3475 13.5751 91.217C13.9138 91.0842 14.3263 91.019 14.8125 91.019C15.278 91.019 15.6743 91.0796 16.0039 91.1984C16.3334 91.3172 16.5892 91.4943 16.7758 91.7249C16.9625 91.9579 17.0961 92.2211 17.1768 92.5147C17.2574 92.8105 17.2989 93.153 17.2989 93.5421V94.3109H15.4324V93.4303C15.4324 93.2928 15.4301 93.1903 15.4278 93.1181C15.4255 93.0482 15.4116 92.9573 15.3909 92.8455C15.3702 92.7337 15.3402 92.6521 15.2987 92.5962C15.2596 92.5403 15.1973 92.4891 15.1144 92.4448C15.0314 92.4005 14.93 92.3796 14.8125 92.3796C14.695 92.3796 14.5936 92.4029 14.5106 92.4448C14.4277 92.4891 14.3631 92.5426 14.3194 92.6032C14.2756 92.6661 14.241 92.75 14.2157 92.8571C14.1903 92.9643 14.1742 93.0622 14.1696 93.1507C14.165 93.2392 14.1627 93.3487 14.1627 93.4768V97.5515C14.1627 97.9033 14.2088 98.1712 14.2986 98.3552C14.3885 98.5393 14.5613 98.6325 14.8148 98.6325C14.93 98.6325 15.0268 98.6115 15.1098 98.5672C15.1904 98.523 15.2526 98.4717 15.2941 98.4111C15.3356 98.3506 15.3679 98.2667 15.3909 98.1572C15.4139 98.0477 15.4278 97.9545 15.4301 97.873C15.4347 97.7914 15.4347 97.6843 15.4347 97.5515V96.6336H17.3012V97.3884C17.3012 97.7006 17.2759 97.9848 17.2275 98.2364C17.1791 98.4904 17.0961 98.728 16.9786 98.9516C16.8611 99.1753 16.7113 99.3617 16.5247 99.5131C16.338 99.6645 16.1007 99.7833 15.8126 99.8695C15.5292 99.9557 15.195 100 14.8148 100Z" fill="white"/>
<path d="M21.6772 100C21.1979 100 20.7877 99.9371 20.449 99.8066C20.1102 99.6785 19.8406 99.4875 19.6401 99.2312C19.4396 98.9773 19.2968 98.6767 19.2069 98.3319C19.1193 97.9871 19.0732 97.5818 19.0732 97.1135V93.8869C19.0732 93.4163 19.117 93.0086 19.2069 92.6661C19.2945 92.3236 19.4396 92.0254 19.6401 91.7715C19.8406 91.5176 20.1102 91.3289 20.449 91.203C20.7877 91.0772 21.1979 91.0143 21.6772 91.0143C22.6128 91.0143 23.281 91.2566 23.6866 91.7389C24.0922 92.2211 24.295 92.9387 24.295 93.8869V97.1135C24.295 98.0617 24.0922 98.7792 23.6866 99.2661C23.281 99.7554 22.6128 100 21.6772 100ZM21.3822 98.5719C21.4629 98.6138 21.562 98.6348 21.6772 98.6348C21.7924 98.6348 21.8915 98.6138 21.9745 98.5742C22.0574 98.5346 22.1219 98.4834 22.168 98.4205C22.2141 98.3599 22.2487 98.2783 22.274 98.1805C22.2994 98.0826 22.3155 97.9895 22.3247 97.9033C22.3316 97.8171 22.3362 97.7146 22.3362 97.5957V93.4046C22.3362 93.2881 22.3339 93.188 22.3247 93.1018C22.3178 93.0156 22.3017 92.9247 22.274 92.8268C22.2487 92.7313 22.2118 92.6521 22.168 92.5915C22.1219 92.531 22.0597 92.4821 21.9745 92.4401C21.8915 92.4005 21.7924 92.3795 21.6772 92.3795C21.562 92.3795 21.4652 92.4005 21.3822 92.4401C21.3016 92.4797 21.2371 92.5286 21.191 92.5869C21.1449 92.6451 21.1103 92.7243 21.0873 92.8245C21.0619 92.9247 21.0481 93.0155 21.0435 93.0971C21.0389 93.1786 21.0366 93.2788 21.0366 93.4023V97.5934C21.0366 97.7169 21.0389 97.8194 21.0435 97.9009C21.0481 97.9848 21.0642 98.0757 21.0873 98.1758C21.1126 98.276 21.1472 98.3552 21.191 98.4158C21.2371 98.4787 21.3016 98.5299 21.3822 98.5719Z" fill="white"/>
<path d="M26.27 99.8788L26.4106 91.1378H28.4546L29.4132 96.2515L30.4456 91.1378H32.4227L32.5633 99.8788H31.1968L31.0562 94.0802L30.04 99.8788H28.8463L27.7817 94.0383L27.6526 99.8788H26.27Z" fill="white"/>
<path d="M34.6646 99.8788V91.1378H37.5473C38.3124 91.1378 38.8839 91.3545 39.2618 91.7855C39.6397 92.2165 39.831 92.8478 39.831 93.6725C39.831 93.9987 39.8033 94.2922 39.7457 94.5531C39.6881 94.8141 39.6028 95.0331 39.4922 95.2125C39.3816 95.3918 39.2526 95.5433 39.1074 95.6691C38.9622 95.7949 38.7917 95.8904 38.5958 95.9626C38.4 96.0325 38.2018 96.0838 37.999 96.1141C37.7962 96.1443 37.5704 96.1583 37.3238 96.1583H36.5726V99.8812H34.6646V99.8788ZM36.5726 94.8118H37.1832C37.5266 94.8118 37.757 94.7232 37.8699 94.5462C37.9829 94.3691 38.0382 94.0662 38.0382 93.6422C38.0382 93.4908 38.0336 93.365 38.0243 93.2625C38.0151 93.16 37.9944 93.0575 37.9621 92.9503C37.9299 92.8455 37.8815 92.7616 37.8216 92.701C37.7616 92.6405 37.6764 92.5892 37.5681 92.5496C37.4598 92.51 37.3307 92.4914 37.1763 92.4914H36.5703V94.8118H36.5726Z" fill="white"/>
<path d="M40.7114 99.8788L42.3498 91.1378H44.509L46.1359 99.8788H44.3731L44.0758 98.0221H42.813L42.5204 99.8788H40.7114ZM42.9812 96.8689H43.9053L43.4421 93.4838L42.9812 96.8689Z" fill="white"/>
<path d="M47.855 99.8788V91.1378H49.2007L50.9797 95.3336V91.1378H52.5651V99.8788H51.2724L49.4888 95.3546V99.8788H47.855Z" fill="white"/>
<path d="M54.7012 99.8788V91.1378H56.6092V99.8788H54.7012Z" fill="white"/>
<path d="M61.2275 100C60.7482 100 60.338 99.9371 59.9992 99.8066C59.6605 99.6785 59.3909 99.4875 59.1904 99.2312C58.9899 98.9773 58.8471 98.6767 58.7572 98.3319C58.6696 97.9871 58.6235 97.5818 58.6235 97.1135V93.8869C58.6235 93.4163 58.6673 93.0086 58.7572 92.6661C58.8448 92.3236 58.9899 92.0254 59.1904 91.7715C59.3909 91.5176 59.6605 91.3289 59.9992 91.203C60.338 91.0772 60.7482 91.0143 61.2275 91.0143C62.1631 91.0143 62.8313 91.2566 63.2369 91.7389C63.6425 92.2211 63.8453 92.9387 63.8453 93.8869V97.1135C63.8453 98.0617 63.6425 98.7792 63.2369 99.2661C62.8336 99.7554 62.1631 100 61.2275 100ZM60.9325 98.5719C61.0132 98.6138 61.1123 98.6348 61.2275 98.6348C61.3427 98.6348 61.4418 98.6138 61.5247 98.5742C61.6077 98.5346 61.6722 98.4834 61.7183 98.4205C61.7644 98.3599 61.799 98.2783 61.8243 98.1805C61.8497 98.0826 61.8658 97.9895 61.875 97.9033C61.8819 97.8171 61.8865 97.7146 61.8865 97.5957V93.4046C61.8865 93.2881 61.8842 93.188 61.875 93.1018C61.8681 93.0156 61.852 92.9247 61.8243 92.8268C61.799 92.7313 61.7621 92.6521 61.7183 92.5915C61.6722 92.531 61.61 92.4821 61.5247 92.4401C61.4418 92.4005 61.3427 92.3795 61.2275 92.3795C61.1123 92.3795 61.0155 92.4005 60.9325 92.4401C60.8519 92.4797 60.7873 92.5286 60.7413 92.5869C60.6952 92.6451 60.6606 92.7243 60.6376 92.8245C60.6122 92.9247 60.5984 93.0155 60.5938 93.0971C60.5892 93.1786 60.5869 93.2788 60.5869 93.4023V97.5934C60.5869 97.7169 60.5892 97.8194 60.5938 97.9009C60.5984 97.9848 60.6145 98.0757 60.6376 98.1758C60.6629 98.276 60.6975 98.3552 60.7413 98.4158C60.7873 98.4787 60.8519 98.5299 60.9325 98.5719Z" fill="white"/>
<path d="M65.8477 99.8788V91.1378H67.1934L68.9724 95.3336V91.1378H70.5578V99.8788H69.265L67.4815 95.3546V99.8788H65.8477Z" fill="white"/>
<path d="M74.9706 100C74.1502 100 73.5396 99.7787 73.1386 99.3384C72.7376 98.8981 72.521 98.1945 72.4888 97.2277L74.1272 96.9737C74.1341 97.5212 74.1986 97.9196 74.3231 98.1665C74.4475 98.4135 74.6318 98.5393 74.8784 98.5393C75.201 98.5393 75.3623 98.3273 75.3623 97.9079C75.3623 97.6726 75.3208 97.456 75.2379 97.2579C75.1549 97.0599 75.0512 96.8899 74.9314 96.7501C74.8093 96.6103 74.6388 96.4449 74.4198 96.2538L73.6525 95.5852C73.4681 95.4245 73.316 95.2754 73.1939 95.1426C73.0718 95.0098 72.9542 94.849 72.8367 94.665C72.7192 94.4809 72.6339 94.2759 72.5786 94.05C72.5233 93.824 72.4957 93.577 72.4957 93.3068C72.4957 92.5799 72.7123 92.0161 73.1432 91.6201C73.5741 91.224 74.1641 91.0237 74.9153 91.019C75.1734 91.019 75.4061 91.047 75.6158 91.1029C75.8255 91.1588 76.0029 91.2333 76.1481 91.3242C76.2933 91.4151 76.42 91.5315 76.5283 91.669C76.639 91.8088 76.7242 91.9462 76.7887 92.086C76.8533 92.2258 76.9063 92.3819 76.95 92.5543C76.9938 92.729 77.0238 92.8874 77.0376 93.0319C77.0537 93.1763 77.0653 93.3301 77.0722 93.4955L75.4199 93.7121C75.4153 93.5654 75.413 93.4419 75.4061 93.3464C75.4015 93.2509 75.3923 93.146 75.3785 93.0389C75.3646 92.9294 75.3462 92.8408 75.3208 92.7756C75.2955 92.708 75.2632 92.6475 75.2241 92.5892C75.1849 92.531 75.1342 92.4891 75.072 92.4658C75.0121 92.4401 74.9383 92.4308 74.8554 92.4331C74.6894 92.4355 74.5604 92.5077 74.4728 92.6475C74.3853 92.7873 74.3392 92.941 74.3392 93.1134C74.3392 93.2788 74.3599 93.4279 74.3991 93.563C74.4383 93.6982 74.5097 93.8286 74.6088 93.9568C74.7079 94.0826 74.7885 94.1781 74.8508 94.241C74.913 94.3039 75.0167 94.4017 75.1641 94.5369L75.8992 95.1915C76.0997 95.3732 76.2749 95.5479 76.42 95.7157C76.5652 95.8834 76.7058 96.0721 76.8371 96.2841C76.9685 96.4961 77.0699 96.7314 77.1367 96.9854C77.2035 97.2393 77.2381 97.5142 77.2381 97.8054C77.2381 98.4391 77.0284 98.9633 76.6136 99.378C76.1965 99.7903 75.6481 100 74.9706 100Z" fill="white"/>
<path d="M0 88.6148H14.0798C18.4212 87.6223 23.1936 85.8191 28.3001 84.1953V80.7823L11.803 85.9449L0 88.6148Z" fill="white"/>
<path d="M34.1094 78.9395H46H58.5888L46 74.9604L34.1094 78.9395Z" fill="white"/>
<path d="M80.1995 85.7026L63.0664 80.3397V83.8692C68.4149 85.4813 73.4015 87.3357 77.9227 88.3701H92.0025L80.1995 85.7026Z" fill="white"/>
</g>
<defs>
<clipPath id="clip0_122_1201">
<rect width="92" height="100" fill="white"/>
</clipPath>
</defs>
</svg>
