<svg width="419" height="80" viewBox="0 0 419 80" fill="none" xmlns="http://www.w3.org/2000/svg">
<g clip-path="url(#clip0_1034_4)">
<path d="M63.579 72.1143V79.2481H0.533325V73.5639L51.5008 8.373H1.32747V1.23914H62.2633V6.92337L11.4261 72.1143H63.579Z" fill="#7ACBC7"/>
<path d="M79.61 1.23914H87.7351V79.2481H79.61V1.23914Z" fill="#7ACBC7"/>
<path d="M176.999 1.23914V79.2481H170.297L120.894 15.9519V79.2481H112.768V1.23914H119.465L168.981 64.5353V1.23914H176.999Z" fill="#7ACBC7"/>
<path d="M202.033 1.23914H233.324C241.451 1.23914 248.626 2.89327 254.849 6.20157C260.875 9.32457 265.9 14.1228 269.339 20.0362C272.777 25.9429 274.497 32.6858 274.501 40.2647C274.505 47.8437 272.784 54.5845 269.339 60.4872C265.9 66.4006 260.875 71.1988 254.849 74.3218C248.626 77.6301 241.451 79.2842 233.324 79.2842H202.033V1.23914ZM232.886 72.1143C239.602 72.1143 245.495 70.7591 250.564 68.0481C255.447 65.4959 259.519 61.5946 262.311 56.794C265.076 51.982 266.459 46.4662 266.459 40.2467C266.459 34.0271 265.076 28.5093 262.311 23.6933C259.519 18.893 255.447 14.9916 250.564 12.4392C245.515 9.73239 239.622 8.37697 232.886 8.373H210.152V72.1323L232.886 72.1143Z" fill="#7ACBC7"/>
<path d="M292.707 1.23914H300.832V79.2481H292.707V1.23914Z" fill="#7ACBC7"/>
<path d="M380.004 40.2466H387.803V69.997C384.079 73.2704 379.758 75.7702 375.085 77.3534C370.099 79.0743 364.865 79.9404 359.599 79.9158C351.911 79.9158 344.996 78.2075 338.857 74.791C332.831 71.4953 327.816 66.5798 324.361 60.5835C320.907 54.3775 319.092 47.371 319.092 40.2436C319.092 33.1162 320.907 26.1097 324.361 19.9038C327.818 13.9089 332.833 8.99404 338.857 5.69624C344.989 2.29974 351.929 0.601497 359.676 0.601497C365.181 0.53975 370.651 1.5041 375.814 3.44662C380.544 5.22756 384.795 8.11218 388.224 11.8677L383.169 17.1068C377.096 11.0155 369.374 7.96992 360.002 7.96992C354.126 7.88078 348.326 9.32 343.153 12.1504C338.24 14.8323 334.154 18.8419 331.348 23.7353C328.484 28.7475 327.009 34.4529 327.081 40.2466C327.003 46.0359 328.484 51.7369 331.366 56.7338C334.179 61.6024 338.238 65.6078 343.112 68.3248C348.257 71.185 354.047 72.6364 359.913 72.5353C367.815 72.5353 374.512 70.5305 380.004 66.5203V40.2466Z" fill="#7ACBC7"/>
<path d="M410.745 1.23914H418.87V79.2481H410.745V1.23914Z" fill="#7ACBC7"/>
</g>
<defs>
<clipPath id="clip0_1034_4">
<rect width="419" height="80" fill="white"/>
</clipPath>
</defs>
</svg>
