<svg width="30" height="30" viewBox="0 0 30 30" fill="none" xmlns="http://www.w3.org/2000/svg">
<g clip-path="url(#clip0_285_5316)">
<path d="M30 15C30 23.2819 23.2881 29.9963 15.0069 30H14.845C14.1179 29.9924 13.3923 29.9325 12.6738 29.8206C12.0854 29.7297 11.5031 29.6032 10.93 29.4419C7.7836 28.554 5.01326 26.6629 3.04032 24.056C1.06739 21.4492 -0.000176144 18.2693 2.17993e-08 15C2.17993e-08 6.71688 6.71375 5.98418e-06 15 5.98418e-06H15.0069C17.0476 -0.00181957 19.067 0.414057 20.9409 1.22203C22.8149 2.03001 24.5036 3.21298 25.9031 4.69813C28.5354 7.48216 30.0014 11.1686 30 15Z" fill="white"/>
<path d="M11.2119 10.5389V11.2139H9.03125L2.90625 6.12082C3.28485 5.60581 3.69611 5.11564 4.1375 4.65332L11.2119 10.5389Z" fill="#C8102E"/>
<path d="M27.1141 6.14809L21.0247 11.2106H18.7891V10.5843L25.8878 4.67871L25.9066 4.69809C26.3157 5.12943 26.6985 5.58505 27.0528 6.06246L27.1141 6.14809Z" fill="#C8102E"/>
<path d="M11.2112 18.7852V19.4602L4.13687 25.347C4.07437 25.2845 4.01188 25.217 3.95312 25.1514C3.58099 24.7471 3.2315 24.3225 2.90625 23.8795L9.03125 18.7852H11.2112Z" fill="#C8102E"/>
<path d="M27.1147 23.8514C26.7376 24.3668 26.328 24.8576 25.8884 25.3208L18.7891 19.4145V18.7852H21.0247L27.1147 23.8514Z" fill="#C8102E"/>
<path d="M5.99313 11.2138H0.484375C0.79733 10.0137 1.25925 8.85741 1.85938 7.77197L5.99313 11.2138Z" fill="#012169"/>
<path d="M5.86875 18.785L1.815 22.1563C1.2357 21.091 0.788844 19.9588 0.484375 18.785H5.86875Z" fill="#012169"/>
<path d="M11.2197 21.9551V29.5176C11.1247 29.4932 11.0322 29.4676 10.9353 29.4407C8.96984 28.8872 7.13863 27.9368 5.55469 26.6482L11.2197 21.9551Z" fill="#012169"/>
<path d="M11.2134 0.481934V7.92568L5.63281 3.28318C7.27507 1.96697 9.17676 1.01239 11.2134 0.481934Z" fill="#012169"/>
<path d="M24.4553 3.35305L18.7891 8.04992V0.482422L18.8747 0.504297C20.9154 1.04867 22.8174 2.01961 24.4553 3.35305Z" fill="#012169"/>
<path d="M29.5234 11.2136H24.1484L28.1928 7.84863C28.7715 8.91202 29.2184 10.042 29.5234 11.2136Z" fill="#012169"/>
<path d="M24.5003 26.6111C22.829 27.9814 20.8805 28.9732 18.7891 29.518V21.8599L24.5003 26.6111Z" fill="#012169"/>
<path d="M29.5234 18.7852C29.2255 19.9306 28.7922 21.0365 28.2328 22.0795L24.2734 18.7852H29.5234Z" fill="#012169"/>
<path d="M30 14.8431V15.1425C29.9935 15.8419 29.9386 16.54 29.8356 17.2319H17.2319V29.835C16.5444 29.9376 15.8507 29.9927 15.1556 30H14.8431C14.1478 29.9928 13.4539 29.9375 12.7662 29.8344V17.2319H0.165C0.062439 16.5436 0.00730912 15.849 0 15.1531C0 15.055 0 14.9563 0 14.8575C0.00646581 14.1579 0.0613889 13.4595 0.164375 12.7675H12.7681V0.165C13.4226 0.0671525 14.0827 0.0120358 14.7444 0L15.2281 0C15.8595 0.00902751 16.4897 0.0578745 17.115 0.14625L17.2319 0.16375V12.7675H29.835C29.9376 13.4548 29.9927 14.1483 30 14.8431Z" fill="#C8102E"/>
</g>
<defs>
<clipPath id="clip0_285_5316">
<rect width="30" height="30" fill="white"/>
</clipPath>
</defs>
</svg>
