<svg width="17" height="17" viewBox="0 0 17 17" fill="none" xmlns="http://www.w3.org/2000/svg">
<path d="M16.8866 7.16539L15.1919 3.77469C15.1294 3.64989 15.043 3.53861 14.9376 3.4472C14.8322 3.3558 14.7097 3.28606 14.5773 3.24197C14.445 3.19788 14.3052 3.1803 14.166 3.19024C14.0268 3.20017 13.8909 3.23743 13.7661 3.29988L12.1146 4.12531L8.63558 3.20492C8.54632 3.18169 8.45259 3.18169 8.36332 3.20492L4.8843 4.12531L3.23277 3.29988C3.10798 3.23743 2.97211 3.20017 2.83292 3.19024C2.69373 3.1803 2.55395 3.19788 2.42155 3.24197C2.28916 3.28606 2.16675 3.3558 2.0613 3.4472C1.95586 3.53861 1.86946 3.64989 1.80703 3.77469L0.112343 7.16473C0.0498917 7.28952 0.012634 7.42539 0.00269727 7.56458C-0.00723944 7.70377 0.0103395 7.84355 0.0544302 7.97595C0.0985209 8.10834 0.16826 8.23075 0.259664 8.3362C0.351068 8.44164 0.462348 8.52804 0.587147 8.59047L2.38012 9.48762L6.065 12.1193C6.1193 12.1579 6.18033 12.1861 6.24496 12.2023L10.495 13.2648C10.584 13.2871 10.6772 13.286 10.7657 13.2616C10.8541 13.2371 10.9347 13.1902 10.9996 13.1254L14.6566 9.4677L16.4111 8.59047C16.663 8.46438 16.8545 8.24345 16.9435 7.97622C17.0325 7.70899 17.0118 7.41735 16.8859 7.16539H16.8866ZM13.2415 9.38137L10.9565 7.55121C10.8541 7.46923 10.725 7.42801 10.5941 7.43549C10.4632 7.44297 10.3396 7.49862 10.2473 7.59172C9.06457 8.78305 7.74641 8.63231 6.9057 8.10106L9.77711 5.31199H11.8895L13.6964 8.92516L13.2415 9.38137ZM2.7573 4.24949L4.11664 4.92817L2.41863 8.3182L1.06195 7.6402L2.7573 4.24949ZM10.4604 12.1605L6.60156 11.1963L3.33437 8.86274L5.19375 5.14399L8.49945 4.26809L9.15023 4.44008L6.16195 7.3407L6.15664 7.34668C6.04415 7.45917 5.95836 7.59548 5.90559 7.74556C5.85282 7.89563 5.83443 8.05564 5.85177 8.21378C5.8691 8.37191 5.92173 8.52413 6.00576 8.65921C6.08979 8.79429 6.20308 8.90878 6.33727 8.99422C7.70258 9.86613 9.35012 9.72469 10.6477 8.66219L12.4838 10.1371L10.4604 12.1605ZM14.5776 8.31754L12.8829 4.93082L14.2416 4.24949L15.937 7.6402L14.5776 8.31754ZM8.75047 14.4714C8.72177 14.5862 8.65555 14.6882 8.56231 14.7611C8.46908 14.834 8.35417 14.8737 8.23582 14.8738C8.19217 14.8738 8.14869 14.8684 8.10633 14.8579L5.33918 14.1659C5.27446 14.15 5.21338 14.1218 5.15922 14.0829L3.40941 12.8332C3.30182 12.7487 3.23096 12.626 3.21159 12.4906C3.19222 12.3551 3.22583 12.2175 3.30542 12.1062C3.385 11.995 3.50444 11.9187 3.63885 11.8933C3.77327 11.8679 3.9123 11.8953 4.02699 11.9699L5.69445 13.1612L8.36664 13.8279C8.5033 13.8621 8.62078 13.9492 8.69326 14.07C8.76574 14.1908 8.78727 14.3354 8.75312 14.4721L8.75047 14.4714Z" fill="white"/>
</svg>
