<svg width="14" height="15" viewBox="0 0 14 15" fill="none" xmlns="http://www.w3.org/2000/svg">
<path d="M7 0.59375C5.63408 0.59375 4.29882 0.998794 3.1631 1.75766C2.02737 2.51653 1.14218 3.59514 0.61946 4.85709C0.0967424 6.11904 -0.0400244 7.50766 0.226455 8.84734C0.492934 10.187 1.15069 11.4176 2.11655 12.3835C3.0824 13.3493 4.31298 14.0071 5.65266 14.2735C6.99234 14.54 8.38096 14.4033 9.64291 13.8805C10.9049 13.3578 11.9835 12.4726 12.7423 11.3369C13.5012 10.2012 13.9063 8.86593 13.9063 7.5C13.9041 5.669 13.1758 3.91359 11.8811 2.61887C10.5864 1.32416 8.83101 0.595859 7 0.59375ZM12.8185 6.96875H10.1736C10.0547 4.54426 9.12102 2.82965 8.35535 1.81562C9.54421 2.10111 10.6139 2.75153 11.4144 3.67567C12.2149 4.59982 12.7062 5.75133 12.8192 6.96875H12.8185ZM4.89028 8.03125H9.10973C8.95633 10.7944 7.63352 12.4878 7 13.1445C6.36582 12.4871 5.04367 10.7937 4.89028 8.03125ZM4.89028 6.96875C5.04367 4.20559 6.36649 2.51223 7 1.85547C7.63418 2.51488 8.95633 4.20824 9.10973 6.96875H4.89028ZM5.64465 1.81562C4.87899 2.82965 3.94532 4.54426 3.82645 6.96875H1.18082C1.29384 5.75133 1.78506 4.59982 2.58558 3.67567C3.38611 2.75153 4.4558 2.10111 5.64465 1.81562ZM1.18082 8.03125H3.82645C3.94731 10.4557 4.87899 12.1704 5.64465 13.1844C4.4558 12.8989 3.38611 12.2485 2.58558 11.3243C1.78506 10.4002 1.29384 9.24867 1.18082 8.03125ZM8.3527 13.1844C9.11836 12.1704 10.05 10.4557 10.1709 8.03125H12.8165C12.7037 9.24832 12.2128 10.3996 11.4128 11.3237C10.6128 12.2478 9.54372 12.8984 8.35535 13.1844H8.3527Z" fill="white"/>
</svg>
