<svg width="17" height="17" viewBox="0 0 17 17" fill="none" xmlns="http://www.w3.org/2000/svg">
<path d="M14.9985 6.82789C14.7482 6.56625 14.4892 6.29664 14.3916 6.05957C14.3013 5.84242 14.2959 5.4825 14.2906 5.13387C14.2807 4.48574 14.27 3.75129 13.7594 3.24062C13.2487 2.72996 12.5143 2.71934 11.8661 2.70937C11.5175 2.70406 11.1576 2.69875 10.9404 2.60844C10.704 2.51082 10.4337 2.25184 10.1721 2.00148C9.71391 1.56121 9.19328 1.0625 8.5 1.0625C7.80672 1.0625 7.28676 1.56121 6.82789 2.00148C6.56625 2.25184 6.29664 2.51082 6.05957 2.60844C5.84375 2.69875 5.4825 2.70406 5.13387 2.70937C4.48574 2.71934 3.75129 2.72996 3.24062 3.24062C2.72996 3.75129 2.72266 4.48574 2.70937 5.13387C2.70406 5.4825 2.69875 5.84242 2.60844 6.05957C2.51082 6.29598 2.25184 6.56625 2.00148 6.82789C1.56121 7.28609 1.0625 7.80672 1.0625 8.5C1.0625 9.19328 1.56121 9.71324 2.00148 10.1721C2.25184 10.4337 2.51082 10.7034 2.60844 10.9404C2.69875 11.1576 2.70406 11.5175 2.70937 11.8661C2.71934 12.5143 2.72996 13.2487 3.24062 13.7594C3.75129 14.27 4.48574 14.2807 5.13387 14.2906C5.4825 14.2959 5.84242 14.3013 6.05957 14.3916C6.29598 14.4892 6.56625 14.7482 6.82789 14.9985C7.28609 15.4388 7.80672 15.9375 8.5 15.9375C9.19328 15.9375 9.71324 15.4388 10.1721 14.9985C10.4337 14.7482 10.7034 14.4892 10.9404 14.3916C11.1576 14.3013 11.5175 14.2959 11.8661 14.2906C12.5143 14.2807 13.2487 14.27 13.7594 13.7594C14.27 13.2487 14.2807 12.5143 14.2906 11.8661C14.2959 11.5175 14.3013 11.1576 14.3916 10.9404C14.4892 10.704 14.7482 10.4337 14.9985 10.1721C15.4388 9.71391 15.9375 9.19328 15.9375 8.5C15.9375 7.80672 15.4388 7.28676 14.9985 6.82789ZM14.2315 9.43699C13.9134 9.76902 13.5841 10.1123 13.4094 10.534C13.2421 10.9391 13.2348 11.402 13.2281 11.8502C13.2215 12.315 13.2142 12.8018 13.0077 13.0077C12.8011 13.2135 12.3177 13.2215 11.8502 13.2281C11.402 13.2348 10.9391 13.2421 10.534 13.4094C10.1123 13.5841 9.76902 13.9134 9.43699 14.2315C9.10496 14.5496 8.76562 14.875 8.5 14.875C8.23438 14.875 7.89238 14.5483 7.56301 14.2315C7.23363 13.9148 6.88766 13.5841 6.46598 13.4094C6.0609 13.2421 5.59805 13.2348 5.14981 13.2281C4.68496 13.2215 4.1982 13.2142 3.99234 13.0077C3.78648 12.8011 3.77852 12.3177 3.77187 11.8502C3.76523 11.402 3.75793 10.9391 3.59059 10.534C3.41594 10.1123 3.08656 9.76902 2.76848 9.43699C2.45039 9.10496 2.125 8.76562 2.125 8.5C2.125 8.23438 2.45172 7.89238 2.76848 7.56301C3.08523 7.23363 3.41594 6.88766 3.59059 6.46598C3.75793 6.0609 3.76523 5.59805 3.77187 5.14981C3.77852 4.68496 3.78582 4.1982 3.99234 3.99234C4.19887 3.78648 4.6823 3.77852 5.14981 3.77187C5.59805 3.76523 6.0609 3.75793 6.46598 3.59059C6.88766 3.41594 7.23098 3.08656 7.56301 2.76848C7.89504 2.45039 8.23438 2.125 8.5 2.125C8.76562 2.125 9.10762 2.45172 9.43699 2.76848C9.76637 3.08523 10.1123 3.41594 10.534 3.59059C10.9391 3.75793 11.402 3.76523 11.8502 3.77187C12.315 3.77852 12.8018 3.78582 13.0077 3.99234C13.2135 4.19887 13.2215 4.6823 13.2281 5.14981C13.2348 5.59805 13.2421 6.0609 13.4094 6.46598C13.5841 6.88766 13.9134 7.23098 14.2315 7.56301C14.5496 7.89504 14.875 8.23438 14.875 8.5C14.875 8.76562 14.5483 9.10762 14.2315 9.43699ZM11.5321 6.53039C11.5815 6.57973 11.6207 6.63832 11.6474 6.70281C11.6742 6.76731 11.6879 6.83644 11.6879 6.90625C11.6879 6.97606 11.6742 7.04519 11.6474 7.10969C11.6207 7.17418 11.5815 7.23277 11.5321 7.28211L7.81336 11.0009C7.76402 11.0503 7.70543 11.0894 7.64094 11.1162C7.57644 11.1429 7.50731 11.1567 7.4375 11.1567C7.36769 11.1567 7.29856 11.1429 7.23406 11.1162C7.16957 11.0894 7.11098 11.0503 7.06164 11.0009L5.46789 9.40711C5.36821 9.30743 5.3122 9.17222 5.3122 9.03125C5.3122 8.89028 5.36821 8.75507 5.46789 8.65539C5.56757 8.55571 5.70278 8.4997 5.84375 8.4997C5.98472 8.4997 6.11993 8.55571 6.21961 8.65539L7.4375 9.87395L10.7804 6.53039C10.8297 6.481 10.8883 6.44181 10.9528 6.41508C11.0173 6.38834 11.0864 6.37458 11.1562 6.37458C11.2261 6.37458 11.2952 6.38834 11.3597 6.41508C11.4242 6.44181 11.4828 6.481 11.5321 6.53039Z" fill="white"/>
</svg>
