<svg width="16" height="15" viewBox="0 0 16 15" fill="none" xmlns="http://www.w3.org/2000/svg">
<g clip-path="url(#clip0_539_26)">
<path d="M15.1754 9.98755V11.967C15.1756 12.5277 14.7212 12.9823 14.1605 12.9824H14.1604H13.3142C12.7534 12.9824 12.2989 12.5278 12.2988 11.967V11.0026H14.1604C14.721 11.0026 15.1754 10.5482 15.1754 9.98755Z" fill="white"/>
<path d="M13.1535 2.6802L14.3125 5.80808H12.8064C12.8064 4.77078 11.9655 3.92988 10.9282 3.92988C9.89085 3.92988 9.04995 4.77078 9.04995 5.80808H1.89258L3.05155 2.6802C3.19908 2.28203 3.57883 2.0177 4.00348 2.0177H12.2016C12.6262 2.0178 13.0059 2.28206 13.1535 2.6802Z" fill="white"/>
<path d="M13.6852 7.73694H11.2656V9.39527H13.6852V7.73694Z" fill="white"/>
<path d="M12.8052 5.80809H9.04883C9.04934 4.77079 9.89062 3.93031 10.9279 3.93079C11.9645 3.9313 12.8047 4.77149 12.8052 5.80809Z" fill="white"/>
<path d="M4.734 7.73694H2.31445V9.39527H4.734V7.73694Z" fill="white"/>
<path d="M3.70277 11.0196V11.967C3.70274 12.5278 3.24816 12.9824 2.68739 12.9824H1.84124C1.28056 12.9824 0.826108 12.5278 0.826172 11.9672V11.967V9.98755C0.826204 10.5482 1.28063 11.0026 1.84124 11.0026H3.70277V11.0196Z" fill="white"/>
<path d="M4.73421 9.71574H2.31465C2.13763 9.71574 1.99414 9.57225 1.99414 9.39523V7.73689C1.99414 7.55988 2.13763 7.41638 2.31465 7.41638H4.73421C4.91122 7.41638 5.05472 7.55988 5.05472 7.73689V9.39523C5.05472 9.57225 4.91122 9.71574 4.73421 9.71574ZM2.63517 9.07472H4.41369V8.05741H2.63517V9.07472Z" fill="#24B3BA"/>
<path d="M13.6854 9.71574H11.2658C11.0888 9.71574 10.9453 9.57225 10.9453 9.39523V7.73689C10.9453 7.55988 11.0888 7.41638 11.2658 7.41638H13.6854C13.8624 7.41638 14.0059 7.55988 14.0059 7.73689V9.39523C14.0059 9.57225 13.8624 9.71574 13.6854 9.71574ZM11.5863 9.07472H13.3649V8.05741H11.5863V9.07472Z" fill="#24B3BA"/>
<path d="M14.9272 6.01129L14.6014 5.66434L13.4537 2.56944C13.2578 2.04681 12.7588 1.70008 12.2006 1.69873H4.00256C3.44446 1.69988 2.94545 2.04681 2.75 2.5696L1.6176 5.62559L1.14744 6.06014C0.737147 6.40976 0.500545 6.92155 0.5 7.46062V11.967C0.503301 12.7051 1.10266 13.3015 1.84071 13.3013H2.68686C3.42455 13.3015 4.0233 12.7047 4.02564 11.967V11.3141H11.9744V11.967C11.9767 12.7047 12.5754 13.3015 13.3131 13.3013H14.1593C14.8973 13.3015 15.4967 12.7051 15.5 11.967V7.34427C15.4983 6.84056 15.2915 6.35924 14.9272 6.01129ZM3.35122 2.78889C3.45327 2.51787 3.71298 2.33879 4.00256 2.33976H12.2006C12.4902 2.33895 12.7498 2.51799 12.852 2.78895L13.851 5.48078H13.1023C12.9248 4.2795 11.8071 3.4496 10.6058 3.62713C9.64686 3.76883 8.89385 4.52184 8.75215 5.48078H2.35224L3.35122 2.78889ZM12.4516 5.48078H9.40288C9.57987 4.63889 10.4058 4.09988 11.2477 4.27684C11.8522 4.40392 12.3246 4.87626 12.4516 5.48078ZM3.38462 11.967C3.38269 12.3508 3.07071 12.6608 2.68686 12.6603H1.84071C1.45654 12.6609 1.14394 12.3512 1.14103 11.967V11.1279C1.33333 11.2516 1.58654 11.3141 1.84071 11.3141H3.38462V11.967ZM14.1593 12.6603H13.3131C12.9293 12.6608 12.6173 12.3508 12.6154 11.967V11.3141H14.1593C14.4135 11.3141 14.6667 11.2516 14.859 11.1279V11.967C14.8561 12.3512 14.5435 12.6609 14.1593 12.6603ZM14.1593 10.6731H1.84071C1.45849 10.6773 1.14522 10.3708 1.14103 9.9886C1.14103 9.98825 1.14103 9.9879 1.14103 9.98754V7.46062C1.1417 7.10713 1.29785 6.77181 1.56798 6.54376C1.57167 6.54056 1.57654 6.53415 1.5801 6.53078L2.01766 6.12181H14.1566L14.463 6.4528C14.4676 6.45767 14.4749 6.46408 14.4797 6.46883C14.7205 6.69652 14.8576 7.0129 14.859 7.34427V9.98754C14.8554 10.3698 14.5426 10.6767 14.1604 10.6731C14.16 10.6731 14.1596 10.6731 14.1593 10.6731Z" fill="#15325A"/>
<path d="M9.54817 9.37723H6.45137C6.27435 9.37723 6.13086 9.23374 6.13086 9.05672C6.13086 8.8797 6.27435 8.73621 6.45137 8.73621H9.54817C9.72519 8.73621 9.86868 8.8797 9.86868 9.05672C9.86868 9.23374 9.72519 9.37723 9.54817 9.37723Z" fill="#24B3BA"/>
<path d="M9.54817 8.39591H6.45137C6.27435 8.39591 6.13086 8.25241 6.13086 8.0754C6.13086 7.89838 6.27435 7.75488 6.45137 7.75488H9.54817C9.72519 7.75488 9.86868 7.89838 9.86868 8.0754C9.86868 8.25241 9.72519 8.39591 9.54817 8.39591Z" fill="#24B3BA"/>
</g>
<defs>
<clipPath id="clip0_539_26">
<rect width="15" height="15" fill="white" transform="translate(0.5)"/>
</clipPath>
</defs>
</svg>
