<svg width="24" height="21" viewBox="0 0 24 21" fill="none" xmlns="http://www.w3.org/2000/svg">
<path d="M21.4515 16.3975C21.217 16.3975 21.0269 16.5877 21.0269 16.8222V18.3766C21.0269 19.0802 20.4564 19.6506 19.7528 19.6506H2.40859C1.70495 19.6506 1.13453 19.0802 1.13453 18.3766V4.78658C1.13453 4.08294 1.70495 3.51252 2.40859 3.51252H6.57901C6.81356 3.51252 7.0037 3.32238 7.0037 3.08783C7.0037 2.85329 6.81356 2.66315 6.57901 2.66315H2.40859C1.23585 2.66315 0.285156 3.61384 0.285156 4.78658V18.3766C0.285156 19.5493 1.23585 20.5 2.40859 20.5H19.7528C20.9236 20.4953 21.8716 19.5474 21.8762 18.3766V16.8222C21.8762 16.5877 21.6861 16.3975 21.4515 16.3975Z" fill="#A5A5A7" stroke="#A5A5A7" stroke-width="0.3"/>
<path d="M21.9423 9.29773H21.8744V4.78755C21.8697 3.61675 20.9217 2.66877 19.7509 2.66412C19.5164 2.66412 19.3262 2.85426 19.3262 3.08881C19.3262 3.32335 19.5164 3.51349 19.7509 3.51349C20.4546 3.51349 21.025 4.08391 21.025 4.78755V5.02538H20.5493L18.0012 2.47726L16.1496 0.625622C16.0698 0.545223 15.9613 0.5 15.8481 0.5C15.7348 0.5 15.6263 0.545223 15.5465 0.625622L13.3042 2.86797L11.0533 0.625622C10.8853 0.462726 10.6183 0.462726 10.4503 0.625622L6.05053 5.02538H4.53016C4.29561 5.02538 4.10547 5.21552 4.10547 5.45006C4.10547 5.68461 4.29561 5.87475 4.53016 5.87475H21.025V9.27225H18.5448C16.903 9.27225 15.572 10.6032 15.572 12.2451V12.5678C15.572 14.2097 16.903 15.5406 18.5448 15.5406H21.9423C22.646 15.5406 23.2164 14.9702 23.2164 14.2666V10.5718C23.2164 9.86814 22.646 9.29773 21.9423 9.29773ZM15.8523 1.52596L17.0839 2.75755C16.3391 3.25797 15.3655 3.25797 14.6207 2.75755L15.8523 1.52596ZM14.0177 3.36061C15.101 4.18751 16.6036 4.18751 17.687 3.36061L19.3857 5.05935H15.4531L13.8987 3.47102L14.0177 3.36061ZM9.09129 5.05935L11.6394 2.51123L12.234 3.10579L10.2804 5.02538L9.09129 5.05935ZM12.871 3.67487L14.298 5.02538H11.478L12.871 3.67487ZM10.7561 1.52596L11.0703 1.84023L7.88518 5.02538H7.25665L10.7561 1.52596ZM22.367 14.2666C22.367 14.5011 22.1769 14.6913 21.9423 14.6913H18.5448C17.9817 14.6913 17.4416 14.4675 17.0433 14.0693C16.6451 13.6711 16.4214 13.131 16.4214 12.5678V12.2451C16.4214 11.0723 17.3721 10.1216 18.5448 10.1216H21.9423C22.1769 10.1216 22.367 10.3118 22.367 10.5463V14.2666Z" fill="#A5A5A7" stroke="#A5A5A7" stroke-width="0.3"/>
<path d="M18.615 13.2809C19.0841 13.2809 19.4644 12.9006 19.4644 12.4315C19.4644 11.9624 19.0841 11.5821 18.615 11.5821C18.1459 11.5821 17.7656 11.9624 17.7656 12.4315C17.7656 12.9006 18.1459 13.2809 18.615 13.2809Z" fill="#A5A5A7"/>
</svg>
