<svg width="80" height="80" viewBox="0 0 80 80" fill="none" xmlns="http://www.w3.org/2000/svg">
<circle cx="40" cy="40" r="40" fill="#1D3A6D"/>
<circle cx="40" cy="40" r="29.5" fill="#1D3A6D" stroke="#A6A6A8" stroke-linecap="round" stroke-dasharray="5 5"/>
<path d="M54.5715 46.3338H47.6227C47.509 46.3338 47.4 46.2897 47.3196 46.2113C47.2392 46.133 47.1941 46.0266 47.1941 45.9158C47.1941 45.8049 47.2392 45.6986 47.3196 45.6202C47.4 45.5418 47.509 45.4978 47.6227 45.4978H54.1429V38.0146H47.8001C47.6864 38.0146 47.5774 37.9705 47.497 37.8921C47.4167 37.8138 47.3715 37.7074 47.3715 37.5966C47.3715 37.4857 47.4167 37.3794 47.497 37.301C47.5774 37.2226 47.6864 37.1786 47.8001 37.1786H54.5715C54.6852 37.1786 54.7942 37.2226 54.8746 37.301C54.9549 37.3794 55.0001 37.4857 55.0001 37.5966V45.9145C55.0003 45.9695 54.9893 46.024 54.9678 46.0749C54.9464 46.1257 54.9148 46.1719 54.875 46.2109C54.8352 46.2498 54.7879 46.2807 54.7358 46.3018C54.6837 46.3229 54.6279 46.3338 54.5715 46.3338Z" fill="white"/>
<path d="M52.1354 52H27.8646C27.1052 51.9992 26.3771 51.7047 25.84 51.181C25.303 50.6573 25.0009 49.9473 25 49.2066V34.6606C25.0009 33.92 25.303 33.2099 25.84 32.6862C26.3771 32.1625 27.1052 31.868 27.8646 31.8672H33.8114L34.6917 29.2218C34.8116 28.8666 35.0433 28.5573 35.3539 28.3379C35.6644 28.1186 36.038 28.0003 36.4214 28H43.585C43.9683 27.999 44.3419 28.1171 44.6518 28.3371C44.9617 28.557 45.1918 28.8675 45.3087 29.2235L46.1886 31.8681H52.1354C52.8948 31.8688 53.6229 32.1634 54.16 32.6871C54.697 33.2107 54.9991 33.9208 55 34.6615V49.2074C54.9989 49.9479 54.6967 50.6578 54.1597 51.1813C53.6227 51.7048 52.8947 51.9992 52.1354 52ZM27.8646 32.704C27.3324 32.7046 26.8222 32.911 26.4459 33.2779C26.0696 33.6449 25.8578 34.1425 25.8571 34.6615V49.2074C25.8578 49.7264 26.0696 50.224 26.4459 50.591C26.8222 50.9579 27.3324 51.1643 27.8646 51.1649H52.1354C52.6677 51.1643 53.1781 50.9578 53.5544 50.5907C53.9308 50.2235 54.1424 49.7257 54.1429 49.2066V34.6606C54.1422 34.1416 53.9304 33.6441 53.5541 33.2771C53.1778 32.9101 52.6676 32.7038 52.1354 32.7032H45.8783C45.7878 32.7032 45.6996 32.6752 45.6264 32.6234C45.5532 32.5715 45.4987 32.4983 45.4707 32.4144L44.4936 29.4797C44.4305 29.2931 44.309 29.1305 44.1461 29.0149C43.9833 28.8992 43.7873 28.8364 43.5859 28.8351H36.4214C36.2184 28.8356 36.0207 28.8984 35.8565 29.0147C35.6922 29.131 35.5697 29.2949 35.5064 29.483L34.5301 32.4144C34.5022 32.4983 34.4477 32.5715 34.3745 32.6234C34.3013 32.6752 34.2131 32.7032 34.1226 32.7032L27.8646 32.704Z" fill="white"/>
<path d="M42.5714 30.6371H37.4354C37.3218 30.6371 37.2128 30.5931 37.1324 30.5147C37.052 30.4363 37.0069 30.33 37.0069 30.2191C37.0069 30.1083 37.052 30.002 37.1324 29.9236C37.2128 29.8452 37.3218 29.8011 37.4354 29.8011H42.5714C42.6851 29.8011 42.7941 29.8452 42.8745 29.9236C42.9548 30.002 43 30.1083 43 30.2191C43 30.33 42.9548 30.4363 42.8745 30.5147C42.7941 30.5931 42.6851 30.6371 42.5714 30.6371ZM32.2857 46.3338H25.4286C25.3149 46.3338 25.2059 46.2898 25.1255 46.2114C25.0452 46.133 25 46.0267 25 45.9158V37.5966C25 37.4858 25.0452 37.3794 25.1255 37.301C25.2059 37.2227 25.3149 37.1786 25.4286 37.1786H32.086C32.1997 37.1786 32.3087 37.2227 32.389 37.301C32.4694 37.3794 32.5146 37.4858 32.5146 37.5966C32.5146 37.7075 32.4694 37.8138 32.389 37.8922C32.3087 37.9706 32.1997 38.0146 32.086 38.0146H25.8571V45.4966H32.2857C32.3994 45.4966 32.5084 45.5406 32.5888 45.619C32.6691 45.6974 32.7143 45.8037 32.7143 45.9146C32.7143 46.0254 32.6691 46.1317 32.5888 46.2101C32.5084 46.2885 32.3994 46.3325 32.2857 46.3325V46.3338Z" fill="white"/>
<path d="M39.9999 50.6198C38.1735 50.6198 36.3882 50.0916 34.8696 49.102C33.351 48.1123 32.1674 46.7057 31.4684 45.06C30.7695 43.4143 30.5866 41.6034 30.9429 39.8564C31.2993 38.1093 32.1788 36.5045 33.4702 35.245C34.7617 33.9854 36.4071 33.1276 38.1984 32.7801C39.9897 32.4326 41.8464 32.611 43.5338 33.2926C45.2212 33.9743 46.6634 35.1287 47.6781 36.6098C48.6928 38.0908 49.2344 39.8321 49.2344 41.6134C49.2316 44.0013 48.2579 46.2905 46.5267 47.979C44.7955 49.6674 42.4482 50.6172 39.9999 50.6198ZM39.9999 33.443C38.3431 33.443 36.7234 33.9222 35.3458 34.82C33.9681 35.7178 32.8944 36.9938 32.2603 38.4868C31.6263 39.9797 31.4604 41.6225 31.7836 43.2074C32.1069 44.7923 32.9047 46.2481 34.0763 47.3908C35.2479 48.5334 36.7406 49.3116 38.3656 49.6268C39.9906 49.9421 41.675 49.7803 43.2058 49.1619C44.7365 48.5435 46.0449 47.4963 46.9654 46.1527C47.8859 44.809 48.3772 43.2294 48.3772 41.6134C48.3747 39.4473 47.4913 37.3705 45.9208 35.8388C44.3503 34.3071 42.221 33.4455 39.9999 33.443Z" fill="white"/>
<path d="M40 48.582C38.5868 48.582 37.2054 48.1733 36.0304 47.4076C34.8554 46.6419 33.9396 45.5535 33.3988 44.2801C32.858 43.0068 32.7165 41.6056 32.9922 40.2538C33.2679 38.902 33.9484 37.6603 34.9476 36.6857C35.9469 35.7111 37.22 35.0474 38.6061 34.7786C39.9921 34.5097 41.4287 34.6477 42.7343 35.1751C44.0399 35.7026 45.1559 36.5958 45.941 37.7417C46.7261 38.8877 47.1451 40.2351 47.1451 41.6133C47.143 43.4609 46.3895 45.2322 45.05 46.5386C43.7105 47.845 41.8944 48.5799 40 48.582ZM40 35.4806C38.7564 35.4806 37.5406 35.8403 36.5066 36.5142C35.4725 37.188 34.6666 38.1458 34.1906 39.2665C33.7147 40.3871 33.5902 41.6201 33.8328 42.8098C34.0755 43.9994 34.6743 45.0921 35.5537 45.9498C36.4331 46.8075 37.5535 47.3916 38.7733 47.6282C39.993 47.8648 41.2573 47.7434 42.4063 47.2792C43.5553 46.8151 44.5373 46.029 45.2283 45.0205C45.9192 44.012 46.288 42.8263 46.288 41.6133C46.2861 39.9874 45.623 38.4286 44.4442 37.2789C43.2654 36.1292 41.6671 35.4825 40 35.4806Z" fill="white"/>
<path d="M35.6714 42.0315C35.5577 42.0315 35.4487 41.9874 35.3684 41.909C35.288 41.8306 35.2428 41.7243 35.2428 41.6135C35.2443 40.3835 35.746 39.2043 36.6378 38.3346C37.5297 37.465 38.7388 36.9759 40 36.9746C40.1136 36.9746 40.2226 37.0187 40.303 37.0971C40.3834 37.1755 40.4285 37.2818 40.4285 37.3926C40.4285 37.5035 40.3834 37.6098 40.303 37.6882C40.2226 37.7666 40.1136 37.8106 40 37.8106C38.9659 37.8115 37.9745 38.2125 37.2433 38.9257C36.5121 39.6388 36.1009 40.6058 36.1 41.6143C36.0997 41.725 36.0545 41.8311 35.9741 41.9093C35.8938 41.9875 35.7849 42.0315 35.6714 42.0315ZM51.9927 35.8248H48.2757C48.162 35.8248 48.053 35.7807 47.9726 35.7023C47.8923 35.6239 47.8471 35.5176 47.8471 35.4068V33.8719C47.8471 33.7611 47.8923 33.6548 47.9726 33.5764C48.053 33.498 48.162 33.4539 48.2757 33.4539H51.9927C52.1064 33.4539 52.2154 33.498 52.2957 33.5764C52.3761 33.6548 52.4213 33.7611 52.4213 33.8719V35.4068C52.4213 35.5176 52.3761 35.6239 52.2957 35.7023C52.2154 35.7807 52.1064 35.8248 51.9927 35.8248ZM48.7043 34.9888H51.5641V34.2899H48.7043V34.9888ZM31.462 32.7041H28.2198C28.1062 32.7041 27.9972 32.66 27.9168 32.5816C27.8364 32.5033 27.7913 32.3969 27.7913 32.2861V31.0605C27.7914 30.7267 27.9273 30.4066 28.1693 30.1704C28.4112 29.9343 28.7394 29.8015 29.0817 29.8011H30.5997C30.9419 29.8014 31.27 29.934 31.5121 30.17C31.7541 30.406 31.8902 30.7259 31.8905 31.0597V32.2852C31.8907 32.3402 31.8797 32.3946 31.8582 32.4455C31.8367 32.4963 31.8051 32.5424 31.7653 32.5813C31.7255 32.6202 31.6782 32.6511 31.6262 32.6722C31.5741 32.6932 31.5183 32.7041 31.462 32.7041ZM28.6484 31.8681H31.0334V31.0605C31.0334 30.9483 30.9877 30.8407 30.9064 30.7613C30.8251 30.6819 30.7148 30.6372 30.5997 30.6371H29.0817C28.9668 30.6373 28.8568 30.6819 28.7756 30.7611C28.6944 30.8403 28.6486 30.9477 28.6484 31.0597V31.8681Z" fill="white"/>
</svg>
