<svg width="40" height="38" viewBox="0 0 40 38" fill="none" xmlns="http://www.w3.org/2000/svg">
<path d="M36.1537 4.21946H33.4696V2.77993C33.4696 1.24726 32.2431 0 30.7353 0C29.2237 0 27.9939 1.24726 27.9939 2.77993V4.21946H22.7379V2.77993C22.7379 1.24726 21.5111 0 20.0032 0C18.4917 0 17.2619 1.24726 17.2619 2.77993V4.21946H12.0059V2.77993C12.0059 1.24726 10.7791 0 9.27117 0C7.75963 0 6.52986 1.24726 6.52986 2.77993V4.21946H3.84616C1.72546 4.21946 0 5.97367 0 8.12935V34.0894C0 36.2458 1.72546 38 3.84616 38H36.1538C38.2745 38 40 36.2458 40 34.0894V8.12935C39.9998 5.97367 38.2744 4.21946 36.1537 4.21946ZM30.7354 1.2709C31.5538 1.2709 32.2197 1.94789 32.2197 2.77993L32.2189 6.92442C32.2189 7.74746 31.5457 8.43098 30.7287 8.43098C29.9115 8.43098 29.2468 7.75522 29.2468 6.92442L29.244 2.77993C29.244 1.94789 29.9129 1.2709 30.7354 1.2709ZM18.5118 2.77993C18.5118 1.94789 19.1808 1.2709 20.0032 1.2709C20.822 1.2709 21.4879 1.94789 21.4879 2.77993V6.91754C21.4879 7.75311 20.8055 8.43098 19.9997 8.43098C19.1763 8.43098 18.5116 7.739 18.5116 6.91754L18.5118 2.77993ZM9.27117 1.2709C10.0899 1.2709 10.7558 1.94789 10.7558 2.77993L10.7527 6.92442C10.7527 7.75522 10.0844 8.43098 9.26284 8.43098C8.43923 8.43098 7.78063 7.74217 7.78063 6.92442L7.77976 2.77993C7.77976 1.94789 8.44878 1.2709 9.27117 1.2709ZM3.84616 5.49036H6.52986V6.91754C6.52986 8.39341 7.72146 9.70435 9.27117 9.70435C10.7791 9.70435 12.0059 8.45409 12.0059 6.91754V5.49036H17.2598V6.92442C17.2598 8.44033 18.4842 9.70435 20.0034 9.70435C21.4486 9.70435 22.7398 8.47649 22.7398 6.92442V5.49036H27.9939V6.91754C27.9939 8.46555 29.2426 9.70435 30.7353 9.70435C32.2112 9.70435 33.4696 8.46344 33.4696 6.91754V5.49036H36.1537C37.5852 5.49036 38.7498 6.6743 38.7498 8.12935V15.5886H1.2499V8.12935C1.2499 6.6743 2.41461 5.49036 3.84616 5.49036ZM36.1537 36.7291H3.84616C2.41461 36.7291 1.25007 35.5452 1.25007 34.0894V16.8595H38.7499V34.0894C38.7499 35.5452 37.5852 36.7291 36.1537 36.7291Z" fill="#1D3A6D"/>
<path d="M10.0553 20.5584H6.46675C6.301 20.5584 6.14204 20.6253 6.02484 20.7445C5.90764 20.8637 5.8418 21.0253 5.8418 21.1938C5.8418 21.3623 5.90764 21.5239 6.02484 21.643C6.14204 21.7622 6.301 21.8291 6.46675 21.8291H10.0553C10.221 21.8291 10.38 21.7622 10.4972 21.643C10.6144 21.5239 10.6802 21.3623 10.6802 21.1938C10.6802 21.0253 10.6144 20.8637 10.4972 20.7445C10.38 20.6253 10.221 20.5584 10.0553 20.5584ZM17.8812 20.5584H14.2927C14.1269 20.5584 13.968 20.6253 13.8507 20.7445C13.7335 20.8637 13.6677 21.0253 13.6677 21.1938C13.6677 21.3623 13.7335 21.5239 13.8507 21.643C13.968 21.7622 14.1269 21.8291 14.2927 21.8291H17.8812C18.0469 21.8291 18.2059 21.7622 18.3231 21.643C18.4403 21.5239 18.5061 21.3623 18.5061 21.1938C18.5061 21.0253 18.4403 20.8637 18.3231 20.7445C18.2059 20.6253 18.0469 20.5584 17.8812 20.5584ZM25.7071 20.5584H22.1189C21.9532 20.5584 21.7942 20.6253 21.677 20.7445C21.5598 20.8637 21.494 21.0253 21.494 21.1938C21.494 21.3623 21.5598 21.5239 21.677 21.643C21.7942 21.7622 21.9532 21.8291 22.1189 21.8291H25.7071C25.8728 21.8291 26.0318 21.7622 26.149 21.643C26.2662 21.5239 26.332 21.3623 26.332 21.1938C26.332 21.0253 26.2662 20.8637 26.149 20.7445C26.0318 20.6253 25.8728 20.5584 25.7071 20.5584ZM33.533 20.5584H29.9448C29.7791 20.5584 29.6201 20.6253 29.5029 20.7445C29.3857 20.8637 29.3199 21.0253 29.3199 21.1938C29.3199 21.3623 29.3857 21.5239 29.5029 21.643C29.6201 21.7622 29.7791 21.8291 29.9448 21.8291H33.533C33.6987 21.8291 33.8577 21.7622 33.9749 21.643C34.0921 21.5239 34.1579 21.3623 34.1579 21.1938C34.1579 21.0253 34.0921 20.8637 33.9749 20.7445C33.8577 20.6253 33.6987 20.5584 33.533 20.5584ZM10.0553 26.1983H6.46675C6.301 26.1983 6.14204 26.2653 6.02484 26.3844C5.90764 26.5036 5.8418 26.6652 5.8418 26.8337C5.8418 27.0022 5.90764 27.1638 6.02484 27.283C6.14204 27.4021 6.301 27.4691 6.46675 27.4691H10.0553C10.221 27.4691 10.38 27.4021 10.4972 27.283C10.6144 27.1638 10.6802 27.0022 10.6802 26.8337C10.6802 26.6652 10.6144 26.5036 10.4972 26.3844C10.38 26.2653 10.221 26.1983 10.0553 26.1983ZM17.8812 26.1983H14.2927C14.1269 26.1983 13.968 26.2653 13.8507 26.3844C13.7335 26.5036 13.6677 26.6652 13.6677 26.8337C13.6677 27.0022 13.7335 27.1638 13.8507 27.283C13.968 27.4021 14.1269 27.4691 14.2927 27.4691H17.8812C18.0469 27.4691 18.2059 27.4021 18.3231 27.283C18.4403 27.1638 18.5061 27.0022 18.5061 26.8337C18.5061 26.6652 18.4403 26.5036 18.3231 26.3844C18.2059 26.2653 18.0469 26.1983 17.8812 26.1983ZM25.7071 26.1983H22.1189C21.9532 26.1983 21.7942 26.2653 21.677 26.3844C21.5598 26.5036 21.494 26.6652 21.494 26.8337C21.494 27.0022 21.5598 27.1638 21.677 27.283C21.7942 27.4021 21.9532 27.4691 22.1189 27.4691H25.7071C25.8728 27.4691 26.0318 27.4021 26.149 27.283C26.2662 27.1638 26.332 27.0022 26.332 26.8337C26.332 26.6652 26.2662 26.5036 26.149 26.3844C26.0318 26.2653 25.8728 26.1983 25.7071 26.1983ZM33.533 26.1983H29.9448C29.7791 26.1983 29.6201 26.2653 29.5029 26.3844C29.3857 26.5036 29.3199 26.6652 29.3199 26.8337C29.3199 27.0022 29.3857 27.1638 29.5029 27.283C29.6201 27.4021 29.7791 27.4691 29.9448 27.4691H33.533C33.6987 27.4691 33.8577 27.4021 33.9749 27.283C34.0921 27.1638 34.1579 27.0022 34.1579 26.8337C34.1579 26.6652 34.0921 26.5036 33.9749 26.3844C33.8577 26.2653 33.6987 26.1983 33.533 26.1983ZM10.0553 31.8388H6.46675C6.301 31.8388 6.14204 31.9058 6.02484 32.0249C5.90764 32.1441 5.8418 32.3057 5.8418 32.4742C5.8418 32.6427 5.90764 32.8043 6.02484 32.9234C6.14204 33.0426 6.301 33.1095 6.46675 33.1095H10.0553C10.221 33.1095 10.38 33.0426 10.4972 32.9234C10.6144 32.8043 10.6802 32.6427 10.6802 32.4742C10.6802 32.3057 10.6144 32.1441 10.4972 32.0249C10.38 31.9058 10.221 31.8388 10.0553 31.8388ZM17.8812 31.8388H14.2927C14.1269 31.8388 13.968 31.9058 13.8507 32.0249C13.7335 32.1441 13.6677 32.3057 13.6677 32.4742C13.6677 32.6427 13.7335 32.8043 13.8507 32.9234C13.968 33.0426 14.1269 33.1095 14.2927 33.1095H17.8812C18.0469 33.1095 18.2059 33.0426 18.3231 32.9234C18.4403 32.8043 18.5061 32.6427 18.5061 32.4742C18.5061 32.3057 18.4403 32.1441 18.3231 32.0249C18.2059 31.9058 18.0469 31.8388 17.8812 31.8388ZM25.7071 31.8388H22.1189C21.9532 31.8388 21.7942 31.9058 21.677 32.0249C21.5598 32.1441 21.494 32.3057 21.494 32.4742C21.494 32.6427 21.5598 32.8043 21.677 32.9234C21.7942 33.0426 21.9532 33.1095 22.1189 33.1095H25.7071C25.8728 33.1095 26.0318 33.0426 26.149 32.9234C26.2662 32.8043 26.332 32.6427 26.332 32.4742C26.332 32.3057 26.2662 32.1441 26.149 32.0249C26.0318 31.9058 25.8728 31.8388 25.7071 31.8388ZM33.533 31.8388H29.9448C29.7791 31.8388 29.6201 31.9058 29.5029 32.0249C29.3857 32.1441 29.3199 32.3057 29.3199 32.4742C29.3199 32.6427 29.3857 32.8043 29.5029 32.9234C29.6201 33.0426 29.7791 33.1095 29.9448 33.1095H33.533C33.6987 33.1095 33.8577 33.0426 33.9749 32.9234C34.0921 32.8043 34.1579 32.6427 34.1579 32.4742C34.1579 32.3057 34.0921 32.1441 33.9749 32.0249C33.8577 31.9058 33.6987 31.8388 33.533 31.8388Z" fill="#1D3A6D"/>
</svg>
