<svg width="80" height="80" viewBox="0 0 80 80" fill="none" xmlns="http://www.w3.org/2000/svg">
<circle cx="40" cy="40" r="40" fill="#1D3A6D"/>
<circle cx="40" cy="40" r="29.5" fill="#1D3A6D" stroke="#A6A6A8" stroke-linecap="round" stroke-dasharray="5 5"/>
<path d="M39.9826 25C39.4449 25 38.9075 25.0289 38.3729 25.0865C37.8828 25.1366 37.3987 25.2187 36.9212 25.3183C36.8285 25.3377 36.7361 25.3581 36.6439 25.3794C33.8302 26.0201 31.261 27.4588 29.2443 29.5231C29.0559 29.7163 28.8723 29.9143 28.6937 30.1168C23.2462 36.3713 23.8999 45.8581 30.154 51.3061C36.1413 56.5219 45.1539 56.1749 50.7226 50.5141C50.9112 50.321 51.0949 50.1231 51.2732 49.9204C53.6773 47.1824 55.0021 43.6624 55 40.0186C55 31.724 48.2765 24.9999 39.9826 25ZM29.9116 30.274C29.9907 30.1919 30.0728 30.1133 30.1534 30.0337C30.2465 29.9421 30.3391 29.85 30.4342 29.7614C30.5178 29.6833 30.6039 29.6082 30.6895 29.5321C30.7861 29.4465 30.8822 29.3609 30.9813 29.2783C31.0684 29.2047 31.158 29.1341 31.2472 29.063C31.3473 28.9829 31.4474 28.9028 31.5505 28.8257C31.6416 28.7573 31.7339 28.6906 31.8273 28.6254C31.9309 28.5513 32.0351 28.4753 32.1407 28.4062C32.2353 28.3424 32.3308 28.2798 32.427 28.2184C32.5336 28.1497 32.6414 28.083 32.7504 28.0182C32.9575 27.8946 33.1672 27.7756 33.3796 27.6612C33.4797 27.6079 33.5798 27.5556 33.68 27.5045C33.7942 27.4471 33.9092 27.3912 34.0248 27.3368C34.125 27.2893 34.2291 27.2417 34.3322 27.1967C34.4498 27.1466 34.569 27.0965 34.6881 27.0465C34.7917 27.0039 34.8949 26.9624 34.9995 26.9223C35.1206 26.8763 35.2433 26.8332 35.3659 26.7902C35.4706 26.7532 35.5758 26.7173 35.6813 26.6825C35.8059 26.6425 35.9315 26.6054 36.0577 26.5689C36.1633 26.5383 36.2679 26.5068 36.3741 26.4783C36.4146 26.4678 36.4551 26.4593 36.4957 26.4487C35.014 27.8876 33.9144 29.6733 33.2965 31.6442C32.1084 31.3308 30.9582 30.8881 29.8666 30.3241C29.8831 30.3065 29.8971 30.289 29.9116 30.274ZM29.1918 31.08C30.3942 31.7316 31.6693 32.239 32.9907 32.5919C32.3429 34.8444 32.0029 37.1742 31.98 39.518H25.9781C26.0871 36.4273 27.2173 33.46 29.1918 31.08ZM29.1918 48.9572C27.2174 46.5771 26.0873 43.6098 25.9781 40.5192H31.98C32.0029 42.8629 32.3429 45.1928 32.9907 47.4453C31.6694 47.7983 30.3943 48.3057 29.1918 48.9572ZM36.3711 53.5609C36.2699 53.5354 36.1653 53.5023 36.0612 53.4718C35.9345 53.4348 35.8074 53.3977 35.6823 53.3572C35.5766 53.3231 35.4725 53.2866 35.3684 53.25C35.245 53.2078 35.1224 53.1636 35.0005 53.1174C34.8967 53.0776 34.7934 53.0365 34.6906 52.9942C34.571 52.9442 34.4513 52.8941 34.3327 52.844C34.2305 52.7989 34.1289 52.7525 34.0279 52.7049C33.9112 52.6498 33.7951 52.5937 33.6775 52.5356C33.5773 52.4856 33.4772 52.4355 33.3771 52.381C33.264 52.3204 33.1518 52.2583 33.0397 52.1942C32.9396 52.1387 32.8445 52.0816 32.7479 52.0235C32.638 51.9573 32.5292 51.8894 32.4215 51.8198C32.3264 51.7592 32.2313 51.6976 32.1377 51.6345C32.031 51.5619 31.9254 51.4878 31.8208 51.4123C31.7292 51.3467 31.6376 51.2811 31.5475 51.212C31.4442 51.1336 31.3421 51.0537 31.2411 50.9722C31.1525 50.9016 31.0644 50.8315 30.9778 50.7589C30.8777 50.6758 30.7811 50.5892 30.684 50.5031C30.5989 50.4275 30.5133 50.3529 30.4302 50.2758C30.3346 50.1867 30.242 50.0941 30.1489 50.0025C30.0683 49.9229 29.9862 49.8443 29.9071 49.7627C29.8926 49.7472 29.8786 49.7312 29.8641 49.7161C30.9556 49.1518 32.1058 48.709 33.294 48.3955C33.912 50.3663 35.0116 52.152 36.4932 53.591C36.4526 53.5804 36.4116 53.5719 36.3711 53.5609ZM39.4821 53.9965C37.3402 53.6921 35.4625 51.4563 34.2811 48.1547C35.9891 47.7722 37.732 47.567 39.4821 47.5424V53.9965ZM39.4821 46.5412C37.6256 46.5656 35.7769 46.7861 33.9668 47.199C33.3382 45.0271 33.0067 42.7801 32.9811 40.5192H39.4821V46.5412ZM39.4821 39.518H32.9811C33.0066 37.2571 33.3382 35.0101 33.9668 32.8382C35.777 33.251 37.6257 33.4715 39.4821 33.496V39.518ZM39.4821 32.4947C37.732 32.4703 35.9891 32.2652 34.2811 31.8825C35.4625 28.5809 37.3402 26.3451 39.4821 26.0407V32.4947ZM50.7736 31.08C52.748 33.4601 53.8782 36.4274 53.9873 39.518H47.9854C47.9625 37.1742 47.6226 34.8444 46.9748 32.5919C48.296 32.2389 49.5711 31.7314 50.7736 31.08ZM43.5904 26.4758C43.6955 26.5018 43.8001 26.5348 43.9042 26.5654C44.0309 26.6024 44.158 26.6395 44.2832 26.68C44.3888 26.7141 44.4929 26.7506 44.597 26.7872C44.7202 26.8297 44.8433 26.8733 44.9649 26.9198C45.0691 26.9594 45.1717 27.0009 45.2748 27.043C45.3944 27.093 45.5141 27.1431 45.6327 27.1932C45.7348 27.2382 45.8364 27.2846 45.9376 27.3323C46.0542 27.3874 46.1703 27.4435 46.288 27.5015C46.3881 27.5516 46.4882 27.6017 46.5883 27.6562C46.7014 27.7168 46.8136 27.7789 46.9257 27.843C47.0258 27.8985 47.1209 27.9556 47.2175 28.0137C47.3274 28.0799 47.4362 28.1478 47.5439 28.2174C47.639 28.278 47.7341 28.3396 47.8277 28.4027C47.9342 28.4751 48.0397 28.549 48.1441 28.6244C48.2365 28.6898 48.328 28.7566 48.4184 28.8247C48.5215 28.9023 48.6227 28.9829 48.7243 29.064C48.8124 29.1341 48.901 29.2042 48.9876 29.2773C49.0877 29.3604 49.1843 29.447 49.2814 29.5331C49.3665 29.6087 49.4521 29.6833 49.5352 29.7604C49.6308 29.8495 49.7234 29.9421 49.8165 30.0337C49.8971 30.1133 49.9792 30.1919 50.0583 30.2735C50.0728 30.289 50.0868 30.305 50.1014 30.32C49.0098 30.8844 47.8596 31.3272 46.6714 31.6407C46.0522 29.6696 44.9512 27.8841 43.4682 26.4457C43.5088 26.4562 43.5498 26.4648 43.5904 26.4758ZM40.4833 26.0407C42.6253 26.3451 44.5029 28.5809 45.6843 31.8825C43.9763 32.265 42.2334 32.4701 40.4833 32.4947V26.0407ZM40.4833 33.496C42.3398 33.4716 44.1885 33.2511 45.9986 32.8382C46.6272 35.0101 46.9587 37.2571 46.9843 39.518H40.4833V33.496ZM40.4833 40.5192H46.9843C46.9588 42.7801 46.6272 45.0271 45.9986 47.199C44.1885 46.7862 42.3398 46.5657 40.4833 46.5412V40.5192ZM40.4833 53.9965V47.5424C42.2334 47.5668 43.9763 47.772 45.6843 48.1547C44.5029 51.4563 42.6253 53.6921 40.4833 53.9965ZM50.0538 49.7632C49.9747 49.8448 49.8931 49.9234 49.8125 50.003C49.7194 50.0946 49.6263 50.1872 49.5307 50.2763C49.4476 50.3539 49.362 50.4265 49.2769 50.5041C49.1798 50.5902 49.0832 50.6763 48.9841 50.7594C48.8965 50.8325 48.8074 50.9031 48.7183 50.9742C48.6182 51.0543 48.518 51.1344 48.4149 51.2115C48.3238 51.2799 48.2315 51.3466 48.1381 51.4118C48.0345 51.4858 47.9304 51.5619 47.8247 51.631C47.7302 51.6948 47.6348 51.7572 47.5384 51.8183C47.4317 51.8871 47.3238 51.9538 47.2145 52.0185C47.1144 52.0771 47.0188 52.1341 46.9202 52.1907C46.7114 52.3096 46.4998 52.4235 46.2855 52.5321C46.1712 52.5896 46.0563 52.6455 45.9406 52.6999C45.8405 52.7474 45.7363 52.795 45.6332 52.84C45.5156 52.8901 45.3964 52.9401 45.2773 52.9902C45.1737 53.0323 45.0706 53.0743 44.9664 53.1139C44.8443 53.1604 44.7217 53.204 44.5985 53.2465C44.4944 53.2836 44.3897 53.3193 44.2847 53.3537C44.1595 53.3942 44.0344 53.4313 43.9067 53.4678C43.8021 53.4988 43.697 53.5299 43.5914 53.5584C43.5508 53.5689 43.5103 53.5774 43.4697 53.588C44.9514 52.1491 46.051 50.3634 46.6689 48.3925C47.857 48.7059 49.0072 49.1486 50.0989 49.7126C50.0823 49.7307 50.0683 49.7482 50.0538 49.7632ZM50.7736 48.9572C49.5712 48.3056 48.2961 47.7982 46.9748 47.4453C47.6225 45.1928 47.9625 42.8629 47.9854 40.5192H53.9873C53.8783 43.6098 52.7482 46.5772 50.7736 48.9572Z" fill="white"/>
</svg>
