<svg width="80" height="80" viewBox="0 0 80 80" fill="none" xmlns="http://www.w3.org/2000/svg">
<circle cx="40" cy="40" r="40" fill="#1D3A6D"/>
<circle cx="40" cy="40" r="29.5" fill="#1D3A6D" stroke="#A6A6A8" stroke-linecap="round" stroke-dasharray="5 5"/>
<path d="M52.5 28H50V27C50 26.4696 49.7893 25.9609 49.4142 25.5858C49.0391 25.2107 48.5304 25 48 25C47.4696 25 46.9609 25.2107 46.5858 25.5858C46.2107 25.9609 46 26.4696 46 27V28H42V27C42 26.4696 41.7893 25.9609 41.4142 25.5858C41.0391 25.2107 40.5304 25 40 25C39.4696 25 38.9609 25.2107 38.5858 25.5858C38.2107 25.9609 38 26.4696 38 27V28H34V27C34 26.4696 33.7893 25.9609 33.4142 25.5858C33.0391 25.2107 32.5304 25 32 25C31.4696 25 30.9609 25.2107 30.5858 25.5858C30.2107 25.9609 30 26.4696 30 27V28H27.5C26.837 28 26.2011 28.2634 25.7322 28.7322C25.2634 29.2011 25 29.837 25 30.5V50.5C25 51.163 25.2634 51.7989 25.7322 52.2678C26.2011 52.7366 26.837 53 27.5 53H41.5C41.6326 53 41.7598 52.9473 41.8536 52.8536C41.9473 52.7598 42 52.6326 42 52.5C42 52.3674 41.9473 52.2402 41.8536 52.1464C41.7598 52.0527 41.6326 52 41.5 52H27.5C27.1025 51.9988 26.7217 51.8404 26.4407 51.5593C26.1596 51.2783 26.0012 50.8975 26 50.5V35H54V43.5C54 43.6326 54.0527 43.7598 54.1464 43.8536C54.2402 43.9473 54.3674 44 54.5 44C54.6326 44 54.7598 43.9473 54.8536 43.8536C54.9473 43.7598 55 43.6326 55 43.5V30.5C55 29.837 54.7366 29.2011 54.2678 28.7322C53.7989 28.2634 53.163 28 52.5 28ZM47 27C47 26.7348 47.1054 26.4804 47.2929 26.2929C47.4804 26.1054 47.7348 26 48 26C48.2652 26 48.5196 26.1054 48.7071 26.2929C48.8946 26.4804 49 26.7348 49 27V30C49 30.2652 48.8946 30.5196 48.7071 30.7071C48.5196 30.8946 48.2652 31 48 31C47.7348 31 47.4804 30.8946 47.2929 30.7071C47.1054 30.5196 47 30.2652 47 30V27ZM39 27C39 26.7348 39.1054 26.4804 39.2929 26.2929C39.4804 26.1054 39.7348 26 40 26C40.2652 26 40.5196 26.1054 40.7071 26.2929C40.8946 26.4804 41 26.7348 41 27V30C41 30.2652 40.8946 30.5196 40.7071 30.7071C40.5196 30.8946 40.2652 31 40 31C39.7348 31 39.4804 30.8946 39.2929 30.7071C39.1054 30.5196 39 30.2652 39 30V27ZM31 27C31 26.7348 31.1054 26.4804 31.2929 26.2929C31.4804 26.1054 31.7348 26 32 26C32.2652 26 32.5196 26.1054 32.7071 26.2929C32.8946 26.4804 33 26.7348 33 27V30C33 30.2652 32.8946 30.5196 32.7071 30.7071C32.5196 30.8946 32.2652 31 32 31C31.7348 31 31.4804 30.8946 31.2929 30.7071C31.1054 30.5196 31 30.2652 31 30V27ZM54 34H26V30.5C26.0012 30.1025 26.1596 29.7217 26.4407 29.4407C26.7217 29.1596 27.1025 29.0012 27.5 29H30V30C30 30.5304 30.2107 31.0391 30.5858 31.4142C30.9609 31.7893 31.4696 32 32 32C32.5304 32 33.0391 31.7893 33.4142 31.4142C33.7893 31.0391 34 30.5304 34 30V29H38V30C38 30.5304 38.2107 31.0391 38.5858 31.4142C38.9609 31.7893 39.4696 32 40 32C40.5304 32 41.0391 31.7893 41.4142 31.4142C41.7893 31.0391 42 30.5304 42 30V29H46V30C46 30.5304 46.2107 31.0391 46.5858 31.4142C46.9609 31.7893 47.4696 32 48 32C48.5304 32 49.0391 31.7893 49.4142 31.4142C49.7893 31.0391 50 30.5304 50 30V29H52.5C52.8975 29.0012 53.2783 29.1596 53.5593 29.4407C53.8404 29.7217 53.9988 30.1025 54 30.5V34Z" fill="white"/>
<path d="M39 38.5C39 38.2348 38.8946 37.9804 38.7071 37.7929C38.5196 37.6054 38.2652 37.5 38 37.5H36C35.7348 37.5 35.4804 37.6054 35.2929 37.7929C35.1054 37.9804 35 38.2348 35 38.5V40C35 40.2652 35.1054 40.5196 35.2929 40.7071C35.4804 40.8946 35.7348 41 36 41H38C38.2652 41 38.5196 40.8946 38.7071 40.7071C38.8946 40.5196 39 40.2652 39 40V38.5ZM36 40V38.5H38V40H36ZM33 38.5C33 38.2348 32.8946 37.9804 32.7071 37.7929C32.5196 37.6054 32.2652 37.5 32 37.5H30C29.7348 37.5 29.4804 37.6054 29.2929 37.7929C29.1054 37.9804 29 38.2348 29 38.5V40C29 40.2652 29.1054 40.5196 29.2929 40.7071C29.4804 40.8946 29.7348 41 30 41H32C32.2652 41 32.5196 40.8946 32.7071 40.7071C32.8946 40.5196 33 40.2652 33 40V38.5ZM30 40V38.5H32V40H30ZM50 41C50.2652 41 50.5196 40.8946 50.7071 40.7071C50.8946 40.5196 51 40.2652 51 40V38.5C51 38.2348 50.8946 37.9804 50.7071 37.7929C50.5196 37.6054 50.2652 37.5 50 37.5H48C47.7348 37.5 47.4804 37.6054 47.2929 37.7929C47.1054 37.9804 47 38.2348 47 38.5V40C47 40.2652 47.1054 40.5196 47.2929 40.7071C47.4804 40.8946 47.7348 41 48 41H50ZM48 38.5H50V40H48V38.5ZM39 43C39 42.7348 38.8946 42.4804 38.7071 42.2929C38.5196 42.1054 38.2652 42 38 42H36C35.7348 42 35.4804 42.1054 35.2929 42.2929C35.1054 42.4804 35 42.7348 35 43V44.5C35 44.7652 35.1054 45.0196 35.2929 45.2071C35.4804 45.3946 35.7348 45.5 36 45.5H38C38.2652 45.5 38.5196 45.3946 38.7071 45.2071C38.8946 45.0196 39 44.7652 39 44.5V43ZM36 44.5V43H38V44.5H36ZM33 43C33 42.7348 32.8946 42.4804 32.7071 42.2929C32.5196 42.1054 32.2652 42 32 42H30C29.7348 42 29.4804 42.1054 29.2929 42.2929C29.1054 42.4804 29 42.7348 29 43V44.5C29 44.7652 29.1054 45.0196 29.2929 45.2071C29.4804 45.3946 29.7348 45.5 30 45.5H32C32.2652 45.5 32.5196 45.3946 32.7071 45.2071C32.8946 45.0196 33 44.7652 33 44.5V43ZM30 44.5V43H32V44.5H30ZM38 46.5H36C35.7348 46.5 35.4804 46.6054 35.2929 46.7929C35.1054 46.9804 35 47.2348 35 47.5V49C35 49.2652 35.1054 49.5196 35.2929 49.7071C35.4804 49.8946 35.7348 50 36 50H38C38.2652 50 38.5196 49.8946 38.7071 49.7071C38.8946 49.5196 39 49.2652 39 49V47.5C39 47.2348 38.8946 46.9804 38.7071 46.7929C38.5196 46.6054 38.2652 46.5 38 46.5ZM36 49V47.5H38V49H36ZM42 41H44C44.2652 41 44.5196 40.8946 44.7071 40.7071C44.8946 40.5196 45 40.2652 45 40V38.5C45 38.2348 44.8946 37.9804 44.7071 37.7929C44.5196 37.6054 44.2652 37.5 44 37.5H42C41.7348 37.5 41.4804 37.6054 41.2929 37.7929C41.1054 37.9804 41 38.2348 41 38.5V40C41 40.2652 41.1054 40.5196 41.2929 40.7071C41.4804 40.8946 41.7348 41 42 41ZM42 38.5H44V40H42V38.5ZM41 44.5C41 44.7652 41.1054 45.0196 41.2929 45.2071C41.4804 45.3946 41.7348 45.5 42 45.5C42.1326 45.5 42.2598 45.4473 42.3536 45.3536C42.4473 45.2598 42.5 45.1326 42.5 45C42.5 44.8674 42.4473 44.7402 42.3536 44.6464C42.2598 44.5527 42.1326 44.5 42 44.5V43H44C44.1326 43 44.2598 42.9473 44.3536 42.8536C44.4473 42.7598 44.5 42.6326 44.5 42.5C44.5 42.3674 44.4473 42.2402 44.3536 42.1464C44.2598 42.0527 44.1326 42 44 42H42C41.7348 42 41.4804 42.1054 41.2929 42.2929C41.1054 42.4804 41 42.7348 41 43V44.5ZM32 46.5H30C29.7348 46.5 29.4804 46.6054 29.2929 46.7929C29.1054 46.9804 29 47.2348 29 47.5V49C29 49.2652 29.1054 49.5196 29.2929 49.7071C29.4804 49.8946 29.7348 50 30 50H32C32.2652 50 32.5196 49.8946 32.7071 49.7071C32.8946 49.5196 33 49.2652 33 49V47.5C33 47.2348 32.8946 46.9804 32.7071 46.7929C32.5196 46.6054 32.2652 46.5 32 46.5ZM30 49V47.5H32V49H30Z" fill="white"/>
<path d="M48.5 42C47.2144 42 45.9577 42.3812 44.8888 43.0954C43.8199 43.8097 42.9868 44.8248 42.4948 46.0126C42.0028 47.2003 41.8741 48.5072 42.1249 49.7681C42.3757 51.029 42.9948 52.1872 43.9038 53.0962C44.8129 54.0052 45.971 54.6243 47.2319 54.8751C48.4928 55.1259 49.7997 54.9972 50.9874 54.5052C52.1752 54.0132 53.1903 53.1801 53.9046 52.1112C54.6188 51.0423 55 49.7856 55 48.5C54.998 46.7767 54.3126 45.1246 53.094 43.906C51.8754 42.6874 50.2233 42.002 48.5 42ZM48.5 54C47.4122 54 46.3488 53.6774 45.4444 53.0731C44.5399 52.4687 43.8349 51.6098 43.4187 50.6048C43.0024 49.5998 42.8935 48.4939 43.1057 47.427C43.3179 46.3601 43.8417 45.3801 44.6109 44.6109C45.3801 43.8417 46.3601 43.3179 47.427 43.1057C48.4939 42.8935 49.5998 43.0024 50.6048 43.4187C51.6098 43.8349 52.4687 44.5399 53.0731 45.4444C53.6774 46.3488 54 47.4122 54 48.5C53.9983 49.9582 53.4183 51.3561 52.3872 52.3872C51.3561 53.4183 49.9582 53.9983 48.5 54Z" fill="white"/>
<path d="M51.389 46.404L47.5 50.293L45.7325 48.525C45.6382 48.4339 45.5119 48.3836 45.3808 48.3847C45.2497 48.3858 45.1243 48.4384 45.0316 48.5311C44.9389 48.6238 44.8863 48.7492 44.8852 48.8803C44.884 49.0114 44.9344 49.1377 45.0255 49.232L47.1465 51.3535C47.2403 51.4473 47.3674 51.4999 47.5 51.4999C47.6326 51.4999 47.7597 51.4473 47.8535 51.3535L52.096 47.111C52.1871 47.0167 52.2375 46.8904 52.2363 46.7593C52.2352 46.6282 52.1826 46.5028 52.0899 46.4101C51.9972 46.3174 51.8718 46.2648 51.7407 46.2637C51.6096 46.2626 51.4833 46.3129 51.389 46.404Z" fill="white"/>
</svg>
