<svg width="80" height="80" viewBox="0 0 80 80" fill="none" xmlns="http://www.w3.org/2000/svg">
<circle cx="40" cy="40" r="40" fill="#1D3A6D"/>
<circle cx="40" cy="40" r="29.5" fill="#1D3A6D" stroke="#A6A6A8" stroke-linecap="round" stroke-dasharray="5 5"/>
<path fill-rule="evenodd" clip-rule="evenodd" d="M36.7005 33.2736C35.9178 33.0911 35.1155 32.9993 34.3103 33.0001C29.1586 33.0001 25 36.6922 25 41.2088C25 43.4498 26.0376 45.5878 27.865 47.1329L27.8691 47.1369C27.9343 47.1905 27.9844 47.259 28.0148 47.3363C28.0453 47.4136 28.0552 47.497 28.0434 47.5789L28.0429 47.5824C27.9126 48.5434 27.6426 50.4319 27.6426 50.4319C27.6291 50.5277 27.6446 50.6252 27.6872 50.7127C27.7297 50.8001 27.7976 50.8738 27.8825 50.9247C27.9675 50.9757 28.0659 51.0018 28.1659 50.9999C28.2658 50.998 28.3631 50.9681 28.4459 50.914L31.1655 49.1269C31.2928 49.0434 31.451 49.0189 31.5984 49.0594L31.601 49.0604C32.4778 49.2974 33.3912 49.4174 34.3103 49.4174C37.4971 49.4174 40.3083 48.0024 41.9836 45.8574C42.9829 46.1599 44.0557 46.3239 45.1724 46.3239C46.1521 46.3239 47.1255 46.1949 48.0591 45.9404L48.0622 45.9399C48.1352 45.9194 48.2119 45.9147 48.2869 45.9262C48.3619 45.9377 48.4334 45.9651 48.4962 46.0064L51.399 47.9139C51.4817 47.9683 51.579 47.9983 51.6791 48.0004C51.7791 48.0024 51.8776 47.9763 51.9627 47.9253C52.0477 47.8743 52.1156 47.8005 52.1581 47.7129C52.2006 47.6253 52.216 47.5277 52.2022 47.4319C52.2022 47.4319 51.91 45.3913 51.7729 44.3838V44.3808C51.761 44.2986 51.7708 44.2147 51.8014 44.1371C51.8319 44.0595 51.8823 43.9906 51.9478 43.9368L51.9524 43.9333C53.8957 42.3013 55 40.0367 55 37.6622C55 32.8956 50.6097 29 45.1724 29C41.559 29 38.4074 30.7205 36.7005 33.2736ZM36.1714 34.1836C35.5591 34.0612 34.9355 33.9997 34.3103 34.0001C29.756 34.0001 26.0345 37.2162 26.0345 41.2088C26.0345 43.1663 26.9495 45.0293 28.5447 46.3794C28.7403 46.5415 28.8907 46.7485 28.9822 46.9814C29.0738 47.2142 29.1035 47.4656 29.0686 47.7124C29.005 48.1814 28.9083 48.8709 28.826 49.4549L30.5847 48.2994C30.7721 48.1762 30.9853 48.0943 31.209 48.0594C31.4328 48.0245 31.6618 48.0375 31.8798 48.0974C32.6666 48.3099 33.4859 48.4174 34.3103 48.4174C37.0331 48.4174 39.4538 47.2699 40.9652 45.4913C37.6393 44.0983 35.3448 41.1078 35.3448 37.6622C35.3448 36.4267 35.6397 35.2496 36.1714 34.1836ZM36.3793 37.6622C36.3793 33.4191 40.3326 30 45.1724 30C50.0122 30 53.9655 33.4191 53.9655 37.6622C53.9655 39.7522 52.9848 41.7413 51.2748 43.1778C51.0778 43.3405 50.9263 43.5485 50.8342 43.7827C50.7421 44.0169 50.7123 44.2697 50.7478 44.5178C50.8176 45.0283 50.9278 45.8104 51.0188 46.4549L49.0771 45.1788C48.8886 45.0553 48.6743 44.9733 48.4494 44.9387C48.2245 44.9042 47.9945 44.9178 47.7757 44.9788C46.9284 45.2086 46.0524 45.3247 45.1724 45.3238C40.3326 45.3238 36.3793 41.9048 36.3793 37.6622ZM35.3448 44.0003H30.6897C30.5525 44.0003 30.4209 44.053 30.3239 44.1468C30.2269 44.2405 30.1724 44.3677 30.1724 44.5003C30.1724 44.6329 30.2269 44.7601 30.3239 44.8539C30.4209 44.9477 30.5525 45.0003 30.6897 45.0003H35.3448C35.482 45.0003 35.6136 44.9477 35.7106 44.8539C35.8076 44.7601 35.8621 44.6329 35.8621 44.5003C35.8621 44.3677 35.8076 44.2405 35.7106 44.1468C35.6136 44.053 35.482 44.0003 35.3448 44.0003ZM34.3103 41.0002H30.6897C30.5525 41.0002 30.4209 41.0529 30.3239 41.1467C30.2269 41.2405 30.1724 41.3677 30.1724 41.5003C30.1724 41.6329 30.2269 41.7601 30.3239 41.8538C30.4209 41.9476 30.5525 42.0003 30.6897 42.0003H34.3103C34.4475 42.0003 34.5791 41.9476 34.6761 41.8538C34.7731 41.7601 34.8276 41.6329 34.8276 41.5003C34.8276 41.3677 34.7731 41.2405 34.6761 41.1467C34.5791 41.0529 34.4475 41.0002 34.3103 41.0002ZM49.3103 36.5002C48.9057 36.5103 48.5212 36.6727 48.2387 36.9529C47.9563 37.2331 47.7982 37.6089 47.7982 38.0002C47.7982 38.3914 47.9563 38.7672 48.2387 39.0474C48.5212 39.3276 48.9057 39.4901 49.3103 39.5002C49.715 39.4901 50.0995 39.3276 50.382 39.0474C50.6644 38.7672 50.8225 38.3914 50.8225 38.0002C50.8225 37.6089 50.6644 37.2331 50.382 36.9529C50.0995 36.6727 49.715 36.5103 49.3103 36.5002ZM45.1724 36.5002C44.7678 36.5103 44.3833 36.6727 44.1008 36.9529C43.8183 37.2331 43.6602 37.6089 43.6602 38.0002C43.6602 38.3914 43.8183 38.7672 44.1008 39.0474C44.3833 39.3276 44.7678 39.4901 45.1724 39.5002C45.577 39.4901 45.9615 39.3276 46.244 39.0474C46.5265 38.7672 46.6846 38.3914 46.6846 38.0002C46.6846 37.6089 46.5265 37.2331 46.244 36.9529C45.9615 36.6727 45.577 36.5103 45.1724 36.5002ZM41.0345 36.5002C40.6299 36.5103 40.2454 36.6727 39.9629 36.9529C39.6804 37.2331 39.5223 37.6089 39.5223 38.0002C39.5223 38.3914 39.6804 38.7672 39.9629 39.0474C40.2454 39.3276 40.6299 39.4901 41.0345 39.5002C41.4391 39.4901 41.8236 39.3276 42.1061 39.0474C42.3886 38.7672 42.5467 38.3914 42.5467 38.0002C42.5467 37.6089 42.3886 37.2331 42.1061 36.9529C41.8236 36.6727 41.4391 36.5103 41.0345 36.5002ZM33.7931 38.0002H30.6897C30.5525 38.0002 30.4209 38.0529 30.3239 38.1466C30.2269 38.2404 30.1724 38.3676 30.1724 38.5002C30.1724 38.6328 30.2269 38.76 30.3239 38.8538C30.4209 38.9475 30.5525 39.0002 30.6897 39.0002H33.7931C33.9303 39.0002 34.0618 38.9475 34.1588 38.8538C34.2558 38.76 34.3103 38.6328 34.3103 38.5002C34.3103 38.3676 34.2558 38.2404 34.1588 38.1466C34.0618 38.0529 33.9303 38.0002 33.7931 38.0002ZM49.3103 37.5002C49.4475 37.5002 49.5791 37.5529 49.6761 37.6466C49.7731 37.7404 49.8276 37.8676 49.8276 38.0002C49.8276 38.1328 49.7731 38.26 49.6761 38.3537C49.5791 38.4475 49.4475 38.5002 49.3103 38.5002C49.1732 38.5002 49.0416 38.4475 48.9446 38.3537C48.8476 38.26 48.7931 38.1328 48.7931 38.0002C48.7931 37.8676 48.8476 37.7404 48.9446 37.6466C49.0416 37.5529 49.1732 37.5002 49.3103 37.5002ZM45.1724 37.5002C45.3096 37.5002 45.4412 37.5529 45.5382 37.6466C45.6352 37.7404 45.6897 37.8676 45.6897 38.0002C45.6897 38.1328 45.6352 38.26 45.5382 38.3537C45.4412 38.4475 45.3096 38.5002 45.1724 38.5002C45.0352 38.5002 44.9037 38.4475 44.8067 38.3537C44.7097 38.26 44.6552 38.1328 44.6552 38.0002C44.6552 37.8676 44.7097 37.7404 44.8067 37.6466C44.9037 37.5529 45.0352 37.5002 45.1724 37.5002ZM41.0345 37.5002C41.1717 37.5002 41.3032 37.5529 41.4002 37.6466C41.4972 37.7404 41.5517 37.8676 41.5517 38.0002C41.5517 38.1328 41.4972 38.26 41.4002 38.3537C41.3032 38.4475 41.1717 38.5002 41.0345 38.5002C40.8973 38.5002 40.7657 38.4475 40.6687 38.3537C40.5717 38.26 40.5172 38.1328 40.5172 38.0002C40.5172 37.8676 40.5717 37.7404 40.6687 37.6466C40.7657 37.5529 40.8973 37.5002 41.0345 37.5002Z" fill="white"/>
</svg>
