<svg width="80" height="80" viewBox="0 0 80 80" fill="none" xmlns="http://www.w3.org/2000/svg">
<circle cx="40" cy="40" r="40" fill="#1D3A6D"/>
<circle cx="40" cy="40" r="29.5" fill="#1D3A6D" stroke="#A6A6A8" stroke-linecap="round" stroke-dasharray="5 5"/>
<path d="M38.8424 42.1397C38.0201 42.1193 37.4016 41.6752 37.4016 41.2928C37.4016 41.1014 37.5715 40.8146 37.7822 40.8146C38.0405 40.8146 38.2444 41.2586 38.8424 41.3269V39.9676C38.224 39.7353 37.5238 39.4689 37.5238 38.5944C37.5238 37.727 38.1627 37.3513 38.8424 37.2623V37.0711C38.8424 36.9823 38.9443 36.9004 39.0733 36.9004C39.189 36.9004 39.3046 36.9823 39.3046 37.0711V37.2487C39.7463 37.2623 40.4666 37.3923 40.4666 37.7884C40.4666 37.9456 40.3578 38.2599 40.1063 38.2599C39.9161 38.2599 39.7598 38.0413 39.3046 38.007V39.2093C39.9092 39.4348 40.5888 39.7422 40.5888 40.671C40.5888 41.5115 40.0656 41.9962 39.3046 42.1193V42.3311C39.3046 42.4199 39.189 42.5019 39.0734 42.5019C38.9443 42.5019 38.8424 42.4197 38.8424 42.3311V42.1397ZM38.8969 39.0592V38.0275C38.557 38.0823 38.3531 38.246 38.3531 38.5058C38.3531 38.8063 38.5843 38.9361 38.8969 39.0591L38.8969 39.0592ZM39.2501 40.1315V41.32C39.5492 41.2586 39.7598 41.0809 39.7598 40.76C39.7598 40.425 39.5423 40.2612 39.2501 40.1315Z" fill="white"/>
<path d="M54.2854 30.8954C54.2813 30.8939 54.2774 30.8925 54.2736 30.8911C49.4224 29.2118 44.5859 30.2425 39.9087 31.2394C37.6139 31.7283 35.2408 32.234 32.9177 32.4024C30.3409 32.589 28.084 32.3327 26.0181 31.6183C25.7622 31.5235 25.5015 31.5484 25.3019 31.6871C25.1102 31.8205 25 32.0421 25 32.2957V48.0879C25 48.5131 25.3071 48.9505 25.7146 49.1048C25.7187 49.1062 25.7226 49.1078 25.7264 49.1092C27.5932 49.7552 29.457 50.0003 31.3114 50C34.2754 50 37.2136 49.374 40.0909 48.7609C42.3859 48.2717 44.7589 47.7661 47.0823 47.5976C49.6588 47.4113 51.916 47.6676 53.9822 48.3817C54.238 48.4767 54.4987 48.4516 54.6981 48.3132C54.8899 48.1797 55 47.9579 55 47.7047V31.9121C55 31.4869 54.6929 31.0499 54.2854 30.8954ZM54.1211 47.4964C49.3212 45.8906 44.5371 46.9102 39.9087 47.8965C37.6139 48.3856 35.2408 48.8913 32.9175 49.0595C30.3421 49.2461 28.0858 48.99 26.021 48.2765C25.9499 48.2467 25.8789 48.1355 25.8789 48.0879V32.5036C27.6948 33.1112 29.5074 33.3429 31.3111 33.3427C34.2754 33.3427 37.2136 32.7167 40.0908 32.1035C42.3859 31.6144 44.7589 31.1087 47.0823 30.9406C49.6579 30.754 51.914 31.0101 53.9789 31.7235C54.0501 31.7534 54.1211 31.8647 54.1211 31.9121V47.4964Z" fill="white"/>
<path d="M52.8613 39.3334C52.8036 39.3334 52.7465 39.3448 52.6931 39.367C52.6398 39.3892 52.5913 39.4217 52.5505 39.4627C52.5097 39.5037 52.4774 39.5524 52.4553 39.606C52.4332 39.6596 52.4219 39.7171 52.4219 39.7751V43.2061C51.4086 43.2199 50.5926 44.0394 50.3555 44.9454C46.7754 44.6829 43.2844 45.4481 39.9064 46.1889C36.5764 46.9192 33.1349 47.6735 29.6669 47.4115C29.4618 46.3587 28.6427 45.3883 27.5781 44.9438V42.0863C27.5781 41.8425 27.3815 41.6446 27.1387 41.6446C26.8958 41.6446 26.6992 41.8425 26.6992 42.0863V45.0351C26.6992 45.3376 26.8972 45.6254 27.1803 45.7352C28.0304 46.0646 28.7047 46.8623 28.82 47.6749C28.8649 47.9915 29.1265 48.2457 29.4419 48.2798C29.4453 48.2799 29.4488 48.2803 29.4522 48.2806C30.0091 48.3273 30.5629 48.3485 31.1155 48.3485C34.1818 48.3485 37.1799 47.691 40.0936 47.052C43.4676 46.3122 46.956 45.547 50.4711 45.8405C50.8149 45.8746 51.1248 45.6362 51.1788 45.2964C51.2816 44.649 51.8913 43.9989 52.5995 44.1003C52.7778 44.1259 52.9558 44.0741 53.0888 43.9584C53.2236 43.8408 53.3008 43.6671 53.3008 43.4816V39.7752C53.3008 39.658 53.2545 39.5457 53.1721 39.4628C53.0897 39.38 52.9779 39.3334 52.8613 39.3334V39.3334ZM52.8249 34.2668C51.9563 33.9171 51.2802 33.1216 51.1809 32.3317C51.1406 32.0119 50.8785 31.7547 50.5581 31.7202C50.5547 31.72 50.5512 31.7195 50.5478 31.7193C46.9004 31.414 43.3449 32.1937 39.9064 32.9476C36.5322 33.6877 33.0436 34.4529 29.5291 34.1593C29.1725 34.1239 28.8606 34.3694 28.8189 34.7204C28.7361 35.4148 28.0636 35.9656 27.3815 35.897C27.2032 35.8794 27.0279 35.9364 26.8999 36.0528C26.7706 36.1708 26.6992 36.336 26.6992 36.5182V40C26.6992 40.2439 26.8958 40.4418 27.1387 40.4418C27.3815 40.4418 27.5781 40.2439 27.5781 40V36.785C28.5518 36.7463 29.4275 36.0195 29.6513 35.0552C33.229 35.3165 36.7176 34.5512 40.0936 33.8111C43.4229 33.0812 46.8641 32.3263 50.3313 32.5883C50.5448 33.766 51.5077 34.6605 52.4219 35.0551V37.7197C52.4219 37.8369 52.4682 37.9492 52.5506 38.0321C52.633 38.1149 52.7448 38.1614 52.8613 38.1614C53.1042 38.1614 53.3008 37.9638 53.3008 37.7197V34.965C53.3008 34.6667 53.1051 34.3796 52.8249 34.2668Z" fill="white"/>
<path d="M43.8875 40.0003C43.8875 37.2559 41.6663 35.0234 38.9363 35.0234C36.2062 35.0234 33.9851 37.2559 33.9851 40.0003C33.9851 42.7446 36.2062 44.9771 38.9363 44.9771C41.6664 44.9771 43.8875 42.7442 43.8875 40.0003ZM34.864 40.0003C34.864 37.743 36.6907 35.9069 38.9363 35.9069C41.1816 35.9069 43.0085 37.743 43.0085 40.0003C43.0085 42.2572 41.1816 44.0936 38.9363 44.0936C36.6907 44.0936 34.864 42.2572 34.864 40.0003Z" fill="white"/>
</svg>
