<svg width="14" height="8" viewBox="0 0 14 8" fill="none" xmlns="http://www.w3.org/2000/svg">
<rect width="14" height="8" fill="#1E1E1E"/>
<g id="Tour Details Page" clip-path="url(#clip0_0_1)">
<rect width="1440" height="2665" transform="translate(-1217 -753)" fill="white"/>
<path id="Rectangle" d="M-1217 -193H223V1347H-1217V-193Z" fill="white"/>
<g id="booking form">
<g id="Rectangle_2" filter="url(#filter0_d_0_1)">
<path d="M-387 -263C-387 -268.523 -382.523 -273 -377 -273H63C68.5229 -273 73 -268.523 73 -263V437C73 442.523 68.5229 447 63 447H-377C-382.523 447 -387 442.523 -387 437V-263Z" fill="white"/>
</g>
<g id="form">
<g id="calendar">
<g id="date picker">
<rect id="Rectangle_3" x="-276.5" y="-17.5" width="309" height="43" rx="4.5" fill="white" stroke="#A6A6A8"/>
<g id="arrow-circle-down">
<path id="Vector" d="M1 1L7 7L13 1" stroke="#656565" stroke-width="1.5" stroke-linecap="round" stroke-linejoin="round"/>
</g>
</g>
</g>
</g>
</g>
</g>
<defs>
<filter id="filter0_d_0_1" x="-397" y="-283" width="480" height="740" filterUnits="userSpaceOnUse" color-interpolation-filters="sRGB">
<feFlood flood-opacity="0" result="BackgroundImageFix"/>
<feColorMatrix in="SourceAlpha" type="matrix" values="0 0 0 0 0 0 0 0 0 0 0 0 0 0 0 0 0 0 127 0" result="hardAlpha"/>
<feOffset/>
<feGaussianBlur stdDeviation="5"/>
<feComposite in2="hardAlpha" operator="out"/>
<feColorMatrix type="matrix" values="0 0 0 0 0 0 0 0 0 0 0 0 0 0 0 0 0 0 0.25 0"/>
<feBlend mode="normal" in2="BackgroundImageFix" result="effect1_dropShadow_0_1"/>
<feBlend mode="normal" in="SourceGraphic" in2="effect1_dropShadow_0_1" result="shape"/>
</filter>
<clipPath id="clip0_0_1">
<rect width="1440" height="2665" fill="white" transform="translate(-1217 -753)"/>
</clipPath>
</defs>
</svg>
