<svg width="30" height="30" viewBox="0 0 30 30" fill="none" xmlns="http://www.w3.org/2000/svg">
<path d="M22.5001 8.95C22.4251 8.9375 22.3376 8.9375 22.2626 8.95C20.5376 8.8875 19.1626 7.475 19.1626 5.725C19.1626 3.9375 20.6001 2.5 22.3876 2.5C24.1751 2.5 25.6126 3.95 25.6126 5.725C25.6001 7.475 24.2251 8.8875 22.5001 8.95Z" stroke="#1D3A6D" stroke-width="1.5" stroke-linecap="round" stroke-linejoin="round"/>
<path d="M21.2128 18.05C22.9253 18.3375 24.8128 18.0375 26.1378 17.15C27.9003 15.975 27.9003 14.05 26.1378 12.875C24.8003 11.9875 22.8878 11.6875 21.1753 11.9875" stroke="#1D3A6D" stroke-width="1.5" stroke-linecap="round" stroke-linejoin="round"/>
<path d="M7.4626 8.95C7.5376 8.9375 7.6251 8.9375 7.7001 8.95C9.4251 8.8875 10.8001 7.475 10.8001 5.725C10.8001 3.9375 9.3626 2.5 7.5751 2.5C5.7876 2.5 4.3501 3.95 4.3501 5.725C4.3626 7.475 5.7376 8.8875 7.4626 8.95Z" stroke="#1D3A6D" stroke-width="1.5" stroke-linecap="round" stroke-linejoin="round"/>
<path d="M8.7498 18.05C7.0373 18.3375 5.1498 18.0375 3.8248 17.15C2.0623 15.975 2.0623 14.05 3.8248 12.875C5.1623 11.9875 7.0748 11.6875 8.7873 11.9875" stroke="#1D3A6D" stroke-width="1.5" stroke-linecap="round" stroke-linejoin="round"/>
<path d="M15.0001 18.2875C14.9251 18.275 14.8376 18.275 14.7626 18.2875C13.0376 18.225 11.6626 16.8125 11.6626 15.0625C11.6626 13.275 13.1001 11.8375 14.8876 11.8375C16.6751 11.8375 18.1126 13.2875 18.1126 15.0625C18.1001 16.8125 16.7251 18.2375 15.0001 18.2875Z" stroke="#1D3A6D" stroke-width="1.5" stroke-linecap="round" stroke-linejoin="round"/>
<path d="M11.3624 22.225C9.5999 23.4 9.5999 25.325 11.3624 26.5C13.3624 27.8375 16.6374 27.8375 18.6374 26.5C20.3999 25.325 20.3999 23.4 18.6374 22.225C16.6499 20.9 13.3624 20.9 11.3624 22.225Z" stroke="#1D3A6D" stroke-width="1.5" stroke-linecap="round" stroke-linejoin="round"/>
</svg>
