<svg width="80" height="80" viewBox="0 0 80 80" fill="none" xmlns="http://www.w3.org/2000/svg">
<circle cx="40" cy="40" r="40" fill="#1D3A6D"/>
<circle cx="40" cy="40" r="29.5" fill="#1D3A6D" stroke="#A6A6A8" stroke-linecap="round" stroke-dasharray="5 5"/>
<path d="M46.75 27C44.0625 27.0039 41.5449 28.2433 40 30.3223C39.2387 29.2977 38.2282 28.4612 37.0535 27.883C35.8788 27.3048 34.5743 27.002 33.25 27C28.855 27 25 30.8661 25 35.2728C25 39.5676 27.565 43.9909 32.418 48.0649C34.6666 49.9489 37.1331 51.5868 39.7705 52.9474C39.8415 52.982 39.9202 53 40 53C40.0798 53 40.1585 52.982 40.2295 52.9474C42.8661 51.5866 45.3317 49.9487 47.5796 48.0649C52.4351 43.9909 55 39.5676 55 35.2728C55 30.8661 51.145 27 46.75 27ZM40 51.9899C38.1636 51.0318 26 44.3378 26 35.2728C26 31.3695 29.3875 27.9455 33.25 27.9455C35.8667 27.9498 38.2788 29.2845 39.5644 31.4395C39.6607 31.5784 39.8244 31.662 40 31.662C40.1756 31.662 40.3394 31.5784 40.4356 31.4395C41.7212 29.2845 44.1333 27.9498 46.75 27.9455C50.6125 27.9455 54 31.3695 54 35.2728C54 44.3378 41.8364 51.0318 40 51.9899Z" fill="white"/>
</svg>
